G04 #@! TF.GenerationSoftware,KiCad,Pcbnew,(5.1.2)-2*
G04 #@! TF.CreationDate,2019-08-09T14:08:30+02:00*
G04 #@! TF.ProjectId,ESP Base,45535020-4261-4736-952e-6b696361645f,1.0.8*
G04 #@! TF.SameCoordinates,Original*
G04 #@! TF.FileFunction,Legend,Bot*
G04 #@! TF.FilePolarity,Positive*
%FSLAX46Y46*%
G04 Gerber Fmt 4.6, Leading zero omitted, Abs format (unit mm)*
G04 Created by KiCad (PCBNEW (5.1.2)-2) date 2019-08-09 14:08:30*
%MOMM*%
%LPD*%
G04 APERTURE LIST*
%ADD10C,0.125000*%
%ADD11C,0.300000*%
%ADD12C,0.381000*%
%ADD13C,0.010000*%
%ADD14C,0.120000*%
%ADD15C,0.127000*%
%ADD16C,0.200000*%
%ADD17C,0.150000*%
%ADD18C,0.050000*%
G04 APERTURE END LIST*
D10*
X59801428Y-73485238D02*
X59777619Y-73509047D01*
X59753809Y-73580476D01*
X59753809Y-73628095D01*
X59777619Y-73699523D01*
X59825238Y-73747142D01*
X59872857Y-73770952D01*
X59968095Y-73794761D01*
X60039523Y-73794761D01*
X60134761Y-73770952D01*
X60182380Y-73747142D01*
X60230000Y-73699523D01*
X60253809Y-73628095D01*
X60253809Y-73580476D01*
X60230000Y-73509047D01*
X60206190Y-73485238D01*
X59753809Y-73199523D02*
X59777619Y-73247142D01*
X59801428Y-73270952D01*
X59849047Y-73294761D01*
X59991904Y-73294761D01*
X60039523Y-73270952D01*
X60063333Y-73247142D01*
X60087142Y-73199523D01*
X60087142Y-73128095D01*
X60063333Y-73080476D01*
X60039523Y-73056666D01*
X59991904Y-73032857D01*
X59849047Y-73032857D01*
X59801428Y-73056666D01*
X59777619Y-73080476D01*
X59753809Y-73128095D01*
X59753809Y-73199523D01*
X60087142Y-72818571D02*
X59587142Y-72818571D01*
X60063333Y-72818571D02*
X60087142Y-72770952D01*
X60087142Y-72675714D01*
X60063333Y-72628095D01*
X60039523Y-72604285D01*
X59991904Y-72580476D01*
X59849047Y-72580476D01*
X59801428Y-72604285D01*
X59777619Y-72628095D01*
X59753809Y-72675714D01*
X59753809Y-72770952D01*
X59777619Y-72818571D01*
X60087142Y-72413809D02*
X59753809Y-72294761D01*
X60087142Y-72175714D02*
X59753809Y-72294761D01*
X59634761Y-72342380D01*
X59610952Y-72366190D01*
X59587142Y-72413809D01*
X59753809Y-71985238D02*
X60087142Y-71985238D01*
X59991904Y-71985238D02*
X60039523Y-71961428D01*
X60063333Y-71937619D01*
X60087142Y-71890000D01*
X60087142Y-71842380D01*
X59753809Y-71675714D02*
X60087142Y-71675714D01*
X60253809Y-71675714D02*
X60230000Y-71699523D01*
X60206190Y-71675714D01*
X60230000Y-71651904D01*
X60253809Y-71675714D01*
X60206190Y-71675714D01*
X60087142Y-71223333D02*
X59682380Y-71223333D01*
X59634761Y-71247142D01*
X59610952Y-71270952D01*
X59587142Y-71318571D01*
X59587142Y-71390000D01*
X59610952Y-71437619D01*
X59777619Y-71223333D02*
X59753809Y-71270952D01*
X59753809Y-71366190D01*
X59777619Y-71413809D01*
X59801428Y-71437619D01*
X59849047Y-71461428D01*
X59991904Y-71461428D01*
X60039523Y-71437619D01*
X60063333Y-71413809D01*
X60087142Y-71366190D01*
X60087142Y-71270952D01*
X60063333Y-71223333D01*
X59753809Y-70985238D02*
X60253809Y-70985238D01*
X59753809Y-70770952D02*
X60015714Y-70770952D01*
X60063333Y-70794761D01*
X60087142Y-70842380D01*
X60087142Y-70913809D01*
X60063333Y-70961428D01*
X60039523Y-70985238D01*
X60087142Y-70604285D02*
X60087142Y-70413809D01*
X60253809Y-70532857D02*
X59825238Y-70532857D01*
X59777619Y-70509047D01*
X59753809Y-70461428D01*
X59753809Y-70413809D01*
X60206190Y-69890000D02*
X60230000Y-69866190D01*
X60253809Y-69818571D01*
X60253809Y-69699523D01*
X60230000Y-69651904D01*
X60206190Y-69628095D01*
X60158571Y-69604285D01*
X60110952Y-69604285D01*
X60039523Y-69628095D01*
X59753809Y-69913809D01*
X59753809Y-69604285D01*
X60253809Y-69294761D02*
X60253809Y-69247142D01*
X60230000Y-69199523D01*
X60206190Y-69175714D01*
X60158571Y-69151904D01*
X60063333Y-69128095D01*
X59944285Y-69128095D01*
X59849047Y-69151904D01*
X59801428Y-69175714D01*
X59777619Y-69199523D01*
X59753809Y-69247142D01*
X59753809Y-69294761D01*
X59777619Y-69342380D01*
X59801428Y-69366190D01*
X59849047Y-69390000D01*
X59944285Y-69413809D01*
X60063333Y-69413809D01*
X60158571Y-69390000D01*
X60206190Y-69366190D01*
X60230000Y-69342380D01*
X60253809Y-69294761D01*
X59753809Y-68651904D02*
X59753809Y-68937619D01*
X59753809Y-68794761D02*
X60253809Y-68794761D01*
X60182380Y-68842380D01*
X60134761Y-68890000D01*
X60110952Y-68937619D01*
X59753809Y-68413809D02*
X59753809Y-68318571D01*
X59777619Y-68270952D01*
X59801428Y-68247142D01*
X59872857Y-68199523D01*
X59968095Y-68175714D01*
X60158571Y-68175714D01*
X60206190Y-68199523D01*
X60230000Y-68223333D01*
X60253809Y-68270952D01*
X60253809Y-68366190D01*
X60230000Y-68413809D01*
X60206190Y-68437619D01*
X60158571Y-68461428D01*
X60039523Y-68461428D01*
X59991904Y-68437619D01*
X59968095Y-68413809D01*
X59944285Y-68366190D01*
X59944285Y-68270952D01*
X59968095Y-68223333D01*
X59991904Y-68199523D01*
X60039523Y-68175714D01*
X59777619Y-67604285D02*
X59753809Y-67532857D01*
X59753809Y-67413809D01*
X59777619Y-67366190D01*
X59801428Y-67342380D01*
X59849047Y-67318571D01*
X59896666Y-67318571D01*
X59944285Y-67342380D01*
X59968095Y-67366190D01*
X59991904Y-67413809D01*
X60015714Y-67509047D01*
X60039523Y-67556666D01*
X60063333Y-67580476D01*
X60110952Y-67604285D01*
X60158571Y-67604285D01*
X60206190Y-67580476D01*
X60230000Y-67556666D01*
X60253809Y-67509047D01*
X60253809Y-67390000D01*
X60230000Y-67318571D01*
X60087142Y-67175714D02*
X60087142Y-66985238D01*
X60253809Y-67104285D02*
X59825238Y-67104285D01*
X59777619Y-67080476D01*
X59753809Y-67032857D01*
X59753809Y-66985238D01*
X60087142Y-66604285D02*
X59753809Y-66604285D01*
X60087142Y-66818571D02*
X59825238Y-66818571D01*
X59777619Y-66794761D01*
X59753809Y-66747142D01*
X59753809Y-66675714D01*
X59777619Y-66628095D01*
X59801428Y-66604285D01*
X59753809Y-66151904D02*
X60253809Y-66151904D01*
X59777619Y-66151904D02*
X59753809Y-66199523D01*
X59753809Y-66294761D01*
X59777619Y-66342380D01*
X59801428Y-66366190D01*
X59849047Y-66390000D01*
X59991904Y-66390000D01*
X60039523Y-66366190D01*
X60063333Y-66342380D01*
X60087142Y-66294761D01*
X60087142Y-66199523D01*
X60063333Y-66151904D01*
X59753809Y-65913809D02*
X60087142Y-65913809D01*
X60253809Y-65913809D02*
X60230000Y-65937619D01*
X60206190Y-65913809D01*
X60230000Y-65890000D01*
X60253809Y-65913809D01*
X60206190Y-65913809D01*
X59753809Y-65604285D02*
X59777619Y-65651904D01*
X59801428Y-65675714D01*
X59849047Y-65699523D01*
X59991904Y-65699523D01*
X60039523Y-65675714D01*
X60063333Y-65651904D01*
X60087142Y-65604285D01*
X60087142Y-65532857D01*
X60063333Y-65485238D01*
X60039523Y-65461428D01*
X59991904Y-65437619D01*
X59849047Y-65437619D01*
X59801428Y-65461428D01*
X59777619Y-65485238D01*
X59753809Y-65532857D01*
X59753809Y-65604285D01*
X59753809Y-65223333D02*
X60253809Y-65223333D01*
X60253809Y-65032857D01*
X60230000Y-64985238D01*
X60206190Y-64961428D01*
X60158571Y-64937619D01*
X60087142Y-64937619D01*
X60039523Y-64961428D01*
X60015714Y-64985238D01*
X59991904Y-65032857D01*
X59991904Y-65223333D01*
X59753809Y-64723333D02*
X60087142Y-64723333D01*
X60253809Y-64723333D02*
X60230000Y-64747142D01*
X60206190Y-64723333D01*
X60230000Y-64699523D01*
X60253809Y-64723333D01*
X60206190Y-64723333D01*
X59777619Y-64294761D02*
X59753809Y-64342380D01*
X59753809Y-64437619D01*
X59777619Y-64485238D01*
X59825238Y-64509047D01*
X60015714Y-64509047D01*
X60063333Y-64485238D01*
X60087142Y-64437619D01*
X60087142Y-64342380D01*
X60063333Y-64294761D01*
X60015714Y-64270952D01*
X59968095Y-64270952D01*
X59920476Y-64509047D01*
X60087142Y-64128095D02*
X60087142Y-63937619D01*
X60253809Y-64056666D02*
X59825238Y-64056666D01*
X59777619Y-64032857D01*
X59753809Y-63985238D01*
X59753809Y-63937619D01*
X59777619Y-63580476D02*
X59753809Y-63628095D01*
X59753809Y-63723333D01*
X59777619Y-63770952D01*
X59825238Y-63794761D01*
X60015714Y-63794761D01*
X60063333Y-63770952D01*
X60087142Y-63723333D01*
X60087142Y-63628095D01*
X60063333Y-63580476D01*
X60015714Y-63556666D01*
X59968095Y-63556666D01*
X59920476Y-63794761D01*
X59753809Y-63342380D02*
X60087142Y-63342380D01*
X59991904Y-63342380D02*
X60039523Y-63318571D01*
X60063333Y-63294761D01*
X60087142Y-63247142D01*
X60087142Y-63199523D01*
X59777619Y-63056666D02*
X59753809Y-63009047D01*
X59753809Y-62913809D01*
X59777619Y-62866190D01*
X59825238Y-62842380D01*
X59849047Y-62842380D01*
X59896666Y-62866190D01*
X59920476Y-62913809D01*
X59920476Y-62985238D01*
X59944285Y-63032857D01*
X59991904Y-63056666D01*
X60015714Y-63056666D01*
X60063333Y-63032857D01*
X60087142Y-62985238D01*
X60087142Y-62913809D01*
X60063333Y-62866190D01*
X59825238Y-62199523D02*
X59968095Y-62318571D01*
X59825238Y-62413809D02*
X60158571Y-62413809D01*
X60158571Y-62270952D01*
X60134761Y-62223333D01*
X60087142Y-62199523D01*
X60039523Y-62199523D01*
X59991904Y-62223333D01*
X59968095Y-62270952D01*
X59968095Y-62413809D01*
X60325238Y-62318571D02*
X60301428Y-62437619D01*
X60230000Y-62556666D01*
X60110952Y-62628095D01*
X59991904Y-62651904D01*
X59872857Y-62628095D01*
X59753809Y-62556666D01*
X59682380Y-62437619D01*
X59658571Y-62318571D01*
X59682380Y-62199523D01*
X59753809Y-62080476D01*
X59872857Y-62009047D01*
X59991904Y-61985238D01*
X60110952Y-62009047D01*
X60230000Y-62080476D01*
X60301428Y-62199523D01*
X60325238Y-62318571D01*
D11*
X72801428Y-88368571D02*
X73301428Y-87654285D01*
X73658571Y-88368571D02*
X73658571Y-86868571D01*
X73087142Y-86868571D01*
X72944285Y-86940000D01*
X72872857Y-87011428D01*
X72801428Y-87154285D01*
X72801428Y-87368571D01*
X72872857Y-87511428D01*
X72944285Y-87582857D01*
X73087142Y-87654285D01*
X73658571Y-87654285D01*
X72158571Y-87582857D02*
X71658571Y-87582857D01*
X71444285Y-88368571D02*
X72158571Y-88368571D01*
X72158571Y-86868571D01*
X71444285Y-86868571D01*
X70087142Y-88368571D02*
X70801428Y-88368571D01*
X70801428Y-86868571D01*
X69658571Y-87940000D02*
X68944285Y-87940000D01*
X69801428Y-88368571D02*
X69301428Y-86868571D01*
X68801428Y-88368571D01*
X68015714Y-87654285D02*
X68015714Y-88368571D01*
X68515714Y-86868571D02*
X68015714Y-87654285D01*
X67515714Y-86868571D01*
X65587142Y-86868571D02*
X65301428Y-86868571D01*
X65158571Y-86940000D01*
X65015714Y-87082857D01*
X64944285Y-87368571D01*
X64944285Y-87868571D01*
X65015714Y-88154285D01*
X65158571Y-88297142D01*
X65301428Y-88368571D01*
X65587142Y-88368571D01*
X65730000Y-88297142D01*
X65872857Y-88154285D01*
X65944285Y-87868571D01*
X65944285Y-87368571D01*
X65872857Y-87082857D01*
X65730000Y-86940000D01*
X65587142Y-86868571D01*
X64301428Y-86868571D02*
X64301428Y-88082857D01*
X64230000Y-88225714D01*
X64158571Y-88297142D01*
X64015714Y-88368571D01*
X63730000Y-88368571D01*
X63587142Y-88297142D01*
X63515714Y-88225714D01*
X63444285Y-88082857D01*
X63444285Y-86868571D01*
X62944285Y-86868571D02*
X62087142Y-86868571D01*
X62515714Y-88368571D02*
X62515714Y-86868571D01*
D10*
X115079702Y-70361190D02*
X115079702Y-69861190D01*
X114889226Y-69861190D01*
X114841607Y-69885000D01*
X114817797Y-69908809D01*
X114793988Y-69956428D01*
X114793988Y-70027857D01*
X114817797Y-70075476D01*
X114841607Y-70099285D01*
X114889226Y-70123095D01*
X115079702Y-70123095D01*
X114579702Y-70361190D02*
X114579702Y-70027857D01*
X114579702Y-70123095D02*
X114555892Y-70075476D01*
X114532083Y-70051666D01*
X114484464Y-70027857D01*
X114436845Y-70027857D01*
X114198750Y-70361190D02*
X114246369Y-70337380D01*
X114270178Y-70313571D01*
X114293988Y-70265952D01*
X114293988Y-70123095D01*
X114270178Y-70075476D01*
X114246369Y-70051666D01*
X114198750Y-70027857D01*
X114127321Y-70027857D01*
X114079702Y-70051666D01*
X114055892Y-70075476D01*
X114032083Y-70123095D01*
X114032083Y-70265952D01*
X114055892Y-70313571D01*
X114079702Y-70337380D01*
X114127321Y-70361190D01*
X114198750Y-70361190D01*
X113817797Y-70027857D02*
X113817797Y-70456428D01*
X113841607Y-70504047D01*
X113889226Y-70527857D01*
X113913035Y-70527857D01*
X113817797Y-69861190D02*
X113841607Y-69885000D01*
X113817797Y-69908809D01*
X113793988Y-69885000D01*
X113817797Y-69861190D01*
X113817797Y-69908809D01*
X113389226Y-70337380D02*
X113436845Y-70361190D01*
X113532083Y-70361190D01*
X113579702Y-70337380D01*
X113603511Y-70289761D01*
X113603511Y-70099285D01*
X113579702Y-70051666D01*
X113532083Y-70027857D01*
X113436845Y-70027857D01*
X113389226Y-70051666D01*
X113365416Y-70099285D01*
X113365416Y-70146904D01*
X113603511Y-70194523D01*
X112936845Y-70337380D02*
X112984464Y-70361190D01*
X113079702Y-70361190D01*
X113127321Y-70337380D01*
X113151130Y-70313571D01*
X113174940Y-70265952D01*
X113174940Y-70123095D01*
X113151130Y-70075476D01*
X113127321Y-70051666D01*
X113079702Y-70027857D01*
X112984464Y-70027857D01*
X112936845Y-70051666D01*
X112793988Y-70027857D02*
X112603511Y-70027857D01*
X112722559Y-69861190D02*
X112722559Y-70289761D01*
X112698750Y-70337380D01*
X112651130Y-70361190D01*
X112603511Y-70361190D01*
X112055892Y-70027857D02*
X112055892Y-70361190D01*
X112055892Y-70075476D02*
X112032083Y-70051666D01*
X111984464Y-70027857D01*
X111913035Y-70027857D01*
X111865416Y-70051666D01*
X111841607Y-70099285D01*
X111841607Y-70361190D01*
X111389226Y-70361190D02*
X111389226Y-70099285D01*
X111413035Y-70051666D01*
X111460654Y-70027857D01*
X111555892Y-70027857D01*
X111603511Y-70051666D01*
X111389226Y-70337380D02*
X111436845Y-70361190D01*
X111555892Y-70361190D01*
X111603511Y-70337380D01*
X111627321Y-70289761D01*
X111627321Y-70242142D01*
X111603511Y-70194523D01*
X111555892Y-70170714D01*
X111436845Y-70170714D01*
X111389226Y-70146904D01*
X111151130Y-70361190D02*
X111151130Y-70027857D01*
X111151130Y-70075476D02*
X111127321Y-70051666D01*
X111079702Y-70027857D01*
X111008273Y-70027857D01*
X110960654Y-70051666D01*
X110936845Y-70099285D01*
X110936845Y-70361190D01*
X110936845Y-70099285D02*
X110913035Y-70051666D01*
X110865416Y-70027857D01*
X110793988Y-70027857D01*
X110746369Y-70051666D01*
X110722559Y-70099285D01*
X110722559Y-70361190D01*
X110293988Y-70337380D02*
X110341607Y-70361190D01*
X110436845Y-70361190D01*
X110484464Y-70337380D01*
X110508273Y-70289761D01*
X110508273Y-70099285D01*
X110484464Y-70051666D01*
X110436845Y-70027857D01*
X110341607Y-70027857D01*
X110293988Y-70051666D01*
X110270178Y-70099285D01*
X110270178Y-70146904D01*
X110508273Y-70194523D01*
X110055892Y-70313571D02*
X110032083Y-70337380D01*
X110055892Y-70361190D01*
X110079702Y-70337380D01*
X110055892Y-70313571D01*
X110055892Y-70361190D01*
X110055892Y-70051666D02*
X110032083Y-70075476D01*
X110055892Y-70099285D01*
X110079702Y-70075476D01*
X110055892Y-70051666D01*
X110055892Y-70099285D01*
X109436845Y-70099285D02*
X109270178Y-70099285D01*
X109198750Y-70361190D02*
X109436845Y-70361190D01*
X109436845Y-69861190D01*
X109198750Y-69861190D01*
X109008273Y-70337380D02*
X108936845Y-70361190D01*
X108817797Y-70361190D01*
X108770178Y-70337380D01*
X108746369Y-70313571D01*
X108722559Y-70265952D01*
X108722559Y-70218333D01*
X108746369Y-70170714D01*
X108770178Y-70146904D01*
X108817797Y-70123095D01*
X108913035Y-70099285D01*
X108960654Y-70075476D01*
X108984464Y-70051666D01*
X109008273Y-70004047D01*
X109008273Y-69956428D01*
X108984464Y-69908809D01*
X108960654Y-69885000D01*
X108913035Y-69861190D01*
X108793988Y-69861190D01*
X108722559Y-69885000D01*
X108508273Y-70361190D02*
X108508273Y-69861190D01*
X108317797Y-69861190D01*
X108270178Y-69885000D01*
X108246369Y-69908809D01*
X108222559Y-69956428D01*
X108222559Y-70027857D01*
X108246369Y-70075476D01*
X108270178Y-70099285D01*
X108317797Y-70123095D01*
X108508273Y-70123095D01*
X107936845Y-70075476D02*
X107984464Y-70051666D01*
X108008273Y-70027857D01*
X108032083Y-69980238D01*
X108032083Y-69956428D01*
X108008273Y-69908809D01*
X107984464Y-69885000D01*
X107936845Y-69861190D01*
X107841607Y-69861190D01*
X107793988Y-69885000D01*
X107770178Y-69908809D01*
X107746369Y-69956428D01*
X107746369Y-69980238D01*
X107770178Y-70027857D01*
X107793988Y-70051666D01*
X107841607Y-70075476D01*
X107936845Y-70075476D01*
X107984464Y-70099285D01*
X108008273Y-70123095D01*
X108032083Y-70170714D01*
X108032083Y-70265952D01*
X108008273Y-70313571D01*
X107984464Y-70337380D01*
X107936845Y-70361190D01*
X107841607Y-70361190D01*
X107793988Y-70337380D01*
X107770178Y-70313571D01*
X107746369Y-70265952D01*
X107746369Y-70170714D01*
X107770178Y-70123095D01*
X107793988Y-70099285D01*
X107841607Y-70075476D01*
X107555892Y-69908809D02*
X107532083Y-69885000D01*
X107484464Y-69861190D01*
X107365416Y-69861190D01*
X107317797Y-69885000D01*
X107293988Y-69908809D01*
X107270178Y-69956428D01*
X107270178Y-70004047D01*
X107293988Y-70075476D01*
X107579702Y-70361190D01*
X107270178Y-70361190D01*
X106841607Y-69861190D02*
X106936845Y-69861190D01*
X106984464Y-69885000D01*
X107008273Y-69908809D01*
X107055892Y-69980238D01*
X107079702Y-70075476D01*
X107079702Y-70265952D01*
X107055892Y-70313571D01*
X107032083Y-70337380D01*
X106984464Y-70361190D01*
X106889226Y-70361190D01*
X106841607Y-70337380D01*
X106817797Y-70313571D01*
X106793988Y-70265952D01*
X106793988Y-70146904D01*
X106817797Y-70099285D01*
X106841607Y-70075476D01*
X106889226Y-70051666D01*
X106984464Y-70051666D01*
X107032083Y-70075476D01*
X107055892Y-70099285D01*
X107079702Y-70146904D01*
X106365416Y-69861190D02*
X106460654Y-69861190D01*
X106508273Y-69885000D01*
X106532083Y-69908809D01*
X106579702Y-69980238D01*
X106603511Y-70075476D01*
X106603511Y-70265952D01*
X106579702Y-70313571D01*
X106555892Y-70337380D01*
X106508273Y-70361190D01*
X106413035Y-70361190D01*
X106365416Y-70337380D01*
X106341607Y-70313571D01*
X106317797Y-70265952D01*
X106317797Y-70146904D01*
X106341607Y-70099285D01*
X106365416Y-70075476D01*
X106413035Y-70051666D01*
X106508273Y-70051666D01*
X106555892Y-70075476D01*
X106579702Y-70099285D01*
X106603511Y-70146904D01*
X105603511Y-70194523D02*
X105793988Y-70194523D01*
X105055892Y-70361190D02*
X105055892Y-69861190D01*
X105055892Y-70099285D02*
X104770178Y-70099285D01*
X104770178Y-70361190D02*
X104770178Y-69861190D01*
X104460654Y-70361190D02*
X104508273Y-70337380D01*
X104532083Y-70313571D01*
X104555892Y-70265952D01*
X104555892Y-70123095D01*
X104532083Y-70075476D01*
X104508273Y-70051666D01*
X104460654Y-70027857D01*
X104389226Y-70027857D01*
X104341607Y-70051666D01*
X104317797Y-70075476D01*
X104293988Y-70123095D01*
X104293988Y-70265952D01*
X104317797Y-70313571D01*
X104341607Y-70337380D01*
X104389226Y-70361190D01*
X104460654Y-70361190D01*
X104079702Y-70361190D02*
X104079702Y-70027857D01*
X104079702Y-70075476D02*
X104055892Y-70051666D01*
X104008273Y-70027857D01*
X103936845Y-70027857D01*
X103889226Y-70051666D01*
X103865416Y-70099285D01*
X103865416Y-70361190D01*
X103865416Y-70099285D02*
X103841607Y-70051666D01*
X103793988Y-70027857D01*
X103722559Y-70027857D01*
X103674940Y-70051666D01*
X103651130Y-70099285D01*
X103651130Y-70361190D01*
X103222559Y-70337380D02*
X103270178Y-70361190D01*
X103365416Y-70361190D01*
X103413035Y-70337380D01*
X103436845Y-70289761D01*
X103436845Y-70099285D01*
X103413035Y-70051666D01*
X103365416Y-70027857D01*
X103270178Y-70027857D01*
X103222559Y-70051666D01*
X103198750Y-70099285D01*
X103198750Y-70146904D01*
X103436845Y-70194523D01*
X102984464Y-70361190D02*
X102984464Y-69861190D01*
X102698750Y-70361190D02*
X102913035Y-70075476D01*
X102698750Y-69861190D02*
X102984464Y-70146904D01*
X102484464Y-70361190D02*
X102484464Y-70027857D01*
X102484464Y-69861190D02*
X102508273Y-69885000D01*
X102484464Y-69908809D01*
X102460654Y-69885000D01*
X102484464Y-69861190D01*
X102484464Y-69908809D01*
X102317797Y-70027857D02*
X102127321Y-70027857D01*
X102246369Y-69861190D02*
X102246369Y-70289761D01*
X102222559Y-70337380D01*
X102174940Y-70361190D01*
X102127321Y-70361190D01*
X101579702Y-70361190D02*
X101579702Y-69861190D01*
X101293988Y-70361190D01*
X101293988Y-69861190D01*
X100865416Y-70337380D02*
X100913035Y-70361190D01*
X101008273Y-70361190D01*
X101055892Y-70337380D01*
X101079702Y-70289761D01*
X101079702Y-70099285D01*
X101055892Y-70051666D01*
X101008273Y-70027857D01*
X100913035Y-70027857D01*
X100865416Y-70051666D01*
X100841607Y-70099285D01*
X100841607Y-70146904D01*
X101079702Y-70194523D01*
X100555892Y-70361190D02*
X100603511Y-70337380D01*
X100627321Y-70313571D01*
X100651130Y-70265952D01*
X100651130Y-70123095D01*
X100627321Y-70075476D01*
X100603511Y-70051666D01*
X100555892Y-70027857D01*
X100484464Y-70027857D01*
X100436845Y-70051666D01*
X100413035Y-70075476D01*
X100389226Y-70123095D01*
X100389226Y-70265952D01*
X100413035Y-70313571D01*
X100436845Y-70337380D01*
X100484464Y-70361190D01*
X100555892Y-70361190D01*
X100174940Y-70361190D02*
X100174940Y-69861190D01*
X99984464Y-69861190D01*
X99936845Y-69885000D01*
X99913035Y-69908809D01*
X99889226Y-69956428D01*
X99889226Y-70027857D01*
X99913035Y-70075476D01*
X99936845Y-70099285D01*
X99984464Y-70123095D01*
X100174940Y-70123095D01*
X99674940Y-70361190D02*
X99674940Y-70027857D01*
X99674940Y-69861190D02*
X99698750Y-69885000D01*
X99674940Y-69908809D01*
X99651130Y-69885000D01*
X99674940Y-69861190D01*
X99674940Y-69908809D01*
X99484464Y-70361190D02*
X99222559Y-70027857D01*
X99484464Y-70027857D02*
X99222559Y-70361190D01*
X98841607Y-70337380D02*
X98889226Y-70361190D01*
X98984464Y-70361190D01*
X99032083Y-70337380D01*
X99055892Y-70289761D01*
X99055892Y-70099285D01*
X99032083Y-70051666D01*
X98984464Y-70027857D01*
X98889226Y-70027857D01*
X98841607Y-70051666D01*
X98817797Y-70099285D01*
X98817797Y-70146904D01*
X99055892Y-70194523D01*
X98532083Y-70361190D02*
X98579702Y-70337380D01*
X98603511Y-70289761D01*
X98603511Y-69861190D01*
X97722559Y-70361190D02*
X97960654Y-70361190D01*
X97960654Y-69861190D01*
X97555892Y-70361190D02*
X97555892Y-70027857D01*
X97555892Y-69861190D02*
X97579702Y-69885000D01*
X97555892Y-69908809D01*
X97532083Y-69885000D01*
X97555892Y-69861190D01*
X97555892Y-69908809D01*
X97103511Y-70027857D02*
X97103511Y-70432619D01*
X97127321Y-70480238D01*
X97151130Y-70504047D01*
X97198750Y-70527857D01*
X97270178Y-70527857D01*
X97317797Y-70504047D01*
X97103511Y-70337380D02*
X97151130Y-70361190D01*
X97246369Y-70361190D01*
X97293988Y-70337380D01*
X97317797Y-70313571D01*
X97341607Y-70265952D01*
X97341607Y-70123095D01*
X97317797Y-70075476D01*
X97293988Y-70051666D01*
X97246369Y-70027857D01*
X97151130Y-70027857D01*
X97103511Y-70051666D01*
X96865416Y-70361190D02*
X96865416Y-69861190D01*
X96651130Y-70361190D02*
X96651130Y-70099285D01*
X96674940Y-70051666D01*
X96722559Y-70027857D01*
X96793988Y-70027857D01*
X96841607Y-70051666D01*
X96865416Y-70075476D01*
X96484464Y-70027857D02*
X96293988Y-70027857D01*
X96413035Y-69861190D02*
X96413035Y-70289761D01*
X96389226Y-70337380D01*
X96341607Y-70361190D01*
X96293988Y-70361190D01*
X115079702Y-72111190D02*
X115079702Y-71611190D01*
X114889226Y-71611190D01*
X114841607Y-71635000D01*
X114817797Y-71658809D01*
X114793988Y-71706428D01*
X114793988Y-71777857D01*
X114817797Y-71825476D01*
X114841607Y-71849285D01*
X114889226Y-71873095D01*
X115079702Y-71873095D01*
X114579702Y-72111190D02*
X114579702Y-71777857D01*
X114579702Y-71873095D02*
X114555892Y-71825476D01*
X114532083Y-71801666D01*
X114484464Y-71777857D01*
X114436845Y-71777857D01*
X114198750Y-72111190D02*
X114246369Y-72087380D01*
X114270178Y-72063571D01*
X114293988Y-72015952D01*
X114293988Y-71873095D01*
X114270178Y-71825476D01*
X114246369Y-71801666D01*
X114198750Y-71777857D01*
X114127321Y-71777857D01*
X114079702Y-71801666D01*
X114055892Y-71825476D01*
X114032083Y-71873095D01*
X114032083Y-72015952D01*
X114055892Y-72063571D01*
X114079702Y-72087380D01*
X114127321Y-72111190D01*
X114198750Y-72111190D01*
X113817797Y-71777857D02*
X113817797Y-72206428D01*
X113841607Y-72254047D01*
X113889226Y-72277857D01*
X113913035Y-72277857D01*
X113817797Y-71611190D02*
X113841607Y-71635000D01*
X113817797Y-71658809D01*
X113793988Y-71635000D01*
X113817797Y-71611190D01*
X113817797Y-71658809D01*
X113389226Y-72087380D02*
X113436845Y-72111190D01*
X113532083Y-72111190D01*
X113579702Y-72087380D01*
X113603511Y-72039761D01*
X113603511Y-71849285D01*
X113579702Y-71801666D01*
X113532083Y-71777857D01*
X113436845Y-71777857D01*
X113389226Y-71801666D01*
X113365416Y-71849285D01*
X113365416Y-71896904D01*
X113603511Y-71944523D01*
X112936845Y-72087380D02*
X112984464Y-72111190D01*
X113079702Y-72111190D01*
X113127321Y-72087380D01*
X113151130Y-72063571D01*
X113174940Y-72015952D01*
X113174940Y-71873095D01*
X113151130Y-71825476D01*
X113127321Y-71801666D01*
X113079702Y-71777857D01*
X112984464Y-71777857D01*
X112936845Y-71801666D01*
X112793988Y-71777857D02*
X112603511Y-71777857D01*
X112722559Y-71611190D02*
X112722559Y-72039761D01*
X112698750Y-72087380D01*
X112651130Y-72111190D01*
X112603511Y-72111190D01*
X112055892Y-71611190D02*
X112055892Y-72015952D01*
X112032083Y-72063571D01*
X112008273Y-72087380D01*
X111960654Y-72111190D01*
X111865416Y-72111190D01*
X111817797Y-72087380D01*
X111793988Y-72063571D01*
X111770178Y-72015952D01*
X111770178Y-71611190D01*
X111246369Y-72111190D02*
X111413035Y-71873095D01*
X111532083Y-72111190D02*
X111532083Y-71611190D01*
X111341607Y-71611190D01*
X111293988Y-71635000D01*
X111270178Y-71658809D01*
X111246369Y-71706428D01*
X111246369Y-71777857D01*
X111270178Y-71825476D01*
X111293988Y-71849285D01*
X111341607Y-71873095D01*
X111532083Y-71873095D01*
X111032083Y-72111190D02*
X111032083Y-71611190D01*
X110793988Y-72063571D02*
X110770178Y-72087380D01*
X110793988Y-72111190D01*
X110817797Y-72087380D01*
X110793988Y-72063571D01*
X110793988Y-72111190D01*
X110793988Y-71801666D02*
X110770178Y-71825476D01*
X110793988Y-71849285D01*
X110817797Y-71825476D01*
X110793988Y-71801666D01*
X110793988Y-71849285D01*
X110174940Y-72111190D02*
X110174940Y-71611190D01*
X109960654Y-72111190D02*
X109960654Y-71849285D01*
X109984464Y-71801666D01*
X110032083Y-71777857D01*
X110103511Y-71777857D01*
X110151130Y-71801666D01*
X110174940Y-71825476D01*
X109793988Y-71777857D02*
X109603511Y-71777857D01*
X109722559Y-71611190D02*
X109722559Y-72039761D01*
X109698750Y-72087380D01*
X109651130Y-72111190D01*
X109603511Y-72111190D01*
X109508273Y-71777857D02*
X109317797Y-71777857D01*
X109436845Y-71611190D02*
X109436845Y-72039761D01*
X109413035Y-72087380D01*
X109365416Y-72111190D01*
X109317797Y-72111190D01*
X109151130Y-71777857D02*
X109151130Y-72277857D01*
X109151130Y-71801666D02*
X109103511Y-71777857D01*
X109008273Y-71777857D01*
X108960654Y-71801666D01*
X108936845Y-71825476D01*
X108913035Y-71873095D01*
X108913035Y-72015952D01*
X108936845Y-72063571D01*
X108960654Y-72087380D01*
X109008273Y-72111190D01*
X109103511Y-72111190D01*
X109151130Y-72087380D01*
X108722559Y-72087380D02*
X108674940Y-72111190D01*
X108579702Y-72111190D01*
X108532083Y-72087380D01*
X108508273Y-72039761D01*
X108508273Y-72015952D01*
X108532083Y-71968333D01*
X108579702Y-71944523D01*
X108651130Y-71944523D01*
X108698750Y-71920714D01*
X108722559Y-71873095D01*
X108722559Y-71849285D01*
X108698750Y-71801666D01*
X108651130Y-71777857D01*
X108579702Y-71777857D01*
X108532083Y-71801666D01*
X108293988Y-72063571D02*
X108270178Y-72087380D01*
X108293988Y-72111190D01*
X108317797Y-72087380D01*
X108293988Y-72063571D01*
X108293988Y-72111190D01*
X108293988Y-71801666D02*
X108270178Y-71825476D01*
X108293988Y-71849285D01*
X108317797Y-71825476D01*
X108293988Y-71801666D01*
X108293988Y-71849285D01*
X107698750Y-71587380D02*
X108127321Y-72230238D01*
X107174940Y-71587380D02*
X107603511Y-72230238D01*
X107055892Y-71777857D02*
X106960654Y-72111190D01*
X106865416Y-71873095D01*
X106770178Y-72111190D01*
X106674940Y-71777857D01*
X106532083Y-71777857D02*
X106436845Y-72111190D01*
X106341607Y-71873095D01*
X106246369Y-72111190D01*
X106151130Y-71777857D01*
X106008273Y-71777857D02*
X105913035Y-72111190D01*
X105817797Y-71873095D01*
X105722559Y-72111190D01*
X105627321Y-71777857D01*
X105436845Y-72063571D02*
X105413035Y-72087380D01*
X105436845Y-72111190D01*
X105460654Y-72087380D01*
X105436845Y-72063571D01*
X105436845Y-72111190D01*
X105222559Y-72087380D02*
X105174940Y-72111190D01*
X105079702Y-72111190D01*
X105032083Y-72087380D01*
X105008273Y-72039761D01*
X105008273Y-72015952D01*
X105032083Y-71968333D01*
X105079702Y-71944523D01*
X105151130Y-71944523D01*
X105198750Y-71920714D01*
X105222559Y-71873095D01*
X105222559Y-71849285D01*
X105198750Y-71801666D01*
X105151130Y-71777857D01*
X105079702Y-71777857D01*
X105032083Y-71801666D01*
X104865416Y-71777857D02*
X104674940Y-71777857D01*
X104793988Y-71611190D02*
X104793988Y-72039761D01*
X104770178Y-72087380D01*
X104722559Y-72111190D01*
X104674940Y-72111190D01*
X104293988Y-71777857D02*
X104293988Y-72111190D01*
X104508273Y-71777857D02*
X104508273Y-72039761D01*
X104484464Y-72087380D01*
X104436845Y-72111190D01*
X104365416Y-72111190D01*
X104317797Y-72087380D01*
X104293988Y-72063571D01*
X103841607Y-72111190D02*
X103841607Y-71611190D01*
X103841607Y-72087380D02*
X103889226Y-72111190D01*
X103984464Y-72111190D01*
X104032083Y-72087380D01*
X104055892Y-72063571D01*
X104079702Y-72015952D01*
X104079702Y-71873095D01*
X104055892Y-71825476D01*
X104032083Y-71801666D01*
X103984464Y-71777857D01*
X103889226Y-71777857D01*
X103841607Y-71801666D01*
X103603511Y-72111190D02*
X103603511Y-71777857D01*
X103603511Y-71611190D02*
X103627321Y-71635000D01*
X103603511Y-71658809D01*
X103579702Y-71635000D01*
X103603511Y-71611190D01*
X103603511Y-71658809D01*
X103293988Y-72111190D02*
X103341607Y-72087380D01*
X103365416Y-72063571D01*
X103389226Y-72015952D01*
X103389226Y-71873095D01*
X103365416Y-71825476D01*
X103341607Y-71801666D01*
X103293988Y-71777857D01*
X103222559Y-71777857D01*
X103174940Y-71801666D01*
X103151130Y-71825476D01*
X103127321Y-71873095D01*
X103127321Y-72015952D01*
X103151130Y-72063571D01*
X103174940Y-72087380D01*
X103222559Y-72111190D01*
X103293988Y-72111190D01*
X102913035Y-71777857D02*
X102913035Y-72277857D01*
X102913035Y-71801666D02*
X102865416Y-71777857D01*
X102770178Y-71777857D01*
X102722559Y-71801666D01*
X102698750Y-71825476D01*
X102674940Y-71873095D01*
X102674940Y-72015952D01*
X102698750Y-72063571D01*
X102722559Y-72087380D01*
X102770178Y-72111190D01*
X102865416Y-72111190D01*
X102913035Y-72087380D01*
X102460654Y-72111190D02*
X102460654Y-71777857D01*
X102460654Y-71611190D02*
X102484464Y-71635000D01*
X102460654Y-71658809D01*
X102436845Y-71635000D01*
X102460654Y-71611190D01*
X102460654Y-71658809D01*
X102032083Y-72087380D02*
X102079702Y-72111190D01*
X102174940Y-72111190D01*
X102222559Y-72087380D01*
X102246369Y-72039761D01*
X102246369Y-71849285D01*
X102222559Y-71801666D01*
X102174940Y-71777857D01*
X102079702Y-71777857D01*
X102032083Y-71801666D01*
X102008273Y-71849285D01*
X102008273Y-71896904D01*
X102246369Y-71944523D01*
X101865416Y-71777857D02*
X101674940Y-71777857D01*
X101793988Y-71611190D02*
X101793988Y-72039761D01*
X101770178Y-72087380D01*
X101722559Y-72111190D01*
X101674940Y-72111190D01*
X101317797Y-72087380D02*
X101365416Y-72111190D01*
X101460654Y-72111190D01*
X101508273Y-72087380D01*
X101532083Y-72039761D01*
X101532083Y-71849285D01*
X101508273Y-71801666D01*
X101460654Y-71777857D01*
X101365416Y-71777857D01*
X101317797Y-71801666D01*
X101293988Y-71849285D01*
X101293988Y-71896904D01*
X101532083Y-71944523D01*
X101079702Y-72111190D02*
X101079702Y-71777857D01*
X101079702Y-71873095D02*
X101055892Y-71825476D01*
X101032083Y-71801666D01*
X100984464Y-71777857D01*
X100936845Y-71777857D01*
X100793988Y-72087380D02*
X100746369Y-72111190D01*
X100651130Y-72111190D01*
X100603511Y-72087380D01*
X100579702Y-72039761D01*
X100579702Y-72015952D01*
X100603511Y-71968333D01*
X100651130Y-71944523D01*
X100722559Y-71944523D01*
X100770178Y-71920714D01*
X100793988Y-71873095D01*
X100793988Y-71849285D01*
X100770178Y-71801666D01*
X100722559Y-71777857D01*
X100651130Y-71777857D01*
X100603511Y-71801666D01*
X100365416Y-72063571D02*
X100341607Y-72087380D01*
X100365416Y-72111190D01*
X100389226Y-72087380D01*
X100365416Y-72063571D01*
X100365416Y-72111190D01*
X100127321Y-71777857D02*
X100127321Y-72111190D01*
X100127321Y-71825476D02*
X100103511Y-71801666D01*
X100055892Y-71777857D01*
X99984464Y-71777857D01*
X99936845Y-71801666D01*
X99913035Y-71849285D01*
X99913035Y-72111190D01*
X99603511Y-72111190D02*
X99651130Y-72087380D01*
X99674940Y-72039761D01*
X99674940Y-71611190D01*
X115079702Y-73861190D02*
X115079702Y-73361190D01*
X114960654Y-73361190D01*
X114889226Y-73385000D01*
X114841607Y-73432619D01*
X114817797Y-73480238D01*
X114793988Y-73575476D01*
X114793988Y-73646904D01*
X114817797Y-73742142D01*
X114841607Y-73789761D01*
X114889226Y-73837380D01*
X114960654Y-73861190D01*
X115079702Y-73861190D01*
X114389226Y-73837380D02*
X114436845Y-73861190D01*
X114532083Y-73861190D01*
X114579702Y-73837380D01*
X114603511Y-73789761D01*
X114603511Y-73599285D01*
X114579702Y-73551666D01*
X114532083Y-73527857D01*
X114436845Y-73527857D01*
X114389226Y-73551666D01*
X114365416Y-73599285D01*
X114365416Y-73646904D01*
X114603511Y-73694523D01*
X114174940Y-73837380D02*
X114127321Y-73861190D01*
X114032083Y-73861190D01*
X113984464Y-73837380D01*
X113960654Y-73789761D01*
X113960654Y-73765952D01*
X113984464Y-73718333D01*
X114032083Y-73694523D01*
X114103511Y-73694523D01*
X114151130Y-73670714D01*
X114174940Y-73623095D01*
X114174940Y-73599285D01*
X114151130Y-73551666D01*
X114103511Y-73527857D01*
X114032083Y-73527857D01*
X113984464Y-73551666D01*
X113532083Y-73837380D02*
X113579702Y-73861190D01*
X113674940Y-73861190D01*
X113722559Y-73837380D01*
X113746369Y-73813571D01*
X113770178Y-73765952D01*
X113770178Y-73623095D01*
X113746369Y-73575476D01*
X113722559Y-73551666D01*
X113674940Y-73527857D01*
X113579702Y-73527857D01*
X113532083Y-73551666D01*
X113317797Y-73861190D02*
X113317797Y-73527857D01*
X113317797Y-73623095D02*
X113293988Y-73575476D01*
X113270178Y-73551666D01*
X113222559Y-73527857D01*
X113174940Y-73527857D01*
X113008273Y-73861190D02*
X113008273Y-73527857D01*
X113008273Y-73361190D02*
X113032083Y-73385000D01*
X113008273Y-73408809D01*
X112984464Y-73385000D01*
X113008273Y-73361190D01*
X113008273Y-73408809D01*
X112770178Y-73527857D02*
X112770178Y-74027857D01*
X112770178Y-73551666D02*
X112722559Y-73527857D01*
X112627321Y-73527857D01*
X112579702Y-73551666D01*
X112555892Y-73575476D01*
X112532083Y-73623095D01*
X112532083Y-73765952D01*
X112555892Y-73813571D01*
X112579702Y-73837380D01*
X112627321Y-73861190D01*
X112722559Y-73861190D01*
X112770178Y-73837380D01*
X112389226Y-73527857D02*
X112198750Y-73527857D01*
X112317797Y-73361190D02*
X112317797Y-73789761D01*
X112293988Y-73837380D01*
X112246369Y-73861190D01*
X112198750Y-73861190D01*
X112032083Y-73861190D02*
X112032083Y-73527857D01*
X112032083Y-73361190D02*
X112055892Y-73385000D01*
X112032083Y-73408809D01*
X112008273Y-73385000D01*
X112032083Y-73361190D01*
X112032083Y-73408809D01*
X111722559Y-73861190D02*
X111770178Y-73837380D01*
X111793988Y-73813571D01*
X111817797Y-73765952D01*
X111817797Y-73623095D01*
X111793988Y-73575476D01*
X111770178Y-73551666D01*
X111722559Y-73527857D01*
X111651130Y-73527857D01*
X111603511Y-73551666D01*
X111579702Y-73575476D01*
X111555892Y-73623095D01*
X111555892Y-73765952D01*
X111579702Y-73813571D01*
X111603511Y-73837380D01*
X111651130Y-73861190D01*
X111722559Y-73861190D01*
X111341607Y-73527857D02*
X111341607Y-73861190D01*
X111341607Y-73575476D02*
X111317797Y-73551666D01*
X111270178Y-73527857D01*
X111198750Y-73527857D01*
X111151130Y-73551666D01*
X111127321Y-73599285D01*
X111127321Y-73861190D01*
X110889226Y-73813571D02*
X110865416Y-73837380D01*
X110889226Y-73861190D01*
X110913035Y-73837380D01*
X110889226Y-73813571D01*
X110889226Y-73861190D01*
X110889226Y-73551666D02*
X110865416Y-73575476D01*
X110889226Y-73599285D01*
X110913035Y-73575476D01*
X110889226Y-73551666D01*
X110889226Y-73599285D01*
X110270178Y-73599285D02*
X110103511Y-73599285D01*
X110032083Y-73861190D02*
X110270178Y-73861190D01*
X110270178Y-73361190D01*
X110032083Y-73361190D01*
X109841607Y-73837380D02*
X109770178Y-73861190D01*
X109651130Y-73861190D01*
X109603511Y-73837380D01*
X109579702Y-73813571D01*
X109555892Y-73765952D01*
X109555892Y-73718333D01*
X109579702Y-73670714D01*
X109603511Y-73646904D01*
X109651130Y-73623095D01*
X109746369Y-73599285D01*
X109793988Y-73575476D01*
X109817797Y-73551666D01*
X109841607Y-73504047D01*
X109841607Y-73456428D01*
X109817797Y-73408809D01*
X109793988Y-73385000D01*
X109746369Y-73361190D01*
X109627321Y-73361190D01*
X109555892Y-73385000D01*
X109341607Y-73861190D02*
X109341607Y-73361190D01*
X109151130Y-73361190D01*
X109103511Y-73385000D01*
X109079702Y-73408809D01*
X109055892Y-73456428D01*
X109055892Y-73527857D01*
X109079702Y-73575476D01*
X109103511Y-73599285D01*
X109151130Y-73623095D01*
X109341607Y-73623095D01*
X108770178Y-73575476D02*
X108817797Y-73551666D01*
X108841607Y-73527857D01*
X108865416Y-73480238D01*
X108865416Y-73456428D01*
X108841607Y-73408809D01*
X108817797Y-73385000D01*
X108770178Y-73361190D01*
X108674940Y-73361190D01*
X108627321Y-73385000D01*
X108603511Y-73408809D01*
X108579702Y-73456428D01*
X108579702Y-73480238D01*
X108603511Y-73527857D01*
X108627321Y-73551666D01*
X108674940Y-73575476D01*
X108770178Y-73575476D01*
X108817797Y-73599285D01*
X108841607Y-73623095D01*
X108865416Y-73670714D01*
X108865416Y-73765952D01*
X108841607Y-73813571D01*
X108817797Y-73837380D01*
X108770178Y-73861190D01*
X108674940Y-73861190D01*
X108627321Y-73837380D01*
X108603511Y-73813571D01*
X108579702Y-73765952D01*
X108579702Y-73670714D01*
X108603511Y-73623095D01*
X108627321Y-73599285D01*
X108674940Y-73575476D01*
X108389226Y-73408809D02*
X108365416Y-73385000D01*
X108317797Y-73361190D01*
X108198750Y-73361190D01*
X108151130Y-73385000D01*
X108127321Y-73408809D01*
X108103511Y-73456428D01*
X108103511Y-73504047D01*
X108127321Y-73575476D01*
X108413035Y-73861190D01*
X108103511Y-73861190D01*
X107674940Y-73361190D02*
X107770178Y-73361190D01*
X107817797Y-73385000D01*
X107841607Y-73408809D01*
X107889226Y-73480238D01*
X107913035Y-73575476D01*
X107913035Y-73765952D01*
X107889226Y-73813571D01*
X107865416Y-73837380D01*
X107817797Y-73861190D01*
X107722559Y-73861190D01*
X107674940Y-73837380D01*
X107651130Y-73813571D01*
X107627321Y-73765952D01*
X107627321Y-73646904D01*
X107651130Y-73599285D01*
X107674940Y-73575476D01*
X107722559Y-73551666D01*
X107817797Y-73551666D01*
X107865416Y-73575476D01*
X107889226Y-73599285D01*
X107913035Y-73646904D01*
X107198750Y-73361190D02*
X107293988Y-73361190D01*
X107341607Y-73385000D01*
X107365416Y-73408809D01*
X107413035Y-73480238D01*
X107436845Y-73575476D01*
X107436845Y-73765952D01*
X107413035Y-73813571D01*
X107389226Y-73837380D01*
X107341607Y-73861190D01*
X107246369Y-73861190D01*
X107198750Y-73837380D01*
X107174940Y-73813571D01*
X107151130Y-73765952D01*
X107151130Y-73646904D01*
X107174940Y-73599285D01*
X107198750Y-73575476D01*
X107246369Y-73551666D01*
X107341607Y-73551666D01*
X107389226Y-73575476D01*
X107413035Y-73599285D01*
X107436845Y-73646904D01*
X106436845Y-73694523D02*
X106627321Y-73694523D01*
X105889226Y-73861190D02*
X105889226Y-73361190D01*
X105889226Y-73599285D02*
X105603511Y-73599285D01*
X105603511Y-73861190D02*
X105603511Y-73361190D01*
X105293988Y-73861190D02*
X105341607Y-73837380D01*
X105365416Y-73813571D01*
X105389226Y-73765952D01*
X105389226Y-73623095D01*
X105365416Y-73575476D01*
X105341607Y-73551666D01*
X105293988Y-73527857D01*
X105222559Y-73527857D01*
X105174940Y-73551666D01*
X105151130Y-73575476D01*
X105127321Y-73623095D01*
X105127321Y-73765952D01*
X105151130Y-73813571D01*
X105174940Y-73837380D01*
X105222559Y-73861190D01*
X105293988Y-73861190D01*
X104913035Y-73861190D02*
X104913035Y-73527857D01*
X104913035Y-73575476D02*
X104889226Y-73551666D01*
X104841607Y-73527857D01*
X104770178Y-73527857D01*
X104722559Y-73551666D01*
X104698750Y-73599285D01*
X104698750Y-73861190D01*
X104698750Y-73599285D02*
X104674940Y-73551666D01*
X104627321Y-73527857D01*
X104555892Y-73527857D01*
X104508273Y-73551666D01*
X104484464Y-73599285D01*
X104484464Y-73861190D01*
X104055892Y-73837380D02*
X104103511Y-73861190D01*
X104198750Y-73861190D01*
X104246369Y-73837380D01*
X104270178Y-73789761D01*
X104270178Y-73599285D01*
X104246369Y-73551666D01*
X104198750Y-73527857D01*
X104103511Y-73527857D01*
X104055892Y-73551666D01*
X104032083Y-73599285D01*
X104032083Y-73646904D01*
X104270178Y-73694523D01*
X103817797Y-73861190D02*
X103817797Y-73361190D01*
X103532083Y-73861190D02*
X103746369Y-73575476D01*
X103532083Y-73361190D02*
X103817797Y-73646904D01*
X103317797Y-73861190D02*
X103317797Y-73527857D01*
X103317797Y-73361190D02*
X103341607Y-73385000D01*
X103317797Y-73408809D01*
X103293988Y-73385000D01*
X103317797Y-73361190D01*
X103317797Y-73408809D01*
X103151130Y-73527857D02*
X102960654Y-73527857D01*
X103079702Y-73361190D02*
X103079702Y-73789761D01*
X103055892Y-73837380D01*
X103008273Y-73861190D01*
X102960654Y-73861190D01*
X102246369Y-73599285D02*
X102174940Y-73623095D01*
X102151130Y-73646904D01*
X102127321Y-73694523D01*
X102127321Y-73765952D01*
X102151130Y-73813571D01*
X102174940Y-73837380D01*
X102222559Y-73861190D01*
X102413035Y-73861190D01*
X102413035Y-73361190D01*
X102246369Y-73361190D01*
X102198750Y-73385000D01*
X102174940Y-73408809D01*
X102151130Y-73456428D01*
X102151130Y-73504047D01*
X102174940Y-73551666D01*
X102198750Y-73575476D01*
X102246369Y-73599285D01*
X102413035Y-73599285D01*
X101698750Y-73861190D02*
X101698750Y-73599285D01*
X101722559Y-73551666D01*
X101770178Y-73527857D01*
X101865416Y-73527857D01*
X101913035Y-73551666D01*
X101698750Y-73837380D02*
X101746369Y-73861190D01*
X101865416Y-73861190D01*
X101913035Y-73837380D01*
X101936845Y-73789761D01*
X101936845Y-73742142D01*
X101913035Y-73694523D01*
X101865416Y-73670714D01*
X101746369Y-73670714D01*
X101698750Y-73646904D01*
X101484464Y-73837380D02*
X101436845Y-73861190D01*
X101341607Y-73861190D01*
X101293988Y-73837380D01*
X101270178Y-73789761D01*
X101270178Y-73765952D01*
X101293988Y-73718333D01*
X101341607Y-73694523D01*
X101413035Y-73694523D01*
X101460654Y-73670714D01*
X101484464Y-73623095D01*
X101484464Y-73599285D01*
X101460654Y-73551666D01*
X101413035Y-73527857D01*
X101341607Y-73527857D01*
X101293988Y-73551666D01*
X100865416Y-73837380D02*
X100913035Y-73861190D01*
X101008273Y-73861190D01*
X101055892Y-73837380D01*
X101079702Y-73789761D01*
X101079702Y-73599285D01*
X101055892Y-73551666D01*
X101008273Y-73527857D01*
X100913035Y-73527857D01*
X100865416Y-73551666D01*
X100841607Y-73599285D01*
X100841607Y-73646904D01*
X101079702Y-73694523D01*
X100246369Y-73861190D02*
X100246369Y-73361190D01*
X100055892Y-73361190D01*
X100008273Y-73385000D01*
X99984464Y-73408809D01*
X99960654Y-73456428D01*
X99960654Y-73527857D01*
X99984464Y-73575476D01*
X100008273Y-73599285D01*
X100055892Y-73623095D01*
X100246369Y-73623095D01*
X99674940Y-73861190D02*
X99722559Y-73837380D01*
X99746369Y-73789761D01*
X99746369Y-73361190D01*
X99270178Y-73861190D02*
X99270178Y-73599285D01*
X99293988Y-73551666D01*
X99341607Y-73527857D01*
X99436845Y-73527857D01*
X99484464Y-73551666D01*
X99270178Y-73837380D02*
X99317797Y-73861190D01*
X99436845Y-73861190D01*
X99484464Y-73837380D01*
X99508273Y-73789761D01*
X99508273Y-73742142D01*
X99484464Y-73694523D01*
X99436845Y-73670714D01*
X99317797Y-73670714D01*
X99270178Y-73646904D01*
X99103511Y-73527857D02*
X98913035Y-73527857D01*
X99032083Y-73361190D02*
X99032083Y-73789761D01*
X99008273Y-73837380D01*
X98960654Y-73861190D01*
X98913035Y-73861190D01*
X98555892Y-73837380D02*
X98603511Y-73861190D01*
X98698750Y-73861190D01*
X98746369Y-73837380D01*
X98770178Y-73789761D01*
X98770178Y-73599285D01*
X98746369Y-73551666D01*
X98698750Y-73527857D01*
X98603511Y-73527857D01*
X98555892Y-73551666D01*
X98532083Y-73599285D01*
X98532083Y-73646904D01*
X98770178Y-73694523D01*
X115079702Y-75611190D02*
X115079702Y-75111190D01*
X114913035Y-75468333D01*
X114746369Y-75111190D01*
X114746369Y-75611190D01*
X114436845Y-75611190D02*
X114484464Y-75587380D01*
X114508273Y-75563571D01*
X114532083Y-75515952D01*
X114532083Y-75373095D01*
X114508273Y-75325476D01*
X114484464Y-75301666D01*
X114436845Y-75277857D01*
X114365416Y-75277857D01*
X114317797Y-75301666D01*
X114293988Y-75325476D01*
X114270178Y-75373095D01*
X114270178Y-75515952D01*
X114293988Y-75563571D01*
X114317797Y-75587380D01*
X114365416Y-75611190D01*
X114436845Y-75611190D01*
X113841607Y-75611190D02*
X113841607Y-75111190D01*
X113841607Y-75587380D02*
X113889226Y-75611190D01*
X113984464Y-75611190D01*
X114032083Y-75587380D01*
X114055892Y-75563571D01*
X114079702Y-75515952D01*
X114079702Y-75373095D01*
X114055892Y-75325476D01*
X114032083Y-75301666D01*
X113984464Y-75277857D01*
X113889226Y-75277857D01*
X113841607Y-75301666D01*
X113413035Y-75587380D02*
X113460654Y-75611190D01*
X113555892Y-75611190D01*
X113603511Y-75587380D01*
X113627321Y-75539761D01*
X113627321Y-75349285D01*
X113603511Y-75301666D01*
X113555892Y-75277857D01*
X113460654Y-75277857D01*
X113413035Y-75301666D01*
X113389226Y-75349285D01*
X113389226Y-75396904D01*
X113627321Y-75444523D01*
X113103511Y-75611190D02*
X113151130Y-75587380D01*
X113174940Y-75539761D01*
X113174940Y-75111190D01*
X112270178Y-75611190D02*
X112555892Y-75611190D01*
X112413035Y-75611190D02*
X112413035Y-75111190D01*
X112460654Y-75182619D01*
X112508273Y-75230238D01*
X112555892Y-75254047D01*
X112079702Y-75468333D02*
X111841607Y-75468333D01*
X112127321Y-75611190D02*
X111960654Y-75111190D01*
X111793988Y-75611190D01*
X111127321Y-75777857D02*
X111127321Y-75063571D01*
X110460654Y-75111190D02*
X110293988Y-75611190D01*
X110127321Y-75111190D01*
X109770178Y-75587380D02*
X109817797Y-75611190D01*
X109913035Y-75611190D01*
X109960654Y-75587380D01*
X109984464Y-75539761D01*
X109984464Y-75349285D01*
X109960654Y-75301666D01*
X109913035Y-75277857D01*
X109817797Y-75277857D01*
X109770178Y-75301666D01*
X109746369Y-75349285D01*
X109746369Y-75396904D01*
X109984464Y-75444523D01*
X109532083Y-75611190D02*
X109532083Y-75277857D01*
X109532083Y-75373095D02*
X109508273Y-75325476D01*
X109484464Y-75301666D01*
X109436845Y-75277857D01*
X109389226Y-75277857D01*
X109246369Y-75587380D02*
X109198750Y-75611190D01*
X109103511Y-75611190D01*
X109055892Y-75587380D01*
X109032083Y-75539761D01*
X109032083Y-75515952D01*
X109055892Y-75468333D01*
X109103511Y-75444523D01*
X109174940Y-75444523D01*
X109222559Y-75420714D01*
X109246369Y-75373095D01*
X109246369Y-75349285D01*
X109222559Y-75301666D01*
X109174940Y-75277857D01*
X109103511Y-75277857D01*
X109055892Y-75301666D01*
X108817797Y-75611190D02*
X108817797Y-75277857D01*
X108817797Y-75111190D02*
X108841607Y-75135000D01*
X108817797Y-75158809D01*
X108793988Y-75135000D01*
X108817797Y-75111190D01*
X108817797Y-75158809D01*
X108508273Y-75611190D02*
X108555892Y-75587380D01*
X108579702Y-75563571D01*
X108603511Y-75515952D01*
X108603511Y-75373095D01*
X108579702Y-75325476D01*
X108555892Y-75301666D01*
X108508273Y-75277857D01*
X108436845Y-75277857D01*
X108389226Y-75301666D01*
X108365416Y-75325476D01*
X108341607Y-75373095D01*
X108341607Y-75515952D01*
X108365416Y-75563571D01*
X108389226Y-75587380D01*
X108436845Y-75611190D01*
X108508273Y-75611190D01*
X108127321Y-75277857D02*
X108127321Y-75611190D01*
X108127321Y-75325476D02*
X108103511Y-75301666D01*
X108055892Y-75277857D01*
X107984464Y-75277857D01*
X107936845Y-75301666D01*
X107913035Y-75349285D01*
X107913035Y-75611190D01*
X107674940Y-75563571D02*
X107651130Y-75587380D01*
X107674940Y-75611190D01*
X107698750Y-75587380D01*
X107674940Y-75563571D01*
X107674940Y-75611190D01*
X107674940Y-75301666D02*
X107651130Y-75325476D01*
X107674940Y-75349285D01*
X107698750Y-75325476D01*
X107674940Y-75301666D01*
X107674940Y-75349285D01*
X106817797Y-75111190D02*
X107055892Y-75111190D01*
X107079702Y-75349285D01*
X107055892Y-75325476D01*
X107008273Y-75301666D01*
X106889226Y-75301666D01*
X106841607Y-75325476D01*
X106817797Y-75349285D01*
X106793988Y-75396904D01*
X106793988Y-75515952D01*
X106817797Y-75563571D01*
X106841607Y-75587380D01*
X106889226Y-75611190D01*
X107008273Y-75611190D01*
X107055892Y-75587380D01*
X107079702Y-75563571D01*
X106579702Y-75563571D02*
X106555892Y-75587380D01*
X106579702Y-75611190D01*
X106603511Y-75587380D01*
X106579702Y-75563571D01*
X106579702Y-75611190D01*
X106246369Y-75111190D02*
X106198750Y-75111190D01*
X106151130Y-75135000D01*
X106127321Y-75158809D01*
X106103511Y-75206428D01*
X106079702Y-75301666D01*
X106079702Y-75420714D01*
X106103511Y-75515952D01*
X106127321Y-75563571D01*
X106151130Y-75587380D01*
X106198750Y-75611190D01*
X106246369Y-75611190D01*
X106293988Y-75587380D01*
X106317797Y-75563571D01*
X106341607Y-75515952D01*
X106365416Y-75420714D01*
X106365416Y-75301666D01*
X106341607Y-75206428D01*
X106317797Y-75158809D01*
X106293988Y-75135000D01*
X106246369Y-75111190D01*
X105865416Y-75563571D02*
X105841607Y-75587380D01*
X105865416Y-75611190D01*
X105889226Y-75587380D01*
X105865416Y-75563571D01*
X105865416Y-75611190D01*
X105365416Y-75611190D02*
X105651130Y-75611190D01*
X105508273Y-75611190D02*
X105508273Y-75111190D01*
X105555892Y-75182619D01*
X105603511Y-75230238D01*
X105651130Y-75254047D01*
D12*
X69900000Y-113900000D02*
X69320000Y-111660000D01*
X69840000Y-113900000D02*
X69420000Y-113470000D01*
X69910000Y-110660000D02*
X70220000Y-111910000D01*
X70220000Y-111990000D02*
X69320000Y-111660000D01*
X69890000Y-113910000D02*
X70130000Y-113330000D01*
X69890000Y-109580000D02*
X66930000Y-114614000D01*
X66930000Y-114614000D02*
X72899000Y-114614000D01*
X72899000Y-114614000D02*
X69880000Y-109590000D01*
D13*
G36*
X113608874Y-63071649D02*
G01*
X113269890Y-63120602D01*
X112948888Y-63215930D01*
X112635672Y-63360125D01*
X112530986Y-63419628D01*
X112427053Y-63486188D01*
X112320398Y-63562385D01*
X112221404Y-63639788D01*
X112140451Y-63709963D01*
X112087920Y-63764477D01*
X112073333Y-63791374D01*
X112090266Y-63820356D01*
X112136395Y-63883410D01*
X112204714Y-63971930D01*
X112288218Y-64077311D01*
X112379901Y-64190948D01*
X112472757Y-64304233D01*
X112559780Y-64408561D01*
X112633967Y-64495327D01*
X112688309Y-64555924D01*
X112715803Y-64581747D01*
X112717024Y-64582101D01*
X112749491Y-64567389D01*
X112812128Y-64529691D01*
X112863556Y-64495887D01*
X113093215Y-64360090D01*
X113327905Y-64257945D01*
X113560662Y-64190092D01*
X113784524Y-64157173D01*
X113992527Y-64159828D01*
X114177707Y-64198698D01*
X114333102Y-64274426D01*
X114422806Y-64352321D01*
X114510377Y-64483405D01*
X114543073Y-64617924D01*
X114521799Y-64750676D01*
X114447461Y-64876463D01*
X114320963Y-64990086D01*
X114310526Y-64997216D01*
X114245913Y-65033608D01*
X114138090Y-65086376D01*
X113996397Y-65151299D01*
X113830175Y-65224157D01*
X113648766Y-65300727D01*
X113542398Y-65344314D01*
X113351727Y-65422577D01*
X113166348Y-65500522D01*
X112996734Y-65573605D01*
X112853354Y-65637283D01*
X112746678Y-65687016D01*
X112709998Y-65705431D01*
X112468993Y-65862188D01*
X112265821Y-66057044D01*
X112104713Y-66284159D01*
X111989898Y-66537687D01*
X111929649Y-66783556D01*
X111908366Y-67093610D01*
X111939708Y-67388945D01*
X112020967Y-67665965D01*
X112149431Y-67921078D01*
X112322391Y-68150690D01*
X112537135Y-68351208D01*
X112790953Y-68519038D01*
X113081135Y-68650587D01*
X113404970Y-68742260D01*
X113407420Y-68742768D01*
X113584822Y-68768539D01*
X113799129Y-68782819D01*
X114032018Y-68785766D01*
X114265164Y-68777540D01*
X114480244Y-68758299D01*
X114641556Y-68732055D01*
X115035536Y-68619974D01*
X115409514Y-68457779D01*
X115755685Y-68249005D01*
X115833944Y-68192223D01*
X115946861Y-68099684D01*
X116010119Y-68029279D01*
X116024444Y-67991573D01*
X116007583Y-67957809D01*
X115961456Y-67889926D01*
X115892745Y-67796322D01*
X115808134Y-67685398D01*
X115714305Y-67565553D01*
X115617943Y-67445187D01*
X115525730Y-67332699D01*
X115444350Y-67236489D01*
X115380485Y-67164956D01*
X115340818Y-67126500D01*
X115332740Y-67122222D01*
X115305601Y-67138086D01*
X115246846Y-67179621D01*
X115171295Y-67236242D01*
X115038523Y-67326195D01*
X114873704Y-67420402D01*
X114695247Y-67509760D01*
X114521561Y-67585165D01*
X114371056Y-67637515D01*
X114346348Y-67644167D01*
X114154327Y-67677643D01*
X113954259Y-67686339D01*
X113759825Y-67671698D01*
X113584704Y-67635164D01*
X113442577Y-67578182D01*
X113388984Y-67543123D01*
X113292810Y-67433808D01*
X113236857Y-67297642D01*
X113224561Y-67150583D01*
X113259356Y-67008588D01*
X113269427Y-66987591D01*
X113303448Y-66933398D01*
X113350927Y-66881512D01*
X113417530Y-66828688D01*
X113508923Y-66771679D01*
X113630773Y-66707239D01*
X113788745Y-66632121D01*
X113988506Y-66543080D01*
X114216201Y-66445166D01*
X114473894Y-66334432D01*
X114685738Y-66240288D01*
X114858504Y-66158899D01*
X114998962Y-66086430D01*
X115113883Y-66019044D01*
X115210038Y-65952908D01*
X115294197Y-65884184D01*
X115373130Y-65809038D01*
X115413821Y-65766722D01*
X115577362Y-65570414D01*
X115694685Y-65375151D01*
X115773963Y-65166896D01*
X115783627Y-65131569D01*
X115809254Y-64987851D01*
X115822807Y-64813611D01*
X115824162Y-64629999D01*
X115813194Y-64458163D01*
X115789779Y-64319251D01*
X115788430Y-64314111D01*
X115690430Y-64054116D01*
X115543396Y-63811855D01*
X115353837Y-63595021D01*
X115128264Y-63411309D01*
X114923778Y-63292143D01*
X114740895Y-63208740D01*
X114574185Y-63148783D01*
X114405891Y-63108047D01*
X114218251Y-63082305D01*
X113993509Y-63067330D01*
X113976036Y-63066580D01*
X113608874Y-63071649D01*
X113608874Y-63071649D01*
G37*
X113608874Y-63071649D02*
X113269890Y-63120602D01*
X112948888Y-63215930D01*
X112635672Y-63360125D01*
X112530986Y-63419628D01*
X112427053Y-63486188D01*
X112320398Y-63562385D01*
X112221404Y-63639788D01*
X112140451Y-63709963D01*
X112087920Y-63764477D01*
X112073333Y-63791374D01*
X112090266Y-63820356D01*
X112136395Y-63883410D01*
X112204714Y-63971930D01*
X112288218Y-64077311D01*
X112379901Y-64190948D01*
X112472757Y-64304233D01*
X112559780Y-64408561D01*
X112633967Y-64495327D01*
X112688309Y-64555924D01*
X112715803Y-64581747D01*
X112717024Y-64582101D01*
X112749491Y-64567389D01*
X112812128Y-64529691D01*
X112863556Y-64495887D01*
X113093215Y-64360090D01*
X113327905Y-64257945D01*
X113560662Y-64190092D01*
X113784524Y-64157173D01*
X113992527Y-64159828D01*
X114177707Y-64198698D01*
X114333102Y-64274426D01*
X114422806Y-64352321D01*
X114510377Y-64483405D01*
X114543073Y-64617924D01*
X114521799Y-64750676D01*
X114447461Y-64876463D01*
X114320963Y-64990086D01*
X114310526Y-64997216D01*
X114245913Y-65033608D01*
X114138090Y-65086376D01*
X113996397Y-65151299D01*
X113830175Y-65224157D01*
X113648766Y-65300727D01*
X113542398Y-65344314D01*
X113351727Y-65422577D01*
X113166348Y-65500522D01*
X112996734Y-65573605D01*
X112853354Y-65637283D01*
X112746678Y-65687016D01*
X112709998Y-65705431D01*
X112468993Y-65862188D01*
X112265821Y-66057044D01*
X112104713Y-66284159D01*
X111989898Y-66537687D01*
X111929649Y-66783556D01*
X111908366Y-67093610D01*
X111939708Y-67388945D01*
X112020967Y-67665965D01*
X112149431Y-67921078D01*
X112322391Y-68150690D01*
X112537135Y-68351208D01*
X112790953Y-68519038D01*
X113081135Y-68650587D01*
X113404970Y-68742260D01*
X113407420Y-68742768D01*
X113584822Y-68768539D01*
X113799129Y-68782819D01*
X114032018Y-68785766D01*
X114265164Y-68777540D01*
X114480244Y-68758299D01*
X114641556Y-68732055D01*
X115035536Y-68619974D01*
X115409514Y-68457779D01*
X115755685Y-68249005D01*
X115833944Y-68192223D01*
X115946861Y-68099684D01*
X116010119Y-68029279D01*
X116024444Y-67991573D01*
X116007583Y-67957809D01*
X115961456Y-67889926D01*
X115892745Y-67796322D01*
X115808134Y-67685398D01*
X115714305Y-67565553D01*
X115617943Y-67445187D01*
X115525730Y-67332699D01*
X115444350Y-67236489D01*
X115380485Y-67164956D01*
X115340818Y-67126500D01*
X115332740Y-67122222D01*
X115305601Y-67138086D01*
X115246846Y-67179621D01*
X115171295Y-67236242D01*
X115038523Y-67326195D01*
X114873704Y-67420402D01*
X114695247Y-67509760D01*
X114521561Y-67585165D01*
X114371056Y-67637515D01*
X114346348Y-67644167D01*
X114154327Y-67677643D01*
X113954259Y-67686339D01*
X113759825Y-67671698D01*
X113584704Y-67635164D01*
X113442577Y-67578182D01*
X113388984Y-67543123D01*
X113292810Y-67433808D01*
X113236857Y-67297642D01*
X113224561Y-67150583D01*
X113259356Y-67008588D01*
X113269427Y-66987591D01*
X113303448Y-66933398D01*
X113350927Y-66881512D01*
X113417530Y-66828688D01*
X113508923Y-66771679D01*
X113630773Y-66707239D01*
X113788745Y-66632121D01*
X113988506Y-66543080D01*
X114216201Y-66445166D01*
X114473894Y-66334432D01*
X114685738Y-66240288D01*
X114858504Y-66158899D01*
X114998962Y-66086430D01*
X115113883Y-66019044D01*
X115210038Y-65952908D01*
X115294197Y-65884184D01*
X115373130Y-65809038D01*
X115413821Y-65766722D01*
X115577362Y-65570414D01*
X115694685Y-65375151D01*
X115773963Y-65166896D01*
X115783627Y-65131569D01*
X115809254Y-64987851D01*
X115822807Y-64813611D01*
X115824162Y-64629999D01*
X115813194Y-64458163D01*
X115789779Y-64319251D01*
X115788430Y-64314111D01*
X115690430Y-64054116D01*
X115543396Y-63811855D01*
X115353837Y-63595021D01*
X115128264Y-63411309D01*
X114923778Y-63292143D01*
X114740895Y-63208740D01*
X114574185Y-63148783D01*
X114405891Y-63108047D01*
X114218251Y-63082305D01*
X113993509Y-63067330D01*
X113976036Y-63066580D01*
X113608874Y-63071649D01*
G36*
X109900222Y-64469333D02*
G01*
X108884222Y-64469333D01*
X108884222Y-65485333D01*
X109904228Y-65485333D01*
X109894276Y-66437833D01*
X109891208Y-66708904D01*
X109887694Y-66929724D01*
X109882919Y-67106485D01*
X109876069Y-67245381D01*
X109866331Y-67352603D01*
X109852891Y-67434344D01*
X109834934Y-67496798D01*
X109811646Y-67546155D01*
X109782214Y-67588609D01*
X109745823Y-67630352D01*
X109736149Y-67640754D01*
X109606366Y-67741559D01*
X109452525Y-67791765D01*
X109274068Y-67791478D01*
X109121541Y-67757528D01*
X109039512Y-67733496D01*
X108981701Y-67718139D01*
X108966368Y-67715194D01*
X108952373Y-67741050D01*
X108931935Y-67811567D01*
X108907169Y-67915613D01*
X108880193Y-68042059D01*
X108853122Y-68179772D01*
X108828073Y-68317623D01*
X108807163Y-68444481D01*
X108792506Y-68549214D01*
X108786221Y-68620691D01*
X108789180Y-68647136D01*
X108827483Y-68665010D01*
X108907027Y-68689870D01*
X109013728Y-68717533D01*
X109069073Y-68730273D01*
X109237508Y-68758465D01*
X109433639Y-68776912D01*
X109641623Y-68785443D01*
X109845621Y-68783885D01*
X110029792Y-68772065D01*
X110178294Y-68749811D01*
X110207714Y-68742671D01*
X110452316Y-68650019D01*
X110662621Y-68512751D01*
X110838793Y-68330693D01*
X110980994Y-68103670D01*
X111089390Y-67831508D01*
X111103126Y-67785445D01*
X111116081Y-67732861D01*
X111126814Y-67670083D01*
X111135619Y-67591064D01*
X111142790Y-67489754D01*
X111148623Y-67360106D01*
X111153411Y-67196070D01*
X111157449Y-66991599D01*
X111161032Y-66740644D01*
X111163245Y-66550722D01*
X111174912Y-65485333D01*
X111734667Y-65485333D01*
X111734667Y-64531074D01*
X111600611Y-64515508D01*
X111497075Y-64504225D01*
X111370130Y-64491393D01*
X111281043Y-64482925D01*
X111095530Y-64465909D01*
X111031974Y-63952566D01*
X111010899Y-63785661D01*
X110991217Y-63635897D01*
X110974292Y-63513197D01*
X110961490Y-63427485D01*
X110954530Y-63389833D01*
X110945088Y-63372339D01*
X110922925Y-63359510D01*
X110880359Y-63350635D01*
X110809707Y-63345004D01*
X110703288Y-63341906D01*
X110553419Y-63340632D01*
X110420432Y-63340445D01*
X109900222Y-63340445D01*
X109900222Y-64469333D01*
X109900222Y-64469333D01*
G37*
X109900222Y-64469333D02*
X108884222Y-64469333D01*
X108884222Y-65485333D01*
X109904228Y-65485333D01*
X109894276Y-66437833D01*
X109891208Y-66708904D01*
X109887694Y-66929724D01*
X109882919Y-67106485D01*
X109876069Y-67245381D01*
X109866331Y-67352603D01*
X109852891Y-67434344D01*
X109834934Y-67496798D01*
X109811646Y-67546155D01*
X109782214Y-67588609D01*
X109745823Y-67630352D01*
X109736149Y-67640754D01*
X109606366Y-67741559D01*
X109452525Y-67791765D01*
X109274068Y-67791478D01*
X109121541Y-67757528D01*
X109039512Y-67733496D01*
X108981701Y-67718139D01*
X108966368Y-67715194D01*
X108952373Y-67741050D01*
X108931935Y-67811567D01*
X108907169Y-67915613D01*
X108880193Y-68042059D01*
X108853122Y-68179772D01*
X108828073Y-68317623D01*
X108807163Y-68444481D01*
X108792506Y-68549214D01*
X108786221Y-68620691D01*
X108789180Y-68647136D01*
X108827483Y-68665010D01*
X108907027Y-68689870D01*
X109013728Y-68717533D01*
X109069073Y-68730273D01*
X109237508Y-68758465D01*
X109433639Y-68776912D01*
X109641623Y-68785443D01*
X109845621Y-68783885D01*
X110029792Y-68772065D01*
X110178294Y-68749811D01*
X110207714Y-68742671D01*
X110452316Y-68650019D01*
X110662621Y-68512751D01*
X110838793Y-68330693D01*
X110980994Y-68103670D01*
X111089390Y-67831508D01*
X111103126Y-67785445D01*
X111116081Y-67732861D01*
X111126814Y-67670083D01*
X111135619Y-67591064D01*
X111142790Y-67489754D01*
X111148623Y-67360106D01*
X111153411Y-67196070D01*
X111157449Y-66991599D01*
X111161032Y-66740644D01*
X111163245Y-66550722D01*
X111174912Y-65485333D01*
X111734667Y-65485333D01*
X111734667Y-64531074D01*
X111600611Y-64515508D01*
X111497075Y-64504225D01*
X111370130Y-64491393D01*
X111281043Y-64482925D01*
X111095530Y-64465909D01*
X111031974Y-63952566D01*
X111010899Y-63785661D01*
X110991217Y-63635897D01*
X110974292Y-63513197D01*
X110961490Y-63427485D01*
X110954530Y-63389833D01*
X110945088Y-63372339D01*
X110922925Y-63359510D01*
X110880359Y-63350635D01*
X110809707Y-63345004D01*
X110703288Y-63341906D01*
X110553419Y-63340632D01*
X110420432Y-63340445D01*
X109900222Y-63340445D01*
X109900222Y-64469333D01*
G36*
X106838111Y-67333889D02*
G01*
X106770430Y-67471381D01*
X106683358Y-67595408D01*
X106565320Y-67674123D01*
X106413885Y-67708700D01*
X106282891Y-67706931D01*
X106105890Y-67668712D01*
X105943715Y-67584905D01*
X105788218Y-67450874D01*
X105739800Y-67398064D01*
X105610444Y-67250192D01*
X105610444Y-64469333D01*
X104340444Y-64469333D01*
X104340444Y-68702667D01*
X104859536Y-68702667D01*
X105053785Y-68701717D01*
X105197710Y-68698590D01*
X105297404Y-68692871D01*
X105358959Y-68684143D01*
X105388469Y-68671991D01*
X105392585Y-68666295D01*
X105402535Y-68623345D01*
X105417289Y-68539396D01*
X105434299Y-68429413D01*
X105441788Y-68377017D01*
X105477035Y-68124111D01*
X105679757Y-68322075D01*
X105914116Y-68519114D01*
X106160502Y-68663084D01*
X106370511Y-68742308D01*
X106519988Y-68771568D01*
X106703450Y-68785693D01*
X106900590Y-68784982D01*
X107091097Y-68769735D01*
X107254666Y-68740248D01*
X107295297Y-68728718D01*
X107514051Y-68631133D01*
X107700470Y-68487481D01*
X107854238Y-68298180D01*
X107975036Y-68063648D01*
X108062549Y-67784303D01*
X108082377Y-67691240D01*
X108091699Y-67630783D01*
X108099552Y-67551302D01*
X108106040Y-67448282D01*
X108111269Y-67317205D01*
X108115344Y-67153553D01*
X108118369Y-66952811D01*
X108120450Y-66710461D01*
X108121691Y-66421985D01*
X108122198Y-66082868D01*
X108122222Y-65976740D01*
X108122222Y-64469333D01*
X106854189Y-64469333D01*
X106838111Y-67333889D01*
X106838111Y-67333889D01*
G37*
X106838111Y-67333889D02*
X106770430Y-67471381D01*
X106683358Y-67595408D01*
X106565320Y-67674123D01*
X106413885Y-67708700D01*
X106282891Y-67706931D01*
X106105890Y-67668712D01*
X105943715Y-67584905D01*
X105788218Y-67450874D01*
X105739800Y-67398064D01*
X105610444Y-67250192D01*
X105610444Y-64469333D01*
X104340444Y-64469333D01*
X104340444Y-68702667D01*
X104859536Y-68702667D01*
X105053785Y-68701717D01*
X105197710Y-68698590D01*
X105297404Y-68692871D01*
X105358959Y-68684143D01*
X105388469Y-68671991D01*
X105392585Y-68666295D01*
X105402535Y-68623345D01*
X105417289Y-68539396D01*
X105434299Y-68429413D01*
X105441788Y-68377017D01*
X105477035Y-68124111D01*
X105679757Y-68322075D01*
X105914116Y-68519114D01*
X106160502Y-68663084D01*
X106370511Y-68742308D01*
X106519988Y-68771568D01*
X106703450Y-68785693D01*
X106900590Y-68784982D01*
X107091097Y-68769735D01*
X107254666Y-68740248D01*
X107295297Y-68728718D01*
X107514051Y-68631133D01*
X107700470Y-68487481D01*
X107854238Y-68298180D01*
X107975036Y-68063648D01*
X108062549Y-67784303D01*
X108082377Y-67691240D01*
X108091699Y-67630783D01*
X108099552Y-67551302D01*
X108106040Y-67448282D01*
X108111269Y-67317205D01*
X108115344Y-67153553D01*
X108118369Y-66952811D01*
X108120450Y-66710461D01*
X108121691Y-66421985D01*
X108122198Y-66082868D01*
X108122222Y-65976740D01*
X108122222Y-64469333D01*
X106854189Y-64469333D01*
X106838111Y-67333889D01*
G36*
X99514444Y-68702667D02*
G01*
X100553541Y-68702667D01*
X100588846Y-68505111D01*
X100607514Y-68408317D01*
X100623711Y-68337885D01*
X100634185Y-68307806D01*
X100634765Y-68307556D01*
X100660566Y-68323457D01*
X100719454Y-68365620D01*
X100799901Y-68425734D01*
X100820746Y-68441611D01*
X100938927Y-68523146D01*
X101078898Y-68607077D01*
X101207778Y-68673967D01*
X101301868Y-68716162D01*
X101378868Y-68744474D01*
X101454865Y-68761966D01*
X101545950Y-68771698D01*
X101668211Y-68776731D01*
X101758111Y-68778672D01*
X101966681Y-68777508D01*
X102130033Y-68765591D01*
X102232490Y-68746373D01*
X102492754Y-68643657D01*
X102734050Y-68492403D01*
X102948461Y-68299427D01*
X103128071Y-68071543D01*
X103234029Y-67884222D01*
X103314467Y-67706946D01*
X103375714Y-67545291D01*
X103420193Y-67386694D01*
X103450326Y-67218595D01*
X103468536Y-67028432D01*
X103477246Y-66803643D01*
X103478995Y-66614222D01*
X103478863Y-66551795D01*
X102191485Y-66551795D01*
X102187596Y-66725921D01*
X102155344Y-67014375D01*
X102091744Y-67256561D01*
X101996910Y-67452227D01*
X101870959Y-67601117D01*
X101748164Y-67686229D01*
X101631287Y-67725152D01*
X101484323Y-67741972D01*
X101329153Y-67736611D01*
X101187661Y-67708989D01*
X101132479Y-67688462D01*
X101043910Y-67636129D01*
X100947689Y-67561501D01*
X100899646Y-67516345D01*
X100784444Y-67397638D01*
X100784444Y-66536319D01*
X100784152Y-66289778D01*
X100784237Y-66093244D01*
X100786142Y-65940292D01*
X100791308Y-65824497D01*
X100801179Y-65739430D01*
X100817197Y-65678668D01*
X100840804Y-65635783D01*
X100873443Y-65604349D01*
X100916556Y-65577939D01*
X100971586Y-65550129D01*
X101010222Y-65530464D01*
X101106286Y-65486136D01*
X101199928Y-65452042D01*
X101230997Y-65443784D01*
X101438326Y-65422879D01*
X101624441Y-65452503D01*
X101787481Y-65530165D01*
X101925588Y-65653371D01*
X102036901Y-65819630D01*
X102119562Y-66026449D01*
X102171710Y-66271334D01*
X102191485Y-66551795D01*
X103478863Y-66551795D01*
X103478577Y-66416798D01*
X103476210Y-66264756D01*
X103470979Y-66147041D01*
X103461967Y-66052601D01*
X103448258Y-65970382D01*
X103428937Y-65889330D01*
X103414687Y-65838111D01*
X103293952Y-65501369D01*
X103137045Y-65202209D01*
X102946108Y-64943796D01*
X102723282Y-64729293D01*
X102605907Y-64643045D01*
X102379791Y-64512264D01*
X102156658Y-64428582D01*
X101918930Y-64386533D01*
X101756691Y-64378974D01*
X101475361Y-64398082D01*
X101226056Y-64460653D01*
X101002198Y-64568971D01*
X100821487Y-64703543D01*
X100719661Y-64792947D01*
X100738678Y-64694640D01*
X100743811Y-64642996D01*
X100749480Y-64542483D01*
X100755419Y-64400672D01*
X100761359Y-64225133D01*
X100767035Y-64023438D01*
X100772178Y-63803155D01*
X100774771Y-63672056D01*
X100791847Y-62747778D01*
X99514444Y-62747778D01*
X99514444Y-68702667D01*
X99514444Y-68702667D01*
G37*
X99514444Y-68702667D02*
X100553541Y-68702667D01*
X100588846Y-68505111D01*
X100607514Y-68408317D01*
X100623711Y-68337885D01*
X100634185Y-68307806D01*
X100634765Y-68307556D01*
X100660566Y-68323457D01*
X100719454Y-68365620D01*
X100799901Y-68425734D01*
X100820746Y-68441611D01*
X100938927Y-68523146D01*
X101078898Y-68607077D01*
X101207778Y-68673967D01*
X101301868Y-68716162D01*
X101378868Y-68744474D01*
X101454865Y-68761966D01*
X101545950Y-68771698D01*
X101668211Y-68776731D01*
X101758111Y-68778672D01*
X101966681Y-68777508D01*
X102130033Y-68765591D01*
X102232490Y-68746373D01*
X102492754Y-68643657D01*
X102734050Y-68492403D01*
X102948461Y-68299427D01*
X103128071Y-68071543D01*
X103234029Y-67884222D01*
X103314467Y-67706946D01*
X103375714Y-67545291D01*
X103420193Y-67386694D01*
X103450326Y-67218595D01*
X103468536Y-67028432D01*
X103477246Y-66803643D01*
X103478995Y-66614222D01*
X103478863Y-66551795D01*
X102191485Y-66551795D01*
X102187596Y-66725921D01*
X102155344Y-67014375D01*
X102091744Y-67256561D01*
X101996910Y-67452227D01*
X101870959Y-67601117D01*
X101748164Y-67686229D01*
X101631287Y-67725152D01*
X101484323Y-67741972D01*
X101329153Y-67736611D01*
X101187661Y-67708989D01*
X101132479Y-67688462D01*
X101043910Y-67636129D01*
X100947689Y-67561501D01*
X100899646Y-67516345D01*
X100784444Y-67397638D01*
X100784444Y-66536319D01*
X100784152Y-66289778D01*
X100784237Y-66093244D01*
X100786142Y-65940292D01*
X100791308Y-65824497D01*
X100801179Y-65739430D01*
X100817197Y-65678668D01*
X100840804Y-65635783D01*
X100873443Y-65604349D01*
X100916556Y-65577939D01*
X100971586Y-65550129D01*
X101010222Y-65530464D01*
X101106286Y-65486136D01*
X101199928Y-65452042D01*
X101230997Y-65443784D01*
X101438326Y-65422879D01*
X101624441Y-65452503D01*
X101787481Y-65530165D01*
X101925588Y-65653371D01*
X102036901Y-65819630D01*
X102119562Y-66026449D01*
X102171710Y-66271334D01*
X102191485Y-66551795D01*
X103478863Y-66551795D01*
X103478577Y-66416798D01*
X103476210Y-66264756D01*
X103470979Y-66147041D01*
X103461967Y-66052601D01*
X103448258Y-65970382D01*
X103428937Y-65889330D01*
X103414687Y-65838111D01*
X103293952Y-65501369D01*
X103137045Y-65202209D01*
X102946108Y-64943796D01*
X102723282Y-64729293D01*
X102605907Y-64643045D01*
X102379791Y-64512264D01*
X102156658Y-64428582D01*
X101918930Y-64386533D01*
X101756691Y-64378974D01*
X101475361Y-64398082D01*
X101226056Y-64460653D01*
X101002198Y-64568971D01*
X100821487Y-64703543D01*
X100719661Y-64792947D01*
X100738678Y-64694640D01*
X100743811Y-64642996D01*
X100749480Y-64542483D01*
X100755419Y-64400672D01*
X100761359Y-64225133D01*
X100767035Y-64023438D01*
X100772178Y-63803155D01*
X100774771Y-63672056D01*
X100791847Y-62747778D01*
X99514444Y-62747778D01*
X99514444Y-68702667D01*
G36*
X93933315Y-64406754D02*
G01*
X93610005Y-64483480D01*
X93312211Y-64608600D01*
X93042853Y-64779861D01*
X92804853Y-64995007D01*
X92601129Y-65251784D01*
X92434603Y-65547937D01*
X92308195Y-65881212D01*
X92300117Y-65908667D01*
X92279883Y-65989337D01*
X92265424Y-66076403D01*
X92255918Y-66180873D01*
X92250543Y-66313753D01*
X92248476Y-66486051D01*
X92248448Y-66600111D01*
X92249394Y-66784927D01*
X92252056Y-66925080D01*
X92257697Y-67032352D01*
X92267581Y-67118524D01*
X92282969Y-67195375D01*
X92305126Y-67274687D01*
X92328631Y-67348000D01*
X92463463Y-67677479D01*
X92637602Y-67969187D01*
X92848774Y-68220906D01*
X93094704Y-68430422D01*
X93373118Y-68595519D01*
X93681739Y-68713979D01*
X93750221Y-68732736D01*
X93949749Y-68768578D01*
X94180349Y-68785717D01*
X94420337Y-68784201D01*
X94648029Y-68764073D01*
X94823078Y-68730463D01*
X95129866Y-68621264D01*
X95414483Y-68461651D01*
X95670199Y-68255503D01*
X95703028Y-68223431D01*
X95917495Y-67978655D01*
X96084724Y-67718053D01*
X96206990Y-67435692D01*
X96286567Y-67125637D01*
X96325730Y-66781957D01*
X96330880Y-66586000D01*
X96324526Y-66462976D01*
X95020334Y-66462976D01*
X95017868Y-66782474D01*
X94981041Y-67059266D01*
X94910048Y-67292657D01*
X94805089Y-67481951D01*
X94696886Y-67601095D01*
X94545533Y-67706014D01*
X94385915Y-67757974D01*
X94209680Y-67758895D01*
X94101337Y-67738014D01*
X93958637Y-67675172D01*
X93825136Y-67565941D01*
X93710308Y-67420375D01*
X93623629Y-67248527D01*
X93613311Y-67220152D01*
X93586648Y-67137057D01*
X93567965Y-67059544D01*
X93555884Y-66974730D01*
X93549027Y-66869733D01*
X93546013Y-66731672D01*
X93545444Y-66586000D01*
X93546346Y-66411525D01*
X93549971Y-66280597D01*
X93557697Y-66180335D01*
X93570903Y-66097856D01*
X93590967Y-66020279D01*
X93613311Y-65951848D01*
X93700459Y-65765468D01*
X93818939Y-65611105D01*
X93961059Y-65496669D01*
X94119126Y-65430064D01*
X94121490Y-65429491D01*
X94308553Y-65407027D01*
X94476015Y-65436200D01*
X94629822Y-65518754D01*
X94731559Y-65608222D01*
X94839189Y-65739468D01*
X94918846Y-65888528D01*
X94973834Y-66065181D01*
X95007456Y-66279205D01*
X95020334Y-66462976D01*
X96324526Y-66462976D01*
X96312128Y-66222968D01*
X96254304Y-65896653D01*
X96155053Y-65600902D01*
X96012020Y-65329563D01*
X95822851Y-65076483D01*
X95704444Y-64949023D01*
X95455803Y-64735779D01*
X95182814Y-64572876D01*
X94884334Y-64459857D01*
X94559220Y-64396267D01*
X94279222Y-64380678D01*
X93933315Y-64406754D01*
X93933315Y-64406754D01*
G37*
X93933315Y-64406754D02*
X93610005Y-64483480D01*
X93312211Y-64608600D01*
X93042853Y-64779861D01*
X92804853Y-64995007D01*
X92601129Y-65251784D01*
X92434603Y-65547937D01*
X92308195Y-65881212D01*
X92300117Y-65908667D01*
X92279883Y-65989337D01*
X92265424Y-66076403D01*
X92255918Y-66180873D01*
X92250543Y-66313753D01*
X92248476Y-66486051D01*
X92248448Y-66600111D01*
X92249394Y-66784927D01*
X92252056Y-66925080D01*
X92257697Y-67032352D01*
X92267581Y-67118524D01*
X92282969Y-67195375D01*
X92305126Y-67274687D01*
X92328631Y-67348000D01*
X92463463Y-67677479D01*
X92637602Y-67969187D01*
X92848774Y-68220906D01*
X93094704Y-68430422D01*
X93373118Y-68595519D01*
X93681739Y-68713979D01*
X93750221Y-68732736D01*
X93949749Y-68768578D01*
X94180349Y-68785717D01*
X94420337Y-68784201D01*
X94648029Y-68764073D01*
X94823078Y-68730463D01*
X95129866Y-68621264D01*
X95414483Y-68461651D01*
X95670199Y-68255503D01*
X95703028Y-68223431D01*
X95917495Y-67978655D01*
X96084724Y-67718053D01*
X96206990Y-67435692D01*
X96286567Y-67125637D01*
X96325730Y-66781957D01*
X96330880Y-66586000D01*
X96324526Y-66462976D01*
X95020334Y-66462976D01*
X95017868Y-66782474D01*
X94981041Y-67059266D01*
X94910048Y-67292657D01*
X94805089Y-67481951D01*
X94696886Y-67601095D01*
X94545533Y-67706014D01*
X94385915Y-67757974D01*
X94209680Y-67758895D01*
X94101337Y-67738014D01*
X93958637Y-67675172D01*
X93825136Y-67565941D01*
X93710308Y-67420375D01*
X93623629Y-67248527D01*
X93613311Y-67220152D01*
X93586648Y-67137057D01*
X93567965Y-67059544D01*
X93555884Y-66974730D01*
X93549027Y-66869733D01*
X93546013Y-66731672D01*
X93545444Y-66586000D01*
X93546346Y-66411525D01*
X93549971Y-66280597D01*
X93557697Y-66180335D01*
X93570903Y-66097856D01*
X93590967Y-66020279D01*
X93613311Y-65951848D01*
X93700459Y-65765468D01*
X93818939Y-65611105D01*
X93961059Y-65496669D01*
X94119126Y-65430064D01*
X94121490Y-65429491D01*
X94308553Y-65407027D01*
X94476015Y-65436200D01*
X94629822Y-65518754D01*
X94731559Y-65608222D01*
X94839189Y-65739468D01*
X94918846Y-65888528D01*
X94973834Y-66065181D01*
X95007456Y-66279205D01*
X95020334Y-66462976D01*
X96324526Y-66462976D01*
X96312128Y-66222968D01*
X96254304Y-65896653D01*
X96155053Y-65600902D01*
X96012020Y-65329563D01*
X95822851Y-65076483D01*
X95704444Y-64949023D01*
X95455803Y-64735779D01*
X95182814Y-64572876D01*
X94884334Y-64459857D01*
X94559220Y-64396267D01*
X94279222Y-64380678D01*
X93933315Y-64406754D01*
G36*
X82976222Y-64512098D02*
G01*
X82682877Y-64563474D01*
X82419772Y-64661916D01*
X82188623Y-64806257D01*
X81991145Y-64995333D01*
X81829054Y-65227979D01*
X81777757Y-65326187D01*
X81700630Y-65504394D01*
X81645447Y-65678588D01*
X81609244Y-65863777D01*
X81589059Y-66074969D01*
X81581988Y-66317889D01*
X81579222Y-66713000D01*
X83039722Y-66720310D01*
X84500222Y-66727619D01*
X84500025Y-66847310D01*
X84493154Y-66932589D01*
X84475149Y-67049668D01*
X84449614Y-67175860D01*
X84444072Y-67199561D01*
X84347470Y-67498664D01*
X84211991Y-67761550D01*
X84041590Y-67985696D01*
X83840220Y-68168575D01*
X83611833Y-68307661D01*
X83360383Y-68400431D01*
X83089823Y-68444357D01*
X82804107Y-68436915D01*
X82574221Y-68394069D01*
X82354635Y-68323734D01*
X82145769Y-68230704D01*
X81979764Y-68131524D01*
X81925047Y-68096862D01*
X81894464Y-68084956D01*
X81893064Y-68085755D01*
X81860614Y-68136862D01*
X81819140Y-68210819D01*
X81778030Y-68289639D01*
X81746670Y-68355334D01*
X81734444Y-68389691D01*
X81759015Y-68416550D01*
X81825508Y-68458458D01*
X81923092Y-68510383D01*
X82040937Y-68567294D01*
X82168214Y-68624159D01*
X82294093Y-68675946D01*
X82407743Y-68717624D01*
X82496444Y-68743724D01*
X82633338Y-68765958D01*
X82804806Y-68779585D01*
X82993510Y-68784621D01*
X83182110Y-68781080D01*
X83353268Y-68768977D01*
X83489644Y-68748327D01*
X83512444Y-68742853D01*
X83792617Y-68641172D01*
X84055694Y-68491054D01*
X84292843Y-68299722D01*
X84495236Y-68074402D01*
X84654040Y-67822318D01*
X84665409Y-67799556D01*
X84793213Y-67481612D01*
X84876352Y-67147726D01*
X84915739Y-66805332D01*
X84912288Y-66461867D01*
X84893517Y-66322403D01*
X84500222Y-66322403D01*
X84500222Y-66388445D01*
X81960222Y-66388445D01*
X81960222Y-66209515D01*
X81974464Y-66031478D01*
X82013237Y-65830388D01*
X82070607Y-65630709D01*
X82140643Y-65456908D01*
X82144681Y-65448715D01*
X82273386Y-65250569D01*
X82439353Y-65090193D01*
X82635529Y-64970396D01*
X82854862Y-64893988D01*
X83090298Y-64863779D01*
X83334783Y-64882580D01*
X83478597Y-64917244D01*
X83711652Y-65017056D01*
X83925044Y-65167096D01*
X84114193Y-65363196D01*
X84274520Y-65601194D01*
X84315514Y-65678540D01*
X84360715Y-65783755D01*
X84406673Y-65915255D01*
X84448309Y-66055338D01*
X84480545Y-66186299D01*
X84498303Y-66290438D01*
X84500222Y-66322403D01*
X84893517Y-66322403D01*
X84866914Y-66124763D01*
X84780530Y-65801457D01*
X84654050Y-65499382D01*
X84488389Y-65225974D01*
X84324825Y-65029294D01*
X84091601Y-64824787D01*
X83833861Y-64669065D01*
X83556499Y-64564006D01*
X83264408Y-64511485D01*
X82976222Y-64512098D01*
X82976222Y-64512098D01*
G37*
X82976222Y-64512098D02*
X82682877Y-64563474D01*
X82419772Y-64661916D01*
X82188623Y-64806257D01*
X81991145Y-64995333D01*
X81829054Y-65227979D01*
X81777757Y-65326187D01*
X81700630Y-65504394D01*
X81645447Y-65678588D01*
X81609244Y-65863777D01*
X81589059Y-66074969D01*
X81581988Y-66317889D01*
X81579222Y-66713000D01*
X83039722Y-66720310D01*
X84500222Y-66727619D01*
X84500025Y-66847310D01*
X84493154Y-66932589D01*
X84475149Y-67049668D01*
X84449614Y-67175860D01*
X84444072Y-67199561D01*
X84347470Y-67498664D01*
X84211991Y-67761550D01*
X84041590Y-67985696D01*
X83840220Y-68168575D01*
X83611833Y-68307661D01*
X83360383Y-68400431D01*
X83089823Y-68444357D01*
X82804107Y-68436915D01*
X82574221Y-68394069D01*
X82354635Y-68323734D01*
X82145769Y-68230704D01*
X81979764Y-68131524D01*
X81925047Y-68096862D01*
X81894464Y-68084956D01*
X81893064Y-68085755D01*
X81860614Y-68136862D01*
X81819140Y-68210819D01*
X81778030Y-68289639D01*
X81746670Y-68355334D01*
X81734444Y-68389691D01*
X81759015Y-68416550D01*
X81825508Y-68458458D01*
X81923092Y-68510383D01*
X82040937Y-68567294D01*
X82168214Y-68624159D01*
X82294093Y-68675946D01*
X82407743Y-68717624D01*
X82496444Y-68743724D01*
X82633338Y-68765958D01*
X82804806Y-68779585D01*
X82993510Y-68784621D01*
X83182110Y-68781080D01*
X83353268Y-68768977D01*
X83489644Y-68748327D01*
X83512444Y-68742853D01*
X83792617Y-68641172D01*
X84055694Y-68491054D01*
X84292843Y-68299722D01*
X84495236Y-68074402D01*
X84654040Y-67822318D01*
X84665409Y-67799556D01*
X84793213Y-67481612D01*
X84876352Y-67147726D01*
X84915739Y-66805332D01*
X84912288Y-66461867D01*
X84893517Y-66322403D01*
X84500222Y-66322403D01*
X84500222Y-66388445D01*
X81960222Y-66388445D01*
X81960222Y-66209515D01*
X81974464Y-66031478D01*
X82013237Y-65830388D01*
X82070607Y-65630709D01*
X82140643Y-65456908D01*
X82144681Y-65448715D01*
X82273386Y-65250569D01*
X82439353Y-65090193D01*
X82635529Y-64970396D01*
X82854862Y-64893988D01*
X83090298Y-64863779D01*
X83334783Y-64882580D01*
X83478597Y-64917244D01*
X83711652Y-65017056D01*
X83925044Y-65167096D01*
X84114193Y-65363196D01*
X84274520Y-65601194D01*
X84315514Y-65678540D01*
X84360715Y-65783755D01*
X84406673Y-65915255D01*
X84448309Y-66055338D01*
X84480545Y-66186299D01*
X84498303Y-66290438D01*
X84500222Y-66322403D01*
X84893517Y-66322403D01*
X84866914Y-66124763D01*
X84780530Y-65801457D01*
X84654050Y-65499382D01*
X84488389Y-65225974D01*
X84324825Y-65029294D01*
X84091601Y-64824787D01*
X83833861Y-64669065D01*
X83556499Y-64564006D01*
X83264408Y-64511485D01*
X82976222Y-64512098D01*
G36*
X80069333Y-64610445D02*
G01*
X78884000Y-64610445D01*
X78884000Y-64949111D01*
X80069333Y-64949111D01*
X80069333Y-66397433D01*
X80069135Y-66742864D01*
X80068281Y-67036715D01*
X80066381Y-67283851D01*
X80063047Y-67489139D01*
X80057889Y-67657441D01*
X80050518Y-67793622D01*
X80040546Y-67902548D01*
X80027583Y-67989083D01*
X80011239Y-68058092D01*
X79991126Y-68114440D01*
X79966855Y-68162990D01*
X79938036Y-68208608D01*
X79922693Y-68230583D01*
X79821498Y-68326595D01*
X79681841Y-68393018D01*
X79514320Y-68428182D01*
X79329530Y-68430416D01*
X79138069Y-68398047D01*
X79044980Y-68369031D01*
X78946957Y-68337284D01*
X78891003Y-68329636D01*
X78869062Y-68343907D01*
X78821828Y-68479435D01*
X78794543Y-68570444D01*
X78785298Y-68624454D01*
X78791731Y-68648582D01*
X78827702Y-68665365D01*
X78903372Y-68691408D01*
X79003838Y-68721670D01*
X79026911Y-68728150D01*
X79226450Y-68768593D01*
X79439072Y-68786304D01*
X79645941Y-68781156D01*
X79828220Y-68753022D01*
X79893914Y-68733976D01*
X80076219Y-68642395D01*
X80225653Y-68505565D01*
X80341407Y-68324693D01*
X80422673Y-68100987D01*
X80463190Y-67884963D01*
X80469532Y-67804521D01*
X80475345Y-67673948D01*
X80480514Y-67499556D01*
X80484921Y-67287656D01*
X80488449Y-67044560D01*
X80490980Y-66776579D01*
X80492398Y-66490025D01*
X80492667Y-66297463D01*
X80492667Y-64949111D01*
X81113556Y-64949111D01*
X81113556Y-64644235D01*
X80470084Y-64604029D01*
X80429032Y-63425111D01*
X80069333Y-63425111D01*
X80069333Y-64610445D01*
X80069333Y-64610445D01*
G37*
X80069333Y-64610445D02*
X78884000Y-64610445D01*
X78884000Y-64949111D01*
X80069333Y-64949111D01*
X80069333Y-66397433D01*
X80069135Y-66742864D01*
X80068281Y-67036715D01*
X80066381Y-67283851D01*
X80063047Y-67489139D01*
X80057889Y-67657441D01*
X80050518Y-67793622D01*
X80040546Y-67902548D01*
X80027583Y-67989083D01*
X80011239Y-68058092D01*
X79991126Y-68114440D01*
X79966855Y-68162990D01*
X79938036Y-68208608D01*
X79922693Y-68230583D01*
X79821498Y-68326595D01*
X79681841Y-68393018D01*
X79514320Y-68428182D01*
X79329530Y-68430416D01*
X79138069Y-68398047D01*
X79044980Y-68369031D01*
X78946957Y-68337284D01*
X78891003Y-68329636D01*
X78869062Y-68343907D01*
X78821828Y-68479435D01*
X78794543Y-68570444D01*
X78785298Y-68624454D01*
X78791731Y-68648582D01*
X78827702Y-68665365D01*
X78903372Y-68691408D01*
X79003838Y-68721670D01*
X79026911Y-68728150D01*
X79226450Y-68768593D01*
X79439072Y-68786304D01*
X79645941Y-68781156D01*
X79828220Y-68753022D01*
X79893914Y-68733976D01*
X80076219Y-68642395D01*
X80225653Y-68505565D01*
X80341407Y-68324693D01*
X80422673Y-68100987D01*
X80463190Y-67884963D01*
X80469532Y-67804521D01*
X80475345Y-67673948D01*
X80480514Y-67499556D01*
X80484921Y-67287656D01*
X80488449Y-67044560D01*
X80490980Y-66776579D01*
X80492398Y-66490025D01*
X80492667Y-66297463D01*
X80492667Y-64949111D01*
X81113556Y-64949111D01*
X81113556Y-64644235D01*
X80470084Y-64604029D01*
X80429032Y-63425111D01*
X80069333Y-63425111D01*
X80069333Y-64610445D01*
G36*
X76450977Y-64509559D02*
G01*
X76151877Y-64556784D01*
X75887846Y-64648163D01*
X75658370Y-64784031D01*
X75462938Y-64964723D01*
X75301037Y-65190575D01*
X75241730Y-65301394D01*
X75168884Y-65460329D01*
X75114813Y-65606385D01*
X75076376Y-65753999D01*
X75050434Y-65917609D01*
X75033847Y-66111654D01*
X75025265Y-66296722D01*
X75010000Y-66727111D01*
X77960461Y-66727111D01*
X77942159Y-66905756D01*
X77886477Y-67224114D01*
X77789329Y-67514000D01*
X77653713Y-67771704D01*
X77482629Y-67993519D01*
X77279075Y-68175734D01*
X77046050Y-68314642D01*
X76786554Y-68406533D01*
X76715999Y-68422095D01*
X76460886Y-68446065D01*
X76190142Y-68425802D01*
X75918936Y-68364376D01*
X75662434Y-68264856D01*
X75503841Y-68176792D01*
X75424390Y-68127265D01*
X75365559Y-68092893D01*
X75342039Y-68081778D01*
X75322893Y-68104718D01*
X75289590Y-68162077D01*
X75250826Y-68236665D01*
X75215300Y-68311291D01*
X75191709Y-68368764D01*
X75186889Y-68388427D01*
X75211462Y-68416664D01*
X75277910Y-68459732D01*
X75375329Y-68512452D01*
X75492814Y-68569649D01*
X75619461Y-68626148D01*
X75744366Y-68676770D01*
X75856623Y-68716341D01*
X75910403Y-68731873D01*
X76069224Y-68761299D01*
X76260316Y-68779555D01*
X76465574Y-68786452D01*
X76666888Y-68781801D01*
X76846153Y-68765414D01*
X76964889Y-68742853D01*
X77243819Y-68641431D01*
X77506029Y-68491334D01*
X77742730Y-68299770D01*
X77945128Y-68073949D01*
X78104432Y-67821081D01*
X78115220Y-67799556D01*
X78242091Y-67481562D01*
X78325642Y-67137101D01*
X78363972Y-66778047D01*
X78355182Y-66416277D01*
X78352245Y-66388445D01*
X77959076Y-66388445D01*
X76671760Y-66388445D01*
X76408296Y-66387996D01*
X76162977Y-66386711D01*
X75941397Y-66384682D01*
X75749150Y-66382001D01*
X75591828Y-66378760D01*
X75475024Y-66375051D01*
X75404332Y-66370966D01*
X75384676Y-66367278D01*
X75387806Y-66331327D01*
X75395960Y-66253552D01*
X75407625Y-66148195D01*
X75412844Y-66102314D01*
X75468136Y-65793016D01*
X75557732Y-65526497D01*
X75680793Y-65303651D01*
X75836480Y-65125372D01*
X76023954Y-64992554D01*
X76242375Y-64906089D01*
X76490904Y-64866870D01*
X76575790Y-64864445D01*
X76833563Y-64891448D01*
X77074105Y-64971521D01*
X77294971Y-65103262D01*
X77493714Y-65285267D01*
X77641825Y-65476045D01*
X77763115Y-65692830D01*
X77861745Y-65939441D01*
X77928137Y-66190794D01*
X77939020Y-66254389D01*
X77959076Y-66388445D01*
X78352245Y-66388445D01*
X78347761Y-66345971D01*
X78286737Y-65998376D01*
X78189814Y-65689902D01*
X78053885Y-65413731D01*
X77875846Y-65163043D01*
X77742556Y-65017026D01*
X77501719Y-64810478D01*
X77243290Y-64656152D01*
X76969680Y-64554992D01*
X76683299Y-64507948D01*
X76450977Y-64509559D01*
X76450977Y-64509559D01*
G37*
X76450977Y-64509559D02*
X76151877Y-64556784D01*
X75887846Y-64648163D01*
X75658370Y-64784031D01*
X75462938Y-64964723D01*
X75301037Y-65190575D01*
X75241730Y-65301394D01*
X75168884Y-65460329D01*
X75114813Y-65606385D01*
X75076376Y-65753999D01*
X75050434Y-65917609D01*
X75033847Y-66111654D01*
X75025265Y-66296722D01*
X75010000Y-66727111D01*
X77960461Y-66727111D01*
X77942159Y-66905756D01*
X77886477Y-67224114D01*
X77789329Y-67514000D01*
X77653713Y-67771704D01*
X77482629Y-67993519D01*
X77279075Y-68175734D01*
X77046050Y-68314642D01*
X76786554Y-68406533D01*
X76715999Y-68422095D01*
X76460886Y-68446065D01*
X76190142Y-68425802D01*
X75918936Y-68364376D01*
X75662434Y-68264856D01*
X75503841Y-68176792D01*
X75424390Y-68127265D01*
X75365559Y-68092893D01*
X75342039Y-68081778D01*
X75322893Y-68104718D01*
X75289590Y-68162077D01*
X75250826Y-68236665D01*
X75215300Y-68311291D01*
X75191709Y-68368764D01*
X75186889Y-68388427D01*
X75211462Y-68416664D01*
X75277910Y-68459732D01*
X75375329Y-68512452D01*
X75492814Y-68569649D01*
X75619461Y-68626148D01*
X75744366Y-68676770D01*
X75856623Y-68716341D01*
X75910403Y-68731873D01*
X76069224Y-68761299D01*
X76260316Y-68779555D01*
X76465574Y-68786452D01*
X76666888Y-68781801D01*
X76846153Y-68765414D01*
X76964889Y-68742853D01*
X77243819Y-68641431D01*
X77506029Y-68491334D01*
X77742730Y-68299770D01*
X77945128Y-68073949D01*
X78104432Y-67821081D01*
X78115220Y-67799556D01*
X78242091Y-67481562D01*
X78325642Y-67137101D01*
X78363972Y-66778047D01*
X78355182Y-66416277D01*
X78352245Y-66388445D01*
X77959076Y-66388445D01*
X76671760Y-66388445D01*
X76408296Y-66387996D01*
X76162977Y-66386711D01*
X75941397Y-66384682D01*
X75749150Y-66382001D01*
X75591828Y-66378760D01*
X75475024Y-66375051D01*
X75404332Y-66370966D01*
X75384676Y-66367278D01*
X75387806Y-66331327D01*
X75395960Y-66253552D01*
X75407625Y-66148195D01*
X75412844Y-66102314D01*
X75468136Y-65793016D01*
X75557732Y-65526497D01*
X75680793Y-65303651D01*
X75836480Y-65125372D01*
X76023954Y-64992554D01*
X76242375Y-64906089D01*
X76490904Y-64866870D01*
X76575790Y-64864445D01*
X76833563Y-64891448D01*
X77074105Y-64971521D01*
X77294971Y-65103262D01*
X77493714Y-65285267D01*
X77641825Y-65476045D01*
X77763115Y-65692830D01*
X77861745Y-65939441D01*
X77928137Y-66190794D01*
X77939020Y-66254389D01*
X77959076Y-66388445D01*
X78352245Y-66388445D01*
X78347761Y-66345971D01*
X78286737Y-65998376D01*
X78189814Y-65689902D01*
X78053885Y-65413731D01*
X77875846Y-65163043D01*
X77742556Y-65017026D01*
X77501719Y-64810478D01*
X77243290Y-64656152D01*
X76969680Y-64554992D01*
X76683299Y-64507948D01*
X76450977Y-64509559D01*
G36*
X70110081Y-64513875D02*
G01*
X69843879Y-64553324D01*
X69582855Y-64630975D01*
X69334417Y-64747750D01*
X69302556Y-64766377D01*
X69187355Y-64836455D01*
X69116013Y-64887425D01*
X69084191Y-64929558D01*
X69087549Y-64973125D01*
X69121750Y-65028395D01*
X69167296Y-65086551D01*
X69279961Y-65228051D01*
X69429909Y-65127070D01*
X69543622Y-65057924D01*
X69674272Y-64989020D01*
X69751651Y-64953394D01*
X69835935Y-64920632D01*
X69913999Y-64899279D01*
X70002067Y-64886925D01*
X70116363Y-64881157D01*
X70248000Y-64879627D01*
X70396855Y-64880597D01*
X70504530Y-64886081D01*
X70586239Y-64898210D01*
X70657198Y-64919114D01*
X70721786Y-64945988D01*
X70880142Y-65043176D01*
X71006120Y-65171785D01*
X71095569Y-65322123D01*
X71144341Y-65484502D01*
X71148286Y-65649231D01*
X71103256Y-65806619D01*
X71096329Y-65820741D01*
X71045330Y-65905956D01*
X70980744Y-65982633D01*
X70896278Y-66054612D01*
X70785637Y-66125728D01*
X70642528Y-66199821D01*
X70460657Y-66280726D01*
X70233730Y-66372283D01*
X70119542Y-66416337D01*
X69954245Y-66481282D01*
X69790159Y-66548946D01*
X69642235Y-66612949D01*
X69525420Y-66666911D01*
X69485878Y-66686799D01*
X69320443Y-66791822D01*
X69169445Y-66921426D01*
X69044677Y-67063398D01*
X68957929Y-67205522D01*
X68938472Y-67253804D01*
X68880573Y-67503151D01*
X68876093Y-67745206D01*
X68922044Y-67974698D01*
X69015438Y-68186354D01*
X69153286Y-68374906D01*
X69332599Y-68535082D01*
X69550389Y-68661611D01*
X69783506Y-68744120D01*
X69938737Y-68771354D01*
X70129860Y-68784993D01*
X70338053Y-68785313D01*
X70544494Y-68772594D01*
X70730362Y-68747111D01*
X70812444Y-68728957D01*
X70950281Y-68686712D01*
X71103359Y-68630395D01*
X71230538Y-68575818D01*
X71332779Y-68523386D01*
X71444354Y-68459863D01*
X71554423Y-68392263D01*
X71652143Y-68327602D01*
X71726672Y-68272894D01*
X71767170Y-68235155D01*
X71771420Y-68225855D01*
X71753899Y-68197456D01*
X71708636Y-68139801D01*
X71648494Y-68068923D01*
X71526150Y-67929069D01*
X71345686Y-68063520D01*
X71072508Y-68238784D01*
X70794917Y-68359297D01*
X70507593Y-68426745D01*
X70205217Y-68442813D01*
X70155517Y-68440752D01*
X70014537Y-68429419D01*
X69906003Y-68409359D01*
X69805998Y-68374856D01*
X69726720Y-68338293D01*
X69552869Y-68225995D01*
X69420402Y-68084731D01*
X69332199Y-67922044D01*
X69291140Y-67745477D01*
X69300103Y-67562572D01*
X69361547Y-67381719D01*
X69417332Y-67285980D01*
X69487209Y-67200060D01*
X69577364Y-67120070D01*
X69693983Y-67042125D01*
X69843252Y-66962335D01*
X70031355Y-66876814D01*
X70264479Y-66781674D01*
X70399436Y-66729443D01*
X70626829Y-66640179D01*
X70809571Y-66562257D01*
X70957069Y-66490779D01*
X71078729Y-66420848D01*
X71183958Y-66347564D01*
X71271897Y-66275129D01*
X71410324Y-66117353D01*
X71505630Y-65931240D01*
X71556863Y-65725974D01*
X71563070Y-65510741D01*
X71523300Y-65294723D01*
X71436599Y-65087105D01*
X71401240Y-65027745D01*
X71259518Y-64857359D01*
X71078532Y-64719640D01*
X70865687Y-64615509D01*
X70628393Y-64545889D01*
X70374055Y-64511704D01*
X70110081Y-64513875D01*
X70110081Y-64513875D01*
G37*
X70110081Y-64513875D02*
X69843879Y-64553324D01*
X69582855Y-64630975D01*
X69334417Y-64747750D01*
X69302556Y-64766377D01*
X69187355Y-64836455D01*
X69116013Y-64887425D01*
X69084191Y-64929558D01*
X69087549Y-64973125D01*
X69121750Y-65028395D01*
X69167296Y-65086551D01*
X69279961Y-65228051D01*
X69429909Y-65127070D01*
X69543622Y-65057924D01*
X69674272Y-64989020D01*
X69751651Y-64953394D01*
X69835935Y-64920632D01*
X69913999Y-64899279D01*
X70002067Y-64886925D01*
X70116363Y-64881157D01*
X70248000Y-64879627D01*
X70396855Y-64880597D01*
X70504530Y-64886081D01*
X70586239Y-64898210D01*
X70657198Y-64919114D01*
X70721786Y-64945988D01*
X70880142Y-65043176D01*
X71006120Y-65171785D01*
X71095569Y-65322123D01*
X71144341Y-65484502D01*
X71148286Y-65649231D01*
X71103256Y-65806619D01*
X71096329Y-65820741D01*
X71045330Y-65905956D01*
X70980744Y-65982633D01*
X70896278Y-66054612D01*
X70785637Y-66125728D01*
X70642528Y-66199821D01*
X70460657Y-66280726D01*
X70233730Y-66372283D01*
X70119542Y-66416337D01*
X69954245Y-66481282D01*
X69790159Y-66548946D01*
X69642235Y-66612949D01*
X69525420Y-66666911D01*
X69485878Y-66686799D01*
X69320443Y-66791822D01*
X69169445Y-66921426D01*
X69044677Y-67063398D01*
X68957929Y-67205522D01*
X68938472Y-67253804D01*
X68880573Y-67503151D01*
X68876093Y-67745206D01*
X68922044Y-67974698D01*
X69015438Y-68186354D01*
X69153286Y-68374906D01*
X69332599Y-68535082D01*
X69550389Y-68661611D01*
X69783506Y-68744120D01*
X69938737Y-68771354D01*
X70129860Y-68784993D01*
X70338053Y-68785313D01*
X70544494Y-68772594D01*
X70730362Y-68747111D01*
X70812444Y-68728957D01*
X70950281Y-68686712D01*
X71103359Y-68630395D01*
X71230538Y-68575818D01*
X71332779Y-68523386D01*
X71444354Y-68459863D01*
X71554423Y-68392263D01*
X71652143Y-68327602D01*
X71726672Y-68272894D01*
X71767170Y-68235155D01*
X71771420Y-68225855D01*
X71753899Y-68197456D01*
X71708636Y-68139801D01*
X71648494Y-68068923D01*
X71526150Y-67929069D01*
X71345686Y-68063520D01*
X71072508Y-68238784D01*
X70794917Y-68359297D01*
X70507593Y-68426745D01*
X70205217Y-68442813D01*
X70155517Y-68440752D01*
X70014537Y-68429419D01*
X69906003Y-68409359D01*
X69805998Y-68374856D01*
X69726720Y-68338293D01*
X69552869Y-68225995D01*
X69420402Y-68084731D01*
X69332199Y-67922044D01*
X69291140Y-67745477D01*
X69300103Y-67562572D01*
X69361547Y-67381719D01*
X69417332Y-67285980D01*
X69487209Y-67200060D01*
X69577364Y-67120070D01*
X69693983Y-67042125D01*
X69843252Y-66962335D01*
X70031355Y-66876814D01*
X70264479Y-66781674D01*
X70399436Y-66729443D01*
X70626829Y-66640179D01*
X70809571Y-66562257D01*
X70957069Y-66490779D01*
X71078729Y-66420848D01*
X71183958Y-66347564D01*
X71271897Y-66275129D01*
X71410324Y-66117353D01*
X71505630Y-65931240D01*
X71556863Y-65725974D01*
X71563070Y-65510741D01*
X71523300Y-65294723D01*
X71436599Y-65087105D01*
X71401240Y-65027745D01*
X71259518Y-64857359D01*
X71078532Y-64719640D01*
X70865687Y-64615509D01*
X70628393Y-64545889D01*
X70374055Y-64511704D01*
X70110081Y-64513875D01*
G36*
X97172000Y-68702667D02*
G01*
X98442000Y-68702667D01*
X98442000Y-64469333D01*
X97172000Y-64469333D01*
X97172000Y-68702667D01*
X97172000Y-68702667D01*
G37*
X97172000Y-68702667D02*
X98442000Y-68702667D01*
X98442000Y-64469333D01*
X97172000Y-64469333D01*
X97172000Y-68702667D01*
G36*
X90137611Y-63094171D02*
G01*
X89863519Y-63098269D01*
X89638805Y-63102582D01*
X89456402Y-63107509D01*
X89309243Y-63113446D01*
X89190263Y-63120793D01*
X89092394Y-63129946D01*
X89008570Y-63141303D01*
X88931725Y-63155261D01*
X88888778Y-63164435D01*
X88585483Y-63251319D01*
X88329302Y-63367184D01*
X88117736Y-63514094D01*
X87948288Y-63694112D01*
X87818458Y-63909302D01*
X87739895Y-64113168D01*
X87705290Y-64270288D01*
X87683465Y-64462540D01*
X87674938Y-64669962D01*
X87680226Y-64872590D01*
X87699847Y-65050460D01*
X87713822Y-65118445D01*
X87807998Y-65390823D01*
X87945675Y-65630540D01*
X88123933Y-65833898D01*
X88339855Y-65997196D01*
X88457239Y-66060851D01*
X88609316Y-66128537D01*
X88760411Y-66182987D01*
X88918925Y-66225478D01*
X89093259Y-66257285D01*
X89291812Y-66279684D01*
X89522985Y-66293952D01*
X89795179Y-66301364D01*
X90052944Y-66303219D01*
X90709111Y-66303778D01*
X90709111Y-68702667D01*
X91132444Y-68702667D01*
X91132444Y-65936889D01*
X90709111Y-65936889D01*
X90063697Y-65936889D01*
X89785440Y-65934879D01*
X89557044Y-65928642D01*
X89372060Y-65917866D01*
X89224042Y-65902238D01*
X89167641Y-65893517D01*
X88884736Y-65823645D01*
X88646259Y-65719220D01*
X88451435Y-65579490D01*
X88299491Y-65403707D01*
X88189651Y-65191121D01*
X88121142Y-64940982D01*
X88109991Y-64869606D01*
X88096564Y-64627318D01*
X88119612Y-64392329D01*
X88176178Y-64174641D01*
X88263304Y-63984252D01*
X88378033Y-63831164D01*
X88431572Y-63782141D01*
X88544002Y-63698648D01*
X88655297Y-63635380D01*
X88784375Y-63583286D01*
X88950156Y-63533317D01*
X88953923Y-63532292D01*
X89027245Y-63514031D01*
X89102976Y-63499550D01*
X89189393Y-63488244D01*
X89294771Y-63479510D01*
X89427386Y-63472744D01*
X89595516Y-63467342D01*
X89807436Y-63462701D01*
X89940056Y-63460348D01*
X90709111Y-63447406D01*
X90709111Y-65936889D01*
X91132444Y-65936889D01*
X91132444Y-63080555D01*
X90137611Y-63094171D01*
X90137611Y-63094171D01*
G37*
X90137611Y-63094171D02*
X89863519Y-63098269D01*
X89638805Y-63102582D01*
X89456402Y-63107509D01*
X89309243Y-63113446D01*
X89190263Y-63120793D01*
X89092394Y-63129946D01*
X89008570Y-63141303D01*
X88931725Y-63155261D01*
X88888778Y-63164435D01*
X88585483Y-63251319D01*
X88329302Y-63367184D01*
X88117736Y-63514094D01*
X87948288Y-63694112D01*
X87818458Y-63909302D01*
X87739895Y-64113168D01*
X87705290Y-64270288D01*
X87683465Y-64462540D01*
X87674938Y-64669962D01*
X87680226Y-64872590D01*
X87699847Y-65050460D01*
X87713822Y-65118445D01*
X87807998Y-65390823D01*
X87945675Y-65630540D01*
X88123933Y-65833898D01*
X88339855Y-65997196D01*
X88457239Y-66060851D01*
X88609316Y-66128537D01*
X88760411Y-66182987D01*
X88918925Y-66225478D01*
X89093259Y-66257285D01*
X89291812Y-66279684D01*
X89522985Y-66293952D01*
X89795179Y-66301364D01*
X90052944Y-66303219D01*
X90709111Y-66303778D01*
X90709111Y-68702667D01*
X91132444Y-68702667D01*
X91132444Y-65936889D01*
X90709111Y-65936889D01*
X90063697Y-65936889D01*
X89785440Y-65934879D01*
X89557044Y-65928642D01*
X89372060Y-65917866D01*
X89224042Y-65902238D01*
X89167641Y-65893517D01*
X88884736Y-65823645D01*
X88646259Y-65719220D01*
X88451435Y-65579490D01*
X88299491Y-65403707D01*
X88189651Y-65191121D01*
X88121142Y-64940982D01*
X88109991Y-64869606D01*
X88096564Y-64627318D01*
X88119612Y-64392329D01*
X88176178Y-64174641D01*
X88263304Y-63984252D01*
X88378033Y-63831164D01*
X88431572Y-63782141D01*
X88544002Y-63698648D01*
X88655297Y-63635380D01*
X88784375Y-63583286D01*
X88950156Y-63533317D01*
X88953923Y-63532292D01*
X89027245Y-63514031D01*
X89102976Y-63499550D01*
X89189393Y-63488244D01*
X89294771Y-63479510D01*
X89427386Y-63472744D01*
X89595516Y-63467342D01*
X89807436Y-63462701D01*
X89940056Y-63460348D01*
X90709111Y-63447406D01*
X90709111Y-65936889D01*
X91132444Y-65936889D01*
X91132444Y-63080555D01*
X90137611Y-63094171D01*
G36*
X86108889Y-68702667D02*
G01*
X86532222Y-68702667D01*
X86532222Y-64610445D01*
X86108889Y-64610445D01*
X86108889Y-68702667D01*
X86108889Y-68702667D01*
G37*
X86108889Y-68702667D02*
X86532222Y-68702667D01*
X86532222Y-64610445D01*
X86108889Y-64610445D01*
X86108889Y-68702667D01*
G36*
X72248543Y-64517731D02*
G01*
X72128106Y-64532449D01*
X72059285Y-64551221D01*
X72014315Y-64570736D01*
X71988193Y-64591023D01*
X71979714Y-64623981D01*
X71987671Y-64681513D01*
X72010860Y-64775519D01*
X72029408Y-64846087D01*
X72052144Y-64915275D01*
X72078702Y-64940957D01*
X72119567Y-64935994D01*
X72179699Y-64923853D01*
X72273982Y-64911146D01*
X72364667Y-64902164D01*
X72570998Y-64912789D01*
X72770389Y-64977866D01*
X72960567Y-65095594D01*
X73139260Y-65264175D01*
X73304199Y-65481809D01*
X73453110Y-65746697D01*
X73466846Y-65775323D01*
X73549956Y-65951000D01*
X73549978Y-67326833D01*
X73550000Y-68702667D01*
X73945111Y-68702667D01*
X73945111Y-64610445D01*
X73578222Y-64610445D01*
X73578222Y-64832283D01*
X73575837Y-64960181D01*
X73569573Y-65085354D01*
X73560763Y-65181452D01*
X73560394Y-65184194D01*
X73542566Y-65314266D01*
X73407658Y-65122164D01*
X73229087Y-64902621D01*
X73032841Y-64730704D01*
X72821974Y-64604224D01*
X72721776Y-64558280D01*
X72637281Y-64531010D01*
X72545951Y-64517586D01*
X72425250Y-64513177D01*
X72396042Y-64512954D01*
X72248543Y-64517731D01*
X72248543Y-64517731D01*
G37*
X72248543Y-64517731D02*
X72128106Y-64532449D01*
X72059285Y-64551221D01*
X72014315Y-64570736D01*
X71988193Y-64591023D01*
X71979714Y-64623981D01*
X71987671Y-64681513D01*
X72010860Y-64775519D01*
X72029408Y-64846087D01*
X72052144Y-64915275D01*
X72078702Y-64940957D01*
X72119567Y-64935994D01*
X72179699Y-64923853D01*
X72273982Y-64911146D01*
X72364667Y-64902164D01*
X72570998Y-64912789D01*
X72770389Y-64977866D01*
X72960567Y-65095594D01*
X73139260Y-65264175D01*
X73304199Y-65481809D01*
X73453110Y-65746697D01*
X73466846Y-65775323D01*
X73549956Y-65951000D01*
X73549978Y-67326833D01*
X73550000Y-68702667D01*
X73945111Y-68702667D01*
X73945111Y-64610445D01*
X73578222Y-64610445D01*
X73578222Y-64832283D01*
X73575837Y-64960181D01*
X73569573Y-65085354D01*
X73560763Y-65181452D01*
X73560394Y-65184194D01*
X73542566Y-65314266D01*
X73407658Y-65122164D01*
X73229087Y-64902621D01*
X73032841Y-64730704D01*
X72821974Y-64604224D01*
X72721776Y-64558280D01*
X72637281Y-64531010D01*
X72545951Y-64517586D01*
X72425250Y-64513177D01*
X72396042Y-64512954D01*
X72248543Y-64517731D01*
G36*
X67349721Y-62354251D02*
G01*
X67207896Y-62390340D01*
X67047732Y-62470960D01*
X66895640Y-62593300D01*
X66767160Y-62743131D01*
X66700477Y-62854949D01*
X66664093Y-62934514D01*
X66640907Y-63005420D01*
X66628011Y-63084487D01*
X66622498Y-63188536D01*
X66621444Y-63312222D01*
X66623095Y-63453606D01*
X66629910Y-63555611D01*
X66644681Y-63635253D01*
X66670200Y-63709548D01*
X66696272Y-63768163D01*
X66809573Y-63949843D01*
X66961584Y-64104471D01*
X67136889Y-64217130D01*
X67287060Y-64266692D01*
X67466207Y-64291882D01*
X67652038Y-64291942D01*
X67822262Y-64266117D01*
X67895493Y-64242890D01*
X68086146Y-64137698D01*
X68249320Y-63986619D01*
X68377929Y-63796396D01*
X68390436Y-63771802D01*
X68435427Y-63674991D01*
X68462709Y-63595238D01*
X68476548Y-63511767D01*
X68481212Y-63403802D01*
X68481420Y-63328788D01*
X68479400Y-63306733D01*
X68259310Y-63306733D01*
X68239492Y-63508956D01*
X68172883Y-63693978D01*
X68057973Y-63865187D01*
X67914554Y-63988324D01*
X67744308Y-64062307D01*
X67627897Y-64089856D01*
X67537754Y-64097833D01*
X67447100Y-64085951D01*
X67342767Y-64057988D01*
X67176216Y-63980647D01*
X67037446Y-63860912D01*
X66930880Y-63707776D01*
X66860945Y-63530231D01*
X66832063Y-63337270D01*
X66848660Y-63137884D01*
X66862251Y-63081440D01*
X66936536Y-62905809D01*
X67047559Y-62762376D01*
X67186655Y-62653574D01*
X67345159Y-62581834D01*
X67514406Y-62549590D01*
X67685730Y-62559272D01*
X67850466Y-62613314D01*
X67999948Y-62714147D01*
X68038166Y-62751387D01*
X68156912Y-62915808D01*
X68231205Y-63104970D01*
X68259310Y-63306733D01*
X68479400Y-63306733D01*
X68458187Y-63075138D01*
X68390309Y-62856003D01*
X68277805Y-62671409D01*
X68120688Y-62521382D01*
X67939996Y-62415401D01*
X67759630Y-62358585D01*
X67555998Y-62337966D01*
X67349721Y-62354251D01*
X67349721Y-62354251D01*
G37*
X67349721Y-62354251D02*
X67207896Y-62390340D01*
X67047732Y-62470960D01*
X66895640Y-62593300D01*
X66767160Y-62743131D01*
X66700477Y-62854949D01*
X66664093Y-62934514D01*
X66640907Y-63005420D01*
X66628011Y-63084487D01*
X66622498Y-63188536D01*
X66621444Y-63312222D01*
X66623095Y-63453606D01*
X66629910Y-63555611D01*
X66644681Y-63635253D01*
X66670200Y-63709548D01*
X66696272Y-63768163D01*
X66809573Y-63949843D01*
X66961584Y-64104471D01*
X67136889Y-64217130D01*
X67287060Y-64266692D01*
X67466207Y-64291882D01*
X67652038Y-64291942D01*
X67822262Y-64266117D01*
X67895493Y-64242890D01*
X68086146Y-64137698D01*
X68249320Y-63986619D01*
X68377929Y-63796396D01*
X68390436Y-63771802D01*
X68435427Y-63674991D01*
X68462709Y-63595238D01*
X68476548Y-63511767D01*
X68481212Y-63403802D01*
X68481420Y-63328788D01*
X68479400Y-63306733D01*
X68259310Y-63306733D01*
X68239492Y-63508956D01*
X68172883Y-63693978D01*
X68057973Y-63865187D01*
X67914554Y-63988324D01*
X67744308Y-64062307D01*
X67627897Y-64089856D01*
X67537754Y-64097833D01*
X67447100Y-64085951D01*
X67342767Y-64057988D01*
X67176216Y-63980647D01*
X67037446Y-63860912D01*
X66930880Y-63707776D01*
X66860945Y-63530231D01*
X66832063Y-63337270D01*
X66848660Y-63137884D01*
X66862251Y-63081440D01*
X66936536Y-62905809D01*
X67047559Y-62762376D01*
X67186655Y-62653574D01*
X67345159Y-62581834D01*
X67514406Y-62549590D01*
X67685730Y-62559272D01*
X67850466Y-62613314D01*
X67999948Y-62714147D01*
X68038166Y-62751387D01*
X68156912Y-62915808D01*
X68231205Y-63104970D01*
X68259310Y-63306733D01*
X68479400Y-63306733D01*
X68458187Y-63075138D01*
X68390309Y-62856003D01*
X68277805Y-62671409D01*
X68120688Y-62521382D01*
X67939996Y-62415401D01*
X67759630Y-62358585D01*
X67555998Y-62337966D01*
X67349721Y-62354251D01*
G36*
X97679949Y-62567902D02*
G01*
X97588097Y-62579132D01*
X97506380Y-62604528D01*
X97411729Y-62648975D01*
X97410834Y-62649432D01*
X97256332Y-62750873D01*
X97151296Y-62874861D01*
X97091843Y-63027870D01*
X97074060Y-63211231D01*
X97096464Y-63410298D01*
X97162653Y-63574036D01*
X97273828Y-63704165D01*
X97431194Y-63802406D01*
X97509097Y-63833780D01*
X97619880Y-63859056D01*
X97758544Y-63871914D01*
X97900116Y-63871586D01*
X98019620Y-63857306D01*
X98047072Y-63850298D01*
X98230025Y-63768945D01*
X98371657Y-63650666D01*
X98469179Y-63499161D01*
X98519803Y-63318136D01*
X98526667Y-63213445D01*
X98502315Y-63020357D01*
X98429844Y-62856467D01*
X98310127Y-62723187D01*
X98167009Y-62632643D01*
X98073960Y-62595374D01*
X97973761Y-62574656D01*
X97844757Y-62566499D01*
X97805005Y-62565952D01*
X97679949Y-62567902D01*
X97679949Y-62567902D01*
G37*
X97679949Y-62567902D02*
X97588097Y-62579132D01*
X97506380Y-62604528D01*
X97411729Y-62648975D01*
X97410834Y-62649432D01*
X97256332Y-62750873D01*
X97151296Y-62874861D01*
X97091843Y-63027870D01*
X97074060Y-63211231D01*
X97096464Y-63410298D01*
X97162653Y-63574036D01*
X97273828Y-63704165D01*
X97431194Y-63802406D01*
X97509097Y-63833780D01*
X97619880Y-63859056D01*
X97758544Y-63871914D01*
X97900116Y-63871586D01*
X98019620Y-63857306D01*
X98047072Y-63850298D01*
X98230025Y-63768945D01*
X98371657Y-63650666D01*
X98469179Y-63499161D01*
X98519803Y-63318136D01*
X98526667Y-63213445D01*
X98502315Y-63020357D01*
X98429844Y-62856467D01*
X98310127Y-62723187D01*
X98167009Y-62632643D01*
X98073960Y-62595374D01*
X97973761Y-62574656D01*
X97844757Y-62566499D01*
X97805005Y-62565952D01*
X97679949Y-62567902D01*
G36*
X86199324Y-62971627D02*
G01*
X86082477Y-63028632D01*
X86006197Y-63124798D01*
X85970666Y-63259853D01*
X85967883Y-63318833D01*
X85990019Y-63456095D01*
X86055180Y-63557255D01*
X86161134Y-63619903D01*
X86265787Y-63640149D01*
X86359901Y-63641320D01*
X86438059Y-63632538D01*
X86461667Y-63625498D01*
X86570165Y-63549242D01*
X86636531Y-63437524D01*
X86657163Y-63314263D01*
X86635319Y-63173252D01*
X86570520Y-63062569D01*
X86470719Y-62988165D01*
X86343872Y-62955993D01*
X86199324Y-62971627D01*
X86199324Y-62971627D01*
G37*
X86199324Y-62971627D02*
X86082477Y-63028632D01*
X86006197Y-63124798D01*
X85970666Y-63259853D01*
X85967883Y-63318833D01*
X85990019Y-63456095D01*
X86055180Y-63557255D01*
X86161134Y-63619903D01*
X86265787Y-63640149D01*
X86359901Y-63641320D01*
X86438059Y-63632538D01*
X86461667Y-63625498D01*
X86570165Y-63549242D01*
X86636531Y-63437524D01*
X86657163Y-63314263D01*
X86635319Y-63173252D01*
X86570520Y-63062569D01*
X86470719Y-62988165D01*
X86343872Y-62955993D01*
X86199324Y-62971627D01*
G36*
X67592610Y-62808781D02*
G01*
X67455342Y-62813623D01*
X67362479Y-62820039D01*
X67301993Y-62830827D01*
X67261859Y-62848790D01*
X67230049Y-62876729D01*
X67211610Y-62897518D01*
X67155269Y-63003033D01*
X67139992Y-63127469D01*
X67165558Y-63251254D01*
X67216572Y-63338222D01*
X67289588Y-63424997D01*
X67188350Y-63606029D01*
X67139173Y-63696067D01*
X67103178Y-63765976D01*
X67087329Y-63802162D01*
X67087111Y-63803641D01*
X67112350Y-63813546D01*
X67176180Y-63819474D01*
X67213705Y-63820222D01*
X67281819Y-63818315D01*
X67326345Y-63805107D01*
X67361347Y-63769369D01*
X67400887Y-63699873D01*
X67425778Y-63650889D01*
X67474894Y-63559218D01*
X67513032Y-63508017D01*
X67551574Y-63485929D01*
X67595517Y-63481556D01*
X67642159Y-63483803D01*
X67667333Y-63499416D01*
X67677661Y-63541697D01*
X67679762Y-63623950D01*
X67679778Y-63650889D01*
X67679778Y-63820222D01*
X67905556Y-63820222D01*
X67905556Y-63128778D01*
X67679778Y-63128778D01*
X67679778Y-63284000D01*
X67581000Y-63284000D01*
X67480493Y-63263669D01*
X67425778Y-63227556D01*
X67375361Y-63152323D01*
X67379791Y-63085637D01*
X67437686Y-63031113D01*
X67512242Y-63001262D01*
X67603404Y-62978416D01*
X67653565Y-62982459D01*
X67674937Y-63022684D01*
X67679733Y-63108386D01*
X67679778Y-63128778D01*
X67905556Y-63128778D01*
X67905556Y-62799228D01*
X67592610Y-62808781D01*
X67592610Y-62808781D01*
G37*
X67592610Y-62808781D02*
X67455342Y-62813623D01*
X67362479Y-62820039D01*
X67301993Y-62830827D01*
X67261859Y-62848790D01*
X67230049Y-62876729D01*
X67211610Y-62897518D01*
X67155269Y-63003033D01*
X67139992Y-63127469D01*
X67165558Y-63251254D01*
X67216572Y-63338222D01*
X67289588Y-63424997D01*
X67188350Y-63606029D01*
X67139173Y-63696067D01*
X67103178Y-63765976D01*
X67087329Y-63802162D01*
X67087111Y-63803641D01*
X67112350Y-63813546D01*
X67176180Y-63819474D01*
X67213705Y-63820222D01*
X67281819Y-63818315D01*
X67326345Y-63805107D01*
X67361347Y-63769369D01*
X67400887Y-63699873D01*
X67425778Y-63650889D01*
X67474894Y-63559218D01*
X67513032Y-63508017D01*
X67551574Y-63485929D01*
X67595517Y-63481556D01*
X67642159Y-63483803D01*
X67667333Y-63499416D01*
X67677661Y-63541697D01*
X67679762Y-63623950D01*
X67679778Y-63650889D01*
X67679778Y-63820222D01*
X67905556Y-63820222D01*
X67905556Y-63128778D01*
X67679778Y-63128778D01*
X67679778Y-63284000D01*
X67581000Y-63284000D01*
X67480493Y-63263669D01*
X67425778Y-63227556D01*
X67375361Y-63152323D01*
X67379791Y-63085637D01*
X67437686Y-63031113D01*
X67512242Y-63001262D01*
X67603404Y-62978416D01*
X67653565Y-62982459D01*
X67674937Y-63022684D01*
X67679733Y-63108386D01*
X67679778Y-63128778D01*
X67905556Y-63128778D01*
X67905556Y-62799228D01*
X67592610Y-62808781D01*
D14*
X82690000Y-91950000D02*
X85490000Y-91950000D01*
X89490000Y-91950000D02*
X92290000Y-91950000D01*
X89490000Y-114450000D02*
X92290000Y-114450000D01*
X92290000Y-114450000D02*
X92290000Y-91950000D01*
X82690000Y-114450000D02*
X82690000Y-91950000D01*
X82690000Y-114450000D02*
X85490000Y-114450000D01*
X93290000Y-115130000D02*
X112190000Y-115130000D01*
X93290000Y-115130000D02*
X93290000Y-109830000D01*
X112190000Y-109830000D02*
X112190000Y-115130000D01*
X112190000Y-109830000D02*
X93290000Y-109830000D01*
X75470000Y-106500000D02*
X75470000Y-98880000D01*
X60230000Y-106500000D02*
X60230000Y-98880000D01*
X75470000Y-105230000D02*
X60230000Y-105230000D01*
X75470000Y-98880000D02*
X60230000Y-98880000D01*
X75470000Y-106500000D02*
X60230000Y-106500000D01*
X60250000Y-90700000D02*
X75490000Y-90700000D01*
X60250000Y-98320000D02*
X75490000Y-98320000D01*
X60250000Y-91970000D02*
X75490000Y-91970000D01*
X75490000Y-90700000D02*
X75490000Y-98320000D01*
X60250000Y-90700000D02*
X60250000Y-98320000D01*
D15*
X81680000Y-79670000D02*
X81680000Y-104170000D01*
X81680000Y-104170000D02*
X76180000Y-104170000D01*
X76180000Y-104170000D02*
X76180000Y-79670000D01*
X76180000Y-79670000D02*
X81680000Y-79670000D01*
D16*
X80300000Y-104874000D02*
G75*
G03X80300000Y-104874000I-100000J0D01*
G01*
D17*
X81600000Y-105340000D02*
X81600000Y-114340000D01*
X78300000Y-105340000D02*
X78300000Y-114340000D01*
X78300000Y-114340000D02*
X81600000Y-114340000D01*
X78300000Y-105340000D02*
X81600000Y-105340000D01*
D15*
X127170000Y-89550000D02*
X127170000Y-109550000D01*
X93170000Y-109550000D02*
X93170000Y-89550000D01*
X93170000Y-89550000D02*
X127170000Y-89550000D01*
X127170000Y-109550000D02*
X93170000Y-109550000D01*
D10*
X74374761Y-115256190D02*
X74255714Y-115756190D01*
X74160476Y-115399047D01*
X74065238Y-115756190D01*
X73946190Y-115256190D01*
X73779523Y-115613333D02*
X73541428Y-115613333D01*
X73827142Y-115756190D02*
X73660476Y-115256190D01*
X73493809Y-115756190D01*
X73041428Y-115756190D02*
X73208095Y-115518095D01*
X73327142Y-115756190D02*
X73327142Y-115256190D01*
X73136666Y-115256190D01*
X73089047Y-115280000D01*
X73065238Y-115303809D01*
X73041428Y-115351428D01*
X73041428Y-115422857D01*
X73065238Y-115470476D01*
X73089047Y-115494285D01*
X73136666Y-115518095D01*
X73327142Y-115518095D01*
X72827142Y-115756190D02*
X72827142Y-115256190D01*
X72541428Y-115756190D01*
X72541428Y-115256190D01*
X72303333Y-115756190D02*
X72303333Y-115256190D01*
X72065238Y-115756190D02*
X72065238Y-115256190D01*
X71779523Y-115756190D01*
X71779523Y-115256190D01*
X71279523Y-115280000D02*
X71327142Y-115256190D01*
X71398571Y-115256190D01*
X71470000Y-115280000D01*
X71517619Y-115327619D01*
X71541428Y-115375238D01*
X71565238Y-115470476D01*
X71565238Y-115541904D01*
X71541428Y-115637142D01*
X71517619Y-115684761D01*
X71470000Y-115732380D01*
X71398571Y-115756190D01*
X71350952Y-115756190D01*
X71279523Y-115732380D01*
X71255714Y-115708571D01*
X71255714Y-115541904D01*
X71350952Y-115541904D01*
X70660476Y-115756190D02*
X70660476Y-115256190D01*
X70660476Y-115494285D02*
X70374761Y-115494285D01*
X70374761Y-115756190D02*
X70374761Y-115256190D01*
X70136666Y-115756190D02*
X70136666Y-115256190D01*
X69636666Y-115280000D02*
X69684285Y-115256190D01*
X69755714Y-115256190D01*
X69827142Y-115280000D01*
X69874761Y-115327619D01*
X69898571Y-115375238D01*
X69922380Y-115470476D01*
X69922380Y-115541904D01*
X69898571Y-115637142D01*
X69874761Y-115684761D01*
X69827142Y-115732380D01*
X69755714Y-115756190D01*
X69708095Y-115756190D01*
X69636666Y-115732380D01*
X69612857Y-115708571D01*
X69612857Y-115541904D01*
X69708095Y-115541904D01*
X69398571Y-115756190D02*
X69398571Y-115256190D01*
X69398571Y-115494285D02*
X69112857Y-115494285D01*
X69112857Y-115756190D02*
X69112857Y-115256190D01*
X68565238Y-115256190D02*
X68398571Y-115756190D01*
X68231904Y-115256190D01*
X67970000Y-115256190D02*
X67874761Y-115256190D01*
X67827142Y-115280000D01*
X67779523Y-115327619D01*
X67755714Y-115422857D01*
X67755714Y-115589523D01*
X67779523Y-115684761D01*
X67827142Y-115732380D01*
X67874761Y-115756190D01*
X67970000Y-115756190D01*
X68017619Y-115732380D01*
X68065238Y-115684761D01*
X68089047Y-115589523D01*
X68089047Y-115422857D01*
X68065238Y-115327619D01*
X68017619Y-115280000D01*
X67970000Y-115256190D01*
X67303333Y-115756190D02*
X67541428Y-115756190D01*
X67541428Y-115256190D01*
X67208095Y-115256190D02*
X66922380Y-115256190D01*
X67065238Y-115756190D02*
X67065238Y-115256190D01*
X66779523Y-115613333D02*
X66541428Y-115613333D01*
X66827142Y-115756190D02*
X66660476Y-115256190D01*
X66493809Y-115756190D01*
X66065238Y-115280000D02*
X66112857Y-115256190D01*
X66184285Y-115256190D01*
X66255714Y-115280000D01*
X66303333Y-115327619D01*
X66327142Y-115375238D01*
X66350952Y-115470476D01*
X66350952Y-115541904D01*
X66327142Y-115637142D01*
X66303333Y-115684761D01*
X66255714Y-115732380D01*
X66184285Y-115756190D01*
X66136666Y-115756190D01*
X66065238Y-115732380D01*
X66041428Y-115708571D01*
X66041428Y-115541904D01*
X66136666Y-115541904D01*
X65827142Y-115494285D02*
X65660476Y-115494285D01*
X65589047Y-115756190D02*
X65827142Y-115756190D01*
X65827142Y-115256190D01*
X65589047Y-115256190D01*
D17*
X87428571Y-108556666D02*
X87428571Y-108223333D01*
X87952380Y-108223333D02*
X86952380Y-108223333D01*
X86952380Y-108699523D01*
X87952380Y-109604285D02*
X87952380Y-109032857D01*
X87952380Y-109318571D02*
X86952380Y-109318571D01*
X87095238Y-109223333D01*
X87190476Y-109128095D01*
X87238095Y-109032857D01*
X103383333Y-112408571D02*
X103716666Y-112408571D01*
X103716666Y-112932380D02*
X103716666Y-111932380D01*
X103240476Y-111932380D01*
X102907142Y-112027619D02*
X102859523Y-111980000D01*
X102764285Y-111932380D01*
X102526190Y-111932380D01*
X102430952Y-111980000D01*
X102383333Y-112027619D01*
X102335714Y-112122857D01*
X102335714Y-112218095D01*
X102383333Y-112360952D01*
X102954761Y-112932380D01*
X102335714Y-112932380D01*
X73492857Y-108222380D02*
X73492857Y-107222380D01*
X73111904Y-107222380D01*
X73016666Y-107270000D01*
X72969047Y-107317619D01*
X72921428Y-107412857D01*
X72921428Y-107555714D01*
X72969047Y-107650952D01*
X73016666Y-107698571D01*
X73111904Y-107746190D01*
X73492857Y-107746190D01*
X72492857Y-107698571D02*
X72159523Y-107698571D01*
X72016666Y-108222380D02*
X72492857Y-108222380D01*
X72492857Y-107222380D01*
X72016666Y-107222380D01*
X69826190Y-108555714D02*
X69826190Y-107127142D01*
X67588095Y-108222380D02*
X67588095Y-107222380D01*
X67016666Y-108222380D01*
X67016666Y-107222380D01*
X64778571Y-108555714D02*
X64778571Y-107127142D01*
X62064285Y-108222380D02*
X62540476Y-108222380D01*
X62540476Y-107222380D01*
X73036666Y-89882380D02*
X73512857Y-89882380D01*
X73512857Y-88882380D01*
X70941428Y-90215714D02*
X70941428Y-88787142D01*
X68703333Y-89882380D02*
X68703333Y-88882380D01*
X68131904Y-89882380D01*
X68131904Y-88882380D01*
X65893809Y-90215714D02*
X65893809Y-88787142D01*
X63655714Y-89882380D02*
X63655714Y-88882380D01*
X63274761Y-88882380D01*
X63179523Y-88930000D01*
X63131904Y-88977619D01*
X63084285Y-89072857D01*
X63084285Y-89215714D01*
X63131904Y-89310952D01*
X63179523Y-89358571D01*
X63274761Y-89406190D01*
X63655714Y-89406190D01*
X62655714Y-89358571D02*
X62322380Y-89358571D01*
X62179523Y-89882380D02*
X62655714Y-89882380D01*
X62655714Y-88882380D01*
X62179523Y-88882380D01*
D18*
X83523937Y-101405449D02*
X82522507Y-101405449D01*
X83523937Y-101977695D02*
X82951692Y-101548510D01*
X82522507Y-101977695D02*
X83094753Y-101405449D01*
X83523937Y-102931437D02*
X83523937Y-102359192D01*
X83523937Y-102645315D02*
X82522507Y-102645315D01*
X82665569Y-102549940D01*
X82760943Y-102454566D01*
X82808630Y-102359192D01*
X78038470Y-89347408D02*
X77990705Y-89251879D01*
X77990705Y-89108584D01*
X78038470Y-88965290D01*
X78133999Y-88869760D01*
X78229529Y-88821996D01*
X78420588Y-88774231D01*
X78563882Y-88774231D01*
X78754941Y-88821996D01*
X78850470Y-88869760D01*
X78946000Y-88965290D01*
X78993765Y-89108584D01*
X78993765Y-89204114D01*
X78946000Y-89347408D01*
X78898235Y-89395173D01*
X78563882Y-89395173D01*
X78563882Y-89204114D01*
X77990705Y-89729526D02*
X77990705Y-90350468D01*
X78372823Y-90016115D01*
X78372823Y-90159409D01*
X78420588Y-90254939D01*
X78468352Y-90302703D01*
X78563882Y-90350468D01*
X78802706Y-90350468D01*
X78898235Y-90302703D01*
X78946000Y-90254939D01*
X78993765Y-90159409D01*
X78993765Y-89872820D01*
X78946000Y-89777291D01*
X78898235Y-89729526D01*
X78993765Y-90780351D02*
X77990705Y-90780351D01*
X78707176Y-91114704D01*
X77990705Y-91449058D01*
X78993765Y-91449058D01*
X78468352Y-92261059D02*
X78516117Y-92404353D01*
X78563882Y-92452118D01*
X78659411Y-92499882D01*
X78802706Y-92499882D01*
X78898235Y-92452118D01*
X78946000Y-92404353D01*
X78993765Y-92308823D01*
X78993765Y-91926705D01*
X77990705Y-91926705D01*
X77990705Y-92261059D01*
X78038470Y-92356588D01*
X78086234Y-92404353D01*
X78181764Y-92452118D01*
X78277293Y-92452118D01*
X78372823Y-92404353D01*
X78420588Y-92356588D01*
X78468352Y-92261059D01*
X78468352Y-91926705D01*
X78086234Y-92882000D02*
X78038470Y-92929765D01*
X77990705Y-93025295D01*
X77990705Y-93264119D01*
X78038470Y-93359648D01*
X78086234Y-93407413D01*
X78181764Y-93455178D01*
X78277293Y-93455178D01*
X78420588Y-93407413D01*
X78993765Y-92834236D01*
X78993765Y-93455178D01*
X77990705Y-94076119D02*
X77990705Y-94171649D01*
X78038470Y-94267179D01*
X78086234Y-94314943D01*
X78181764Y-94362708D01*
X78372823Y-94410473D01*
X78611647Y-94410473D01*
X78802706Y-94362708D01*
X78898235Y-94314943D01*
X78946000Y-94267179D01*
X78993765Y-94171649D01*
X78993765Y-94076119D01*
X78946000Y-93980590D01*
X78898235Y-93932825D01*
X78802706Y-93885060D01*
X78611647Y-93837296D01*
X78372823Y-93837296D01*
X78181764Y-93885060D01*
X78086234Y-93932825D01*
X78038470Y-93980590D01*
X77990705Y-94076119D01*
X78086234Y-94792591D02*
X78038470Y-94840356D01*
X77990705Y-94935885D01*
X77990705Y-95174709D01*
X78038470Y-95270239D01*
X78086234Y-95318003D01*
X78181764Y-95365768D01*
X78277293Y-95365768D01*
X78420588Y-95318003D01*
X78993765Y-94744826D01*
X78993765Y-95365768D01*
D17*
X80392380Y-109314761D02*
X79916190Y-108981428D01*
X80392380Y-108743333D02*
X79392380Y-108743333D01*
X79392380Y-109124285D01*
X79440000Y-109219523D01*
X79487619Y-109267142D01*
X79582857Y-109314761D01*
X79725714Y-109314761D01*
X79820952Y-109267142D01*
X79868571Y-109219523D01*
X79916190Y-109124285D01*
X79916190Y-108743333D01*
X79392380Y-109600476D02*
X80392380Y-109933809D01*
X79392380Y-110267142D01*
X80392380Y-111124285D02*
X80392380Y-110552857D01*
X80392380Y-110838571D02*
X79392380Y-110838571D01*
X79535238Y-110743333D01*
X79630476Y-110648095D01*
X79678095Y-110552857D01*
D15*
X92807285Y-109528571D02*
X92190428Y-109528571D01*
X92117857Y-109492285D01*
X92081571Y-109456000D01*
X92045285Y-109383428D01*
X92045285Y-109238285D01*
X92081571Y-109165714D01*
X92117857Y-109129428D01*
X92190428Y-109093142D01*
X92807285Y-109093142D01*
X92045285Y-108331142D02*
X92045285Y-108766571D01*
X92045285Y-108548857D02*
X92807285Y-108548857D01*
X92698428Y-108621428D01*
X92625857Y-108694000D01*
X92589571Y-108766571D01*
M02*
