M48
; DRILL file {KiCad (5.1.2)-2} date 9-8-2019 14:09:10
; FORMAT={3:3/ absolute / metric / suppress leading zeros}
; #@! TF.CreationDate,2019-08-09T14:09:10+02:00
; #@! TF.GenerationSoftware,Kicad,Pcbnew,(5.1.2)-2
; #@! TF.FileFunction,Plated,1,2,PTH
FMAT,2
METRIC,TZ
T1C0.400
T2C0.600
T3C0.750
T4C0.800
T5C1.000
T6C1.250
T7C1.300
T8C1.520
%
G90
G05
T1
X79190Y-75680
X80750Y-66220
X80780Y-68220
X80790Y-60240
X80790Y-62180
X80790Y-64240
X80820Y-58220
X83520Y-76220
X85390Y-69630
X87230Y-79490
X87250Y-77640
X87360Y-65020
X89360Y-68020
X91310Y-74360
X91510Y-60250
X91670Y-62280
X91830Y-66250
X99130Y-54930
X99940Y-56260
X100990Y-70380
X101900Y-58220
X102760Y-55590
X103820Y-61180
X106400Y-66120
X106610Y-75590
X107900Y-67870
X108710Y-79840
X109320Y-64220
X110630Y-67270
X112670Y-83030
X114530Y-81070
X124870Y-95110
T2
X79350Y-107340
X80550Y-112340
T3
X71160Y-81730
X72430Y-80460
X73700Y-81730
T4
X73610Y-70220
X76110Y-70220
X124620Y-67450
X124620Y-69950
T5
X80330Y-81760
X80330Y-84300
X80330Y-94460
X80330Y-102080
X117020Y-49320
X117020Y-51860
X117020Y-54400
X117020Y-56940
X117020Y-59480
X117020Y-62020
X117020Y-64560
X117020Y-67100
X117020Y-69640
X117020Y-72180
X117020Y-74720
X121580Y-85240
X121580Y-87780
X97040Y-112480
X108440Y-112480
X126450Y-56930
X126450Y-59470
X126450Y-62010
X67860Y-49320
X67860Y-51860
X67860Y-54400
X67860Y-56940
X67860Y-59480
X67860Y-62020
X67860Y-64560
X67860Y-67100
X67860Y-69640
X67860Y-72180
X67860Y-74720
X114570Y-87810
X117110Y-87810
X112470Y-49270
X112470Y-51810
X112470Y-54350
X112470Y-56890
X112470Y-59430
X112470Y-61970
T6
X95470Y-97050
X95470Y-102050
X124870Y-91850
X124870Y-107250
T7
X87490Y-91950
X87490Y-114450
T8
X62790Y-94510
X67870Y-94510
X72950Y-94510
X62770Y-102690
X67850Y-102690
X72930Y-102690
T0
M30
