G04 #@! TF.GenerationSoftware,KiCad,Pcbnew,(5.1.2)-2*
G04 #@! TF.CreationDate,2019-08-09T14:08:30+02:00*
G04 #@! TF.ProjectId,ESP Base,45535020-4261-4736-952e-6b696361645f,1.0.8*
G04 #@! TF.SameCoordinates,Original*
G04 #@! TF.FileFunction,Legend,Top*
G04 #@! TF.FilePolarity,Positive*
%FSLAX46Y46*%
G04 Gerber Fmt 4.6, Leading zero omitted, Abs format (unit mm)*
G04 Created by KiCad (PCBNEW (5.1.2)-2) date 2019-08-09 14:08:30*
%MOMM*%
%LPD*%
G04 APERTURE LIST*
%ADD10C,0.075000*%
%ADD11C,0.125000*%
%ADD12C,0.120000*%
%ADD13C,0.381000*%
%ADD14C,0.152400*%
%ADD15C,0.150000*%
G04 APERTURE END LIST*
D10*
X124115714Y-64265714D02*
X124115714Y-64408571D01*
X124258571Y-64422857D01*
X124244285Y-64408571D01*
X124230000Y-64380000D01*
X124230000Y-64308571D01*
X124244285Y-64280000D01*
X124258571Y-64265714D01*
X124287142Y-64251428D01*
X124358571Y-64251428D01*
X124387142Y-64265714D01*
X124401428Y-64280000D01*
X124415714Y-64308571D01*
X124415714Y-64380000D01*
X124401428Y-64408571D01*
X124387142Y-64422857D01*
X124387142Y-64122857D02*
X124401428Y-64108571D01*
X124415714Y-64122857D01*
X124401428Y-64137142D01*
X124387142Y-64122857D01*
X124415714Y-64122857D01*
X124115714Y-63922857D02*
X124115714Y-63894285D01*
X124130000Y-63865714D01*
X124144285Y-63851428D01*
X124172857Y-63837142D01*
X124230000Y-63822857D01*
X124301428Y-63822857D01*
X124358571Y-63837142D01*
X124387142Y-63851428D01*
X124401428Y-63865714D01*
X124415714Y-63894285D01*
X124415714Y-63922857D01*
X124401428Y-63951428D01*
X124387142Y-63965714D01*
X124358571Y-63980000D01*
X124301428Y-63994285D01*
X124230000Y-63994285D01*
X124172857Y-63980000D01*
X124144285Y-63965714D01*
X124130000Y-63951428D01*
X124115714Y-63922857D01*
X124115714Y-63737142D02*
X124415714Y-63637142D01*
X124115714Y-63537142D01*
X124515714Y-63137142D02*
X124087142Y-63137142D01*
X124401428Y-62708571D02*
X124415714Y-62665714D01*
X124415714Y-62594285D01*
X124401428Y-62565714D01*
X124387142Y-62551428D01*
X124358571Y-62537142D01*
X124330000Y-62537142D01*
X124301428Y-62551428D01*
X124287142Y-62565714D01*
X124272857Y-62594285D01*
X124258571Y-62651428D01*
X124244285Y-62680000D01*
X124230000Y-62694285D01*
X124201428Y-62708571D01*
X124172857Y-62708571D01*
X124144285Y-62694285D01*
X124130000Y-62680000D01*
X124115714Y-62651428D01*
X124115714Y-62580000D01*
X124130000Y-62537142D01*
X124415714Y-62408571D02*
X124115714Y-62408571D01*
X124130000Y-62108571D02*
X124115714Y-62137142D01*
X124115714Y-62180000D01*
X124130000Y-62222857D01*
X124158571Y-62251428D01*
X124187142Y-62265714D01*
X124244285Y-62280000D01*
X124287142Y-62280000D01*
X124344285Y-62265714D01*
X124372857Y-62251428D01*
X124401428Y-62222857D01*
X124415714Y-62180000D01*
X124415714Y-62151428D01*
X124401428Y-62108571D01*
X124387142Y-62094285D01*
X124287142Y-62094285D01*
X124287142Y-62151428D01*
X124515714Y-61665714D02*
X124087142Y-61665714D01*
X124130000Y-61065714D02*
X124115714Y-61094285D01*
X124115714Y-61137142D01*
X124130000Y-61180000D01*
X124158571Y-61208571D01*
X124187142Y-61222857D01*
X124244285Y-61237142D01*
X124287142Y-61237142D01*
X124344285Y-61222857D01*
X124372857Y-61208571D01*
X124401428Y-61180000D01*
X124415714Y-61137142D01*
X124415714Y-61108571D01*
X124401428Y-61065714D01*
X124387142Y-61051428D01*
X124287142Y-61051428D01*
X124287142Y-61108571D01*
X124415714Y-60922857D02*
X124115714Y-60922857D01*
X124415714Y-60751428D01*
X124115714Y-60751428D01*
X124415714Y-60608571D02*
X124115714Y-60608571D01*
X124115714Y-60537142D01*
X124130000Y-60494285D01*
X124158571Y-60465714D01*
X124187142Y-60451428D01*
X124244285Y-60437142D01*
X124287142Y-60437142D01*
X124344285Y-60451428D01*
X124372857Y-60465714D01*
X124401428Y-60494285D01*
X124415714Y-60537142D01*
X124415714Y-60608571D01*
D11*
X110340000Y-48852202D02*
X110363809Y-48804583D01*
X110363809Y-48733154D01*
X110340000Y-48661726D01*
X110292380Y-48614107D01*
X110244761Y-48590297D01*
X110149523Y-48566488D01*
X110078095Y-48566488D01*
X109982857Y-48590297D01*
X109935238Y-48614107D01*
X109887619Y-48661726D01*
X109863809Y-48733154D01*
X109863809Y-48780773D01*
X109887619Y-48852202D01*
X109911428Y-48876011D01*
X110078095Y-48876011D01*
X110078095Y-48780773D01*
X109863809Y-49090297D02*
X110363809Y-49090297D01*
X109863809Y-49376011D01*
X110363809Y-49376011D01*
X109863809Y-49614107D02*
X110363809Y-49614107D01*
X110363809Y-49733154D01*
X110340000Y-49804583D01*
X110292380Y-49852202D01*
X110244761Y-49876011D01*
X110149523Y-49899821D01*
X110078095Y-49899821D01*
X109982857Y-49876011D01*
X109935238Y-49852202D01*
X109887619Y-49804583D01*
X109863809Y-49733154D01*
X109863809Y-49614107D01*
X109911428Y-51923630D02*
X109887619Y-51899821D01*
X109863809Y-51828392D01*
X109863809Y-51780773D01*
X109887619Y-51709345D01*
X109935238Y-51661726D01*
X109982857Y-51637916D01*
X110078095Y-51614107D01*
X110149523Y-51614107D01*
X110244761Y-51637916D01*
X110292380Y-51661726D01*
X110340000Y-51709345D01*
X110363809Y-51780773D01*
X110363809Y-51828392D01*
X110340000Y-51899821D01*
X110316190Y-51923630D01*
X110363809Y-52066488D02*
X110363809Y-52352202D01*
X109863809Y-52209345D02*
X110363809Y-52209345D01*
X109887619Y-52495059D02*
X109863809Y-52566488D01*
X109863809Y-52685535D01*
X109887619Y-52733154D01*
X109911428Y-52756964D01*
X109959047Y-52780773D01*
X110006666Y-52780773D01*
X110054285Y-52756964D01*
X110078095Y-52733154D01*
X110101904Y-52685535D01*
X110125714Y-52590297D01*
X110149523Y-52542678D01*
X110173333Y-52518869D01*
X110220952Y-52495059D01*
X110268571Y-52495059D01*
X110316190Y-52518869D01*
X110340000Y-52542678D01*
X110363809Y-52590297D01*
X110363809Y-52709345D01*
X110340000Y-52780773D01*
X110363809Y-54066488D02*
X109863809Y-54233154D01*
X110363809Y-54399821D01*
X109911428Y-54852202D02*
X109887619Y-54828392D01*
X109863809Y-54756964D01*
X109863809Y-54709345D01*
X109887619Y-54637916D01*
X109935238Y-54590297D01*
X109982857Y-54566488D01*
X110078095Y-54542678D01*
X110149523Y-54542678D01*
X110244761Y-54566488D01*
X110292380Y-54590297D01*
X110340000Y-54637916D01*
X110363809Y-54709345D01*
X110363809Y-54756964D01*
X110340000Y-54828392D01*
X110316190Y-54852202D01*
X109911428Y-55352202D02*
X109887619Y-55328392D01*
X109863809Y-55256964D01*
X109863809Y-55209345D01*
X109887619Y-55137916D01*
X109935238Y-55090297D01*
X109982857Y-55066488D01*
X110078095Y-55042678D01*
X110149523Y-55042678D01*
X110244761Y-55066488D01*
X110292380Y-55090297D01*
X110340000Y-55137916D01*
X110363809Y-55209345D01*
X110363809Y-55256964D01*
X110340000Y-55328392D01*
X110316190Y-55352202D01*
X110363809Y-57018869D02*
X110363809Y-57304583D01*
X109863809Y-57161726D02*
X110363809Y-57161726D01*
X110363809Y-57423630D02*
X109863809Y-57756964D01*
X110363809Y-57756964D02*
X109863809Y-57423630D01*
X109863809Y-59756964D02*
X110101904Y-59590297D01*
X109863809Y-59471250D02*
X110363809Y-59471250D01*
X110363809Y-59661726D01*
X110340000Y-59709345D01*
X110316190Y-59733154D01*
X110268571Y-59756964D01*
X110197142Y-59756964D01*
X110149523Y-59733154D01*
X110125714Y-59709345D01*
X110101904Y-59661726D01*
X110101904Y-59471250D01*
X110363809Y-59923630D02*
X109863809Y-60256964D01*
X110363809Y-60256964D02*
X109863809Y-59923630D01*
X109863809Y-61590297D02*
X110363809Y-61590297D01*
X110363809Y-61709345D01*
X110340000Y-61780773D01*
X110292380Y-61828392D01*
X110244761Y-61852202D01*
X110149523Y-61876011D01*
X110078095Y-61876011D01*
X109982857Y-61852202D01*
X109935238Y-61828392D01*
X109887619Y-61780773D01*
X109863809Y-61709345D01*
X109863809Y-61590297D01*
X110363809Y-62018869D02*
X110363809Y-62304583D01*
X109863809Y-62161726D02*
X110363809Y-62161726D01*
X109863809Y-62756964D02*
X110101904Y-62590297D01*
X109863809Y-62471250D02*
X110363809Y-62471250D01*
X110363809Y-62661726D01*
X110340000Y-62709345D01*
X110316190Y-62733154D01*
X110268571Y-62756964D01*
X110197142Y-62756964D01*
X110149523Y-62733154D01*
X110125714Y-62709345D01*
X110101904Y-62661726D01*
X110101904Y-62471250D01*
X69756011Y-49181190D02*
X69589345Y-48943095D01*
X69470297Y-49181190D02*
X69470297Y-48681190D01*
X69660773Y-48681190D01*
X69708392Y-48705000D01*
X69732202Y-48728809D01*
X69756011Y-48776428D01*
X69756011Y-48847857D01*
X69732202Y-48895476D01*
X69708392Y-48919285D01*
X69660773Y-48943095D01*
X69470297Y-48943095D01*
X69970297Y-48919285D02*
X70136964Y-48919285D01*
X70208392Y-49181190D02*
X69970297Y-49181190D01*
X69970297Y-48681190D01*
X70208392Y-48681190D01*
X70398869Y-49157380D02*
X70470297Y-49181190D01*
X70589345Y-49181190D01*
X70636964Y-49157380D01*
X70660773Y-49133571D01*
X70684583Y-49085952D01*
X70684583Y-49038333D01*
X70660773Y-48990714D01*
X70636964Y-48966904D01*
X70589345Y-48943095D01*
X70494107Y-48919285D01*
X70446488Y-48895476D01*
X70422678Y-48871666D01*
X70398869Y-48824047D01*
X70398869Y-48776428D01*
X70422678Y-48728809D01*
X70446488Y-48705000D01*
X70494107Y-48681190D01*
X70613154Y-48681190D01*
X70684583Y-48705000D01*
X70898869Y-48919285D02*
X71065535Y-48919285D01*
X71136964Y-49181190D02*
X70898869Y-49181190D01*
X70898869Y-48681190D01*
X71136964Y-48681190D01*
X71279821Y-48681190D02*
X71565535Y-48681190D01*
X71422678Y-49181190D02*
X71422678Y-48681190D01*
X69446488Y-51663333D02*
X69684583Y-51663333D01*
X69398869Y-51806190D02*
X69565535Y-51306190D01*
X69732202Y-51806190D01*
X69898869Y-51806190D02*
X69898869Y-51306190D01*
X70017916Y-51306190D01*
X70089345Y-51330000D01*
X70136964Y-51377619D01*
X70160773Y-51425238D01*
X70184583Y-51520476D01*
X70184583Y-51591904D01*
X70160773Y-51687142D01*
X70136964Y-51734761D01*
X70089345Y-51782380D01*
X70017916Y-51806190D01*
X69898869Y-51806190D01*
X70684583Y-51758571D02*
X70660773Y-51782380D01*
X70589345Y-51806190D01*
X70541726Y-51806190D01*
X70470297Y-51782380D01*
X70422678Y-51734761D01*
X70398869Y-51687142D01*
X70375059Y-51591904D01*
X70375059Y-51520476D01*
X70398869Y-51425238D01*
X70422678Y-51377619D01*
X70470297Y-51330000D01*
X70541726Y-51306190D01*
X70589345Y-51306190D01*
X70660773Y-51330000D01*
X70684583Y-51353809D01*
X69756011Y-54383571D02*
X69732202Y-54407380D01*
X69660773Y-54431190D01*
X69613154Y-54431190D01*
X69541726Y-54407380D01*
X69494107Y-54359761D01*
X69470297Y-54312142D01*
X69446488Y-54216904D01*
X69446488Y-54145476D01*
X69470297Y-54050238D01*
X69494107Y-54002619D01*
X69541726Y-53955000D01*
X69613154Y-53931190D01*
X69660773Y-53931190D01*
X69732202Y-53955000D01*
X69756011Y-53978809D01*
X69970297Y-54431190D02*
X69970297Y-53931190D01*
X69970297Y-54169285D02*
X70256011Y-54169285D01*
X70256011Y-54431190D02*
X70256011Y-53931190D01*
X70375059Y-54478809D02*
X70756011Y-54478809D01*
X70875059Y-54431190D02*
X70875059Y-53931190D01*
X71065535Y-53931190D01*
X71113154Y-53955000D01*
X71136964Y-53978809D01*
X71160773Y-54026428D01*
X71160773Y-54097857D01*
X71136964Y-54145476D01*
X71113154Y-54169285D01*
X71065535Y-54193095D01*
X70875059Y-54193095D01*
X71375059Y-54431190D02*
X71375059Y-53931190D01*
X71494107Y-53931190D01*
X71565535Y-53955000D01*
X71613154Y-54002619D01*
X71636964Y-54050238D01*
X71660773Y-54145476D01*
X71660773Y-54216904D01*
X71636964Y-54312142D01*
X71613154Y-54359761D01*
X71565535Y-54407380D01*
X71494107Y-54431190D01*
X71375059Y-54431190D01*
X69732202Y-56580000D02*
X69684583Y-56556190D01*
X69613154Y-56556190D01*
X69541726Y-56580000D01*
X69494107Y-56627619D01*
X69470297Y-56675238D01*
X69446488Y-56770476D01*
X69446488Y-56841904D01*
X69470297Y-56937142D01*
X69494107Y-56984761D01*
X69541726Y-57032380D01*
X69613154Y-57056190D01*
X69660773Y-57056190D01*
X69732202Y-57032380D01*
X69756011Y-57008571D01*
X69756011Y-56841904D01*
X69660773Y-56841904D01*
X69970297Y-57056190D02*
X69970297Y-56556190D01*
X70160773Y-56556190D01*
X70208392Y-56580000D01*
X70232202Y-56603809D01*
X70256011Y-56651428D01*
X70256011Y-56722857D01*
X70232202Y-56770476D01*
X70208392Y-56794285D01*
X70160773Y-56818095D01*
X69970297Y-56818095D01*
X70470297Y-57056190D02*
X70470297Y-56556190D01*
X70803630Y-56556190D02*
X70898869Y-56556190D01*
X70946488Y-56580000D01*
X70994107Y-56627619D01*
X71017916Y-56722857D01*
X71017916Y-56889523D01*
X70994107Y-56984761D01*
X70946488Y-57032380D01*
X70898869Y-57056190D01*
X70803630Y-57056190D01*
X70756011Y-57032380D01*
X70708392Y-56984761D01*
X70684583Y-56889523D01*
X70684583Y-56722857D01*
X70708392Y-56627619D01*
X70756011Y-56580000D01*
X70803630Y-56556190D01*
X71494107Y-57056190D02*
X71208392Y-57056190D01*
X71351250Y-57056190D02*
X71351250Y-56556190D01*
X71303630Y-56627619D01*
X71256011Y-56675238D01*
X71208392Y-56699047D01*
X71922678Y-56556190D02*
X71827440Y-56556190D01*
X71779821Y-56580000D01*
X71756011Y-56603809D01*
X71708392Y-56675238D01*
X71684583Y-56770476D01*
X71684583Y-56960952D01*
X71708392Y-57008571D01*
X71732202Y-57032380D01*
X71779821Y-57056190D01*
X71875059Y-57056190D01*
X71922678Y-57032380D01*
X71946488Y-57008571D01*
X71970297Y-56960952D01*
X71970297Y-56841904D01*
X71946488Y-56794285D01*
X71922678Y-56770476D01*
X71875059Y-56746666D01*
X71779821Y-56746666D01*
X71732202Y-56770476D01*
X71708392Y-56794285D01*
X71684583Y-56841904D01*
X69732202Y-59205000D02*
X69684583Y-59181190D01*
X69613154Y-59181190D01*
X69541726Y-59205000D01*
X69494107Y-59252619D01*
X69470297Y-59300238D01*
X69446488Y-59395476D01*
X69446488Y-59466904D01*
X69470297Y-59562142D01*
X69494107Y-59609761D01*
X69541726Y-59657380D01*
X69613154Y-59681190D01*
X69660773Y-59681190D01*
X69732202Y-59657380D01*
X69756011Y-59633571D01*
X69756011Y-59466904D01*
X69660773Y-59466904D01*
X69970297Y-59681190D02*
X69970297Y-59181190D01*
X70160773Y-59181190D01*
X70208392Y-59205000D01*
X70232202Y-59228809D01*
X70256011Y-59276428D01*
X70256011Y-59347857D01*
X70232202Y-59395476D01*
X70208392Y-59419285D01*
X70160773Y-59443095D01*
X69970297Y-59443095D01*
X70470297Y-59681190D02*
X70470297Y-59181190D01*
X70803630Y-59181190D02*
X70898869Y-59181190D01*
X70946488Y-59205000D01*
X70994107Y-59252619D01*
X71017916Y-59347857D01*
X71017916Y-59514523D01*
X70994107Y-59609761D01*
X70946488Y-59657380D01*
X70898869Y-59681190D01*
X70803630Y-59681190D01*
X70756011Y-59657380D01*
X70708392Y-59609761D01*
X70684583Y-59514523D01*
X70684583Y-59347857D01*
X70708392Y-59252619D01*
X70756011Y-59205000D01*
X70803630Y-59181190D01*
X71494107Y-59681190D02*
X71208392Y-59681190D01*
X71351250Y-59681190D02*
X71351250Y-59181190D01*
X71303630Y-59252619D01*
X71256011Y-59300238D01*
X71208392Y-59324047D01*
X71922678Y-59347857D02*
X71922678Y-59681190D01*
X71803630Y-59157380D02*
X71684583Y-59514523D01*
X71994107Y-59514523D01*
X69732202Y-61830000D02*
X69684583Y-61806190D01*
X69613154Y-61806190D01*
X69541726Y-61830000D01*
X69494107Y-61877619D01*
X69470297Y-61925238D01*
X69446488Y-62020476D01*
X69446488Y-62091904D01*
X69470297Y-62187142D01*
X69494107Y-62234761D01*
X69541726Y-62282380D01*
X69613154Y-62306190D01*
X69660773Y-62306190D01*
X69732202Y-62282380D01*
X69756011Y-62258571D01*
X69756011Y-62091904D01*
X69660773Y-62091904D01*
X69970297Y-62306190D02*
X69970297Y-61806190D01*
X70160773Y-61806190D01*
X70208392Y-61830000D01*
X70232202Y-61853809D01*
X70256011Y-61901428D01*
X70256011Y-61972857D01*
X70232202Y-62020476D01*
X70208392Y-62044285D01*
X70160773Y-62068095D01*
X69970297Y-62068095D01*
X70470297Y-62306190D02*
X70470297Y-61806190D01*
X70803630Y-61806190D02*
X70898869Y-61806190D01*
X70946488Y-61830000D01*
X70994107Y-61877619D01*
X71017916Y-61972857D01*
X71017916Y-62139523D01*
X70994107Y-62234761D01*
X70946488Y-62282380D01*
X70898869Y-62306190D01*
X70803630Y-62306190D01*
X70756011Y-62282380D01*
X70708392Y-62234761D01*
X70684583Y-62139523D01*
X70684583Y-61972857D01*
X70708392Y-61877619D01*
X70756011Y-61830000D01*
X70803630Y-61806190D01*
X71494107Y-62306190D02*
X71208392Y-62306190D01*
X71351250Y-62306190D02*
X71351250Y-61806190D01*
X71303630Y-61877619D01*
X71256011Y-61925238D01*
X71208392Y-61949047D01*
X71684583Y-61853809D02*
X71708392Y-61830000D01*
X71756011Y-61806190D01*
X71875059Y-61806190D01*
X71922678Y-61830000D01*
X71946488Y-61853809D01*
X71970297Y-61901428D01*
X71970297Y-61949047D01*
X71946488Y-62020476D01*
X71660773Y-62306190D01*
X71970297Y-62306190D01*
X69732202Y-64455000D02*
X69684583Y-64431190D01*
X69613154Y-64431190D01*
X69541726Y-64455000D01*
X69494107Y-64502619D01*
X69470297Y-64550238D01*
X69446488Y-64645476D01*
X69446488Y-64716904D01*
X69470297Y-64812142D01*
X69494107Y-64859761D01*
X69541726Y-64907380D01*
X69613154Y-64931190D01*
X69660773Y-64931190D01*
X69732202Y-64907380D01*
X69756011Y-64883571D01*
X69756011Y-64716904D01*
X69660773Y-64716904D01*
X69970297Y-64931190D02*
X69970297Y-64431190D01*
X70160773Y-64431190D01*
X70208392Y-64455000D01*
X70232202Y-64478809D01*
X70256011Y-64526428D01*
X70256011Y-64597857D01*
X70232202Y-64645476D01*
X70208392Y-64669285D01*
X70160773Y-64693095D01*
X69970297Y-64693095D01*
X70470297Y-64931190D02*
X70470297Y-64431190D01*
X70803630Y-64431190D02*
X70898869Y-64431190D01*
X70946488Y-64455000D01*
X70994107Y-64502619D01*
X71017916Y-64597857D01*
X71017916Y-64764523D01*
X70994107Y-64859761D01*
X70946488Y-64907380D01*
X70898869Y-64931190D01*
X70803630Y-64931190D01*
X70756011Y-64907380D01*
X70708392Y-64859761D01*
X70684583Y-64764523D01*
X70684583Y-64597857D01*
X70708392Y-64502619D01*
X70756011Y-64455000D01*
X70803630Y-64431190D01*
X71494107Y-64931190D02*
X71208392Y-64931190D01*
X71351250Y-64931190D02*
X71351250Y-64431190D01*
X71303630Y-64502619D01*
X71256011Y-64550238D01*
X71208392Y-64574047D01*
X71660773Y-64431190D02*
X71970297Y-64431190D01*
X71803630Y-64621666D01*
X71875059Y-64621666D01*
X71922678Y-64645476D01*
X71946488Y-64669285D01*
X71970297Y-64716904D01*
X71970297Y-64835952D01*
X71946488Y-64883571D01*
X71922678Y-64907380D01*
X71875059Y-64931190D01*
X71732202Y-64931190D01*
X71684583Y-64907380D01*
X71660773Y-64883571D01*
X69398869Y-67056190D02*
X69565535Y-67556190D01*
X69732202Y-67056190D01*
X70184583Y-67508571D02*
X70160773Y-67532380D01*
X70089345Y-67556190D01*
X70041726Y-67556190D01*
X69970297Y-67532380D01*
X69922678Y-67484761D01*
X69898869Y-67437142D01*
X69875059Y-67341904D01*
X69875059Y-67270476D01*
X69898869Y-67175238D01*
X69922678Y-67127619D01*
X69970297Y-67080000D01*
X70041726Y-67056190D01*
X70089345Y-67056190D01*
X70160773Y-67080000D01*
X70184583Y-67103809D01*
X70684583Y-67508571D02*
X70660773Y-67532380D01*
X70589345Y-67556190D01*
X70541726Y-67556190D01*
X70470297Y-67532380D01*
X70422678Y-67484761D01*
X70398869Y-67437142D01*
X70375059Y-67341904D01*
X70375059Y-67270476D01*
X70398869Y-67175238D01*
X70422678Y-67127619D01*
X70470297Y-67080000D01*
X70541726Y-67056190D01*
X70589345Y-67056190D01*
X70660773Y-67080000D01*
X70684583Y-67103809D01*
X69732202Y-69705000D02*
X69684583Y-69681190D01*
X69613154Y-69681190D01*
X69541726Y-69705000D01*
X69494107Y-69752619D01*
X69470297Y-69800238D01*
X69446488Y-69895476D01*
X69446488Y-69966904D01*
X69470297Y-70062142D01*
X69494107Y-70109761D01*
X69541726Y-70157380D01*
X69613154Y-70181190D01*
X69660773Y-70181190D01*
X69732202Y-70157380D01*
X69756011Y-70133571D01*
X69756011Y-69966904D01*
X69660773Y-69966904D01*
X69970297Y-70181190D02*
X69970297Y-69681190D01*
X70256011Y-70181190D01*
X70256011Y-69681190D01*
X70494107Y-70181190D02*
X70494107Y-69681190D01*
X70613154Y-69681190D01*
X70684583Y-69705000D01*
X70732202Y-69752619D01*
X70756011Y-69800238D01*
X70779821Y-69895476D01*
X70779821Y-69966904D01*
X70756011Y-70062142D01*
X70732202Y-70109761D01*
X70684583Y-70157380D01*
X70613154Y-70181190D01*
X70494107Y-70181190D01*
X69732202Y-72330000D02*
X69684583Y-72306190D01*
X69613154Y-72306190D01*
X69541726Y-72330000D01*
X69494107Y-72377619D01*
X69470297Y-72425238D01*
X69446488Y-72520476D01*
X69446488Y-72591904D01*
X69470297Y-72687142D01*
X69494107Y-72734761D01*
X69541726Y-72782380D01*
X69613154Y-72806190D01*
X69660773Y-72806190D01*
X69732202Y-72782380D01*
X69756011Y-72758571D01*
X69756011Y-72591904D01*
X69660773Y-72591904D01*
X69970297Y-72806190D02*
X69970297Y-72306190D01*
X70160773Y-72306190D01*
X70208392Y-72330000D01*
X70232202Y-72353809D01*
X70256011Y-72401428D01*
X70256011Y-72472857D01*
X70232202Y-72520476D01*
X70208392Y-72544285D01*
X70160773Y-72568095D01*
X69970297Y-72568095D01*
X70470297Y-72806190D02*
X70470297Y-72306190D01*
X70803630Y-72306190D02*
X70898869Y-72306190D01*
X70946488Y-72330000D01*
X70994107Y-72377619D01*
X71017916Y-72472857D01*
X71017916Y-72639523D01*
X70994107Y-72734761D01*
X70946488Y-72782380D01*
X70898869Y-72806190D01*
X70803630Y-72806190D01*
X70756011Y-72782380D01*
X70708392Y-72734761D01*
X70684583Y-72639523D01*
X70684583Y-72472857D01*
X70708392Y-72377619D01*
X70756011Y-72330000D01*
X70803630Y-72306190D01*
X71494107Y-72806190D02*
X71208392Y-72806190D01*
X71351250Y-72806190D02*
X71351250Y-72306190D01*
X71303630Y-72377619D01*
X71256011Y-72425238D01*
X71208392Y-72449047D01*
X71946488Y-72306190D02*
X71708392Y-72306190D01*
X71684583Y-72544285D01*
X71708392Y-72520476D01*
X71756011Y-72496666D01*
X71875059Y-72496666D01*
X71922678Y-72520476D01*
X71946488Y-72544285D01*
X71970297Y-72591904D01*
X71970297Y-72710952D01*
X71946488Y-72758571D01*
X71922678Y-72782380D01*
X71875059Y-72806190D01*
X71756011Y-72806190D01*
X71708392Y-72782380D01*
X71684583Y-72758571D01*
X69732202Y-74955000D02*
X69684583Y-74931190D01*
X69613154Y-74931190D01*
X69541726Y-74955000D01*
X69494107Y-75002619D01*
X69470297Y-75050238D01*
X69446488Y-75145476D01*
X69446488Y-75216904D01*
X69470297Y-75312142D01*
X69494107Y-75359761D01*
X69541726Y-75407380D01*
X69613154Y-75431190D01*
X69660773Y-75431190D01*
X69732202Y-75407380D01*
X69756011Y-75383571D01*
X69756011Y-75216904D01*
X69660773Y-75216904D01*
X69970297Y-75431190D02*
X69970297Y-74931190D01*
X70160773Y-74931190D01*
X70208392Y-74955000D01*
X70232202Y-74978809D01*
X70256011Y-75026428D01*
X70256011Y-75097857D01*
X70232202Y-75145476D01*
X70208392Y-75169285D01*
X70160773Y-75193095D01*
X69970297Y-75193095D01*
X70470297Y-75431190D02*
X70470297Y-74931190D01*
X70803630Y-74931190D02*
X70898869Y-74931190D01*
X70946488Y-74955000D01*
X70994107Y-75002619D01*
X71017916Y-75097857D01*
X71017916Y-75264523D01*
X70994107Y-75359761D01*
X70946488Y-75407380D01*
X70898869Y-75431190D01*
X70803630Y-75431190D01*
X70756011Y-75407380D01*
X70708392Y-75359761D01*
X70684583Y-75264523D01*
X70684583Y-75097857D01*
X70708392Y-75002619D01*
X70756011Y-74955000D01*
X70803630Y-74931190D01*
X71208392Y-74978809D02*
X71232202Y-74955000D01*
X71279821Y-74931190D01*
X71398869Y-74931190D01*
X71446488Y-74955000D01*
X71470297Y-74978809D01*
X71494107Y-75026428D01*
X71494107Y-75074047D01*
X71470297Y-75145476D01*
X71184583Y-75431190D01*
X71494107Y-75431190D01*
X119252202Y-48905000D02*
X119204583Y-48881190D01*
X119133154Y-48881190D01*
X119061726Y-48905000D01*
X119014107Y-48952619D01*
X118990297Y-49000238D01*
X118966488Y-49095476D01*
X118966488Y-49166904D01*
X118990297Y-49262142D01*
X119014107Y-49309761D01*
X119061726Y-49357380D01*
X119133154Y-49381190D01*
X119180773Y-49381190D01*
X119252202Y-49357380D01*
X119276011Y-49333571D01*
X119276011Y-49166904D01*
X119180773Y-49166904D01*
X119490297Y-49381190D02*
X119490297Y-48881190D01*
X119680773Y-48881190D01*
X119728392Y-48905000D01*
X119752202Y-48928809D01*
X119776011Y-48976428D01*
X119776011Y-49047857D01*
X119752202Y-49095476D01*
X119728392Y-49119285D01*
X119680773Y-49143095D01*
X119490297Y-49143095D01*
X119990297Y-49381190D02*
X119990297Y-48881190D01*
X120323630Y-48881190D02*
X120418869Y-48881190D01*
X120466488Y-48905000D01*
X120514107Y-48952619D01*
X120537916Y-49047857D01*
X120537916Y-49214523D01*
X120514107Y-49309761D01*
X120466488Y-49357380D01*
X120418869Y-49381190D01*
X120323630Y-49381190D01*
X120276011Y-49357380D01*
X120228392Y-49309761D01*
X120204583Y-49214523D01*
X120204583Y-49047857D01*
X120228392Y-48952619D01*
X120276011Y-48905000D01*
X120323630Y-48881190D01*
X120847440Y-48881190D02*
X120895059Y-48881190D01*
X120942678Y-48905000D01*
X120966488Y-48928809D01*
X120990297Y-48976428D01*
X121014107Y-49071666D01*
X121014107Y-49190714D01*
X120990297Y-49285952D01*
X120966488Y-49333571D01*
X120942678Y-49357380D01*
X120895059Y-49381190D01*
X120847440Y-49381190D01*
X120799821Y-49357380D01*
X120776011Y-49333571D01*
X120752202Y-49285952D01*
X120728392Y-49190714D01*
X120728392Y-49071666D01*
X120752202Y-48976428D01*
X120776011Y-48928809D01*
X120799821Y-48905000D01*
X120847440Y-48881190D01*
X119252202Y-51530000D02*
X119204583Y-51506190D01*
X119133154Y-51506190D01*
X119061726Y-51530000D01*
X119014107Y-51577619D01*
X118990297Y-51625238D01*
X118966488Y-51720476D01*
X118966488Y-51791904D01*
X118990297Y-51887142D01*
X119014107Y-51934761D01*
X119061726Y-51982380D01*
X119133154Y-52006190D01*
X119180773Y-52006190D01*
X119252202Y-51982380D01*
X119276011Y-51958571D01*
X119276011Y-51791904D01*
X119180773Y-51791904D01*
X119490297Y-52006190D02*
X119490297Y-51506190D01*
X119680773Y-51506190D01*
X119728392Y-51530000D01*
X119752202Y-51553809D01*
X119776011Y-51601428D01*
X119776011Y-51672857D01*
X119752202Y-51720476D01*
X119728392Y-51744285D01*
X119680773Y-51768095D01*
X119490297Y-51768095D01*
X119990297Y-52006190D02*
X119990297Y-51506190D01*
X120323630Y-51506190D02*
X120418869Y-51506190D01*
X120466488Y-51530000D01*
X120514107Y-51577619D01*
X120537916Y-51672857D01*
X120537916Y-51839523D01*
X120514107Y-51934761D01*
X120466488Y-51982380D01*
X120418869Y-52006190D01*
X120323630Y-52006190D01*
X120276011Y-51982380D01*
X120228392Y-51934761D01*
X120204583Y-51839523D01*
X120204583Y-51672857D01*
X120228392Y-51577619D01*
X120276011Y-51530000D01*
X120323630Y-51506190D01*
X120966488Y-51672857D02*
X120966488Y-52006190D01*
X120847440Y-51482380D02*
X120728392Y-51839523D01*
X121037916Y-51839523D01*
X119252202Y-54155000D02*
X119204583Y-54131190D01*
X119133154Y-54131190D01*
X119061726Y-54155000D01*
X119014107Y-54202619D01*
X118990297Y-54250238D01*
X118966488Y-54345476D01*
X118966488Y-54416904D01*
X118990297Y-54512142D01*
X119014107Y-54559761D01*
X119061726Y-54607380D01*
X119133154Y-54631190D01*
X119180773Y-54631190D01*
X119252202Y-54607380D01*
X119276011Y-54583571D01*
X119276011Y-54416904D01*
X119180773Y-54416904D01*
X119490297Y-54631190D02*
X119490297Y-54131190D01*
X119680773Y-54131190D01*
X119728392Y-54155000D01*
X119752202Y-54178809D01*
X119776011Y-54226428D01*
X119776011Y-54297857D01*
X119752202Y-54345476D01*
X119728392Y-54369285D01*
X119680773Y-54393095D01*
X119490297Y-54393095D01*
X119990297Y-54631190D02*
X119990297Y-54131190D01*
X120323630Y-54131190D02*
X120418869Y-54131190D01*
X120466488Y-54155000D01*
X120514107Y-54202619D01*
X120537916Y-54297857D01*
X120537916Y-54464523D01*
X120514107Y-54559761D01*
X120466488Y-54607380D01*
X120418869Y-54631190D01*
X120323630Y-54631190D01*
X120276011Y-54607380D01*
X120228392Y-54559761D01*
X120204583Y-54464523D01*
X120204583Y-54297857D01*
X120228392Y-54202619D01*
X120276011Y-54155000D01*
X120323630Y-54131190D01*
X120990297Y-54131190D02*
X120752202Y-54131190D01*
X120728392Y-54369285D01*
X120752202Y-54345476D01*
X120799821Y-54321666D01*
X120918869Y-54321666D01*
X120966488Y-54345476D01*
X120990297Y-54369285D01*
X121014107Y-54416904D01*
X121014107Y-54535952D01*
X120990297Y-54583571D01*
X120966488Y-54607380D01*
X120918869Y-54631190D01*
X120799821Y-54631190D01*
X120752202Y-54607380D01*
X120728392Y-54583571D01*
X119276011Y-57256190D02*
X119109345Y-57018095D01*
X118990297Y-57256190D02*
X118990297Y-56756190D01*
X119180773Y-56756190D01*
X119228392Y-56780000D01*
X119252202Y-56803809D01*
X119276011Y-56851428D01*
X119276011Y-56922857D01*
X119252202Y-56970476D01*
X119228392Y-56994285D01*
X119180773Y-57018095D01*
X118990297Y-57018095D01*
X119442678Y-56756190D02*
X119776011Y-57256190D01*
X119776011Y-56756190D02*
X119442678Y-57256190D01*
X118918869Y-59381190D02*
X119204583Y-59381190D01*
X119061726Y-59881190D02*
X119061726Y-59381190D01*
X119323630Y-59381190D02*
X119656964Y-59881190D01*
X119656964Y-59381190D02*
X119323630Y-59881190D01*
X119276011Y-62458571D02*
X119252202Y-62482380D01*
X119180773Y-62506190D01*
X119133154Y-62506190D01*
X119061726Y-62482380D01*
X119014107Y-62434761D01*
X118990297Y-62387142D01*
X118966488Y-62291904D01*
X118966488Y-62220476D01*
X118990297Y-62125238D01*
X119014107Y-62077619D01*
X119061726Y-62030000D01*
X119133154Y-62006190D01*
X119180773Y-62006190D01*
X119252202Y-62030000D01*
X119276011Y-62053809D01*
X119466488Y-62482380D02*
X119537916Y-62506190D01*
X119656964Y-62506190D01*
X119704583Y-62482380D01*
X119728392Y-62458571D01*
X119752202Y-62410952D01*
X119752202Y-62363333D01*
X119728392Y-62315714D01*
X119704583Y-62291904D01*
X119656964Y-62268095D01*
X119561726Y-62244285D01*
X119514107Y-62220476D01*
X119490297Y-62196666D01*
X119466488Y-62149047D01*
X119466488Y-62101428D01*
X119490297Y-62053809D01*
X119514107Y-62030000D01*
X119561726Y-62006190D01*
X119680773Y-62006190D01*
X119752202Y-62030000D01*
X120061726Y-62006190D02*
X120156964Y-62006190D01*
X120204583Y-62030000D01*
X120252202Y-62077619D01*
X120276011Y-62172857D01*
X120276011Y-62339523D01*
X120252202Y-62434761D01*
X120204583Y-62482380D01*
X120156964Y-62506190D01*
X120061726Y-62506190D01*
X120014107Y-62482380D01*
X119966488Y-62434761D01*
X119942678Y-62339523D01*
X119942678Y-62172857D01*
X119966488Y-62077619D01*
X120014107Y-62030000D01*
X120061726Y-62006190D01*
X118990297Y-65131190D02*
X118990297Y-64631190D01*
X119156964Y-64988333D01*
X119323630Y-64631190D01*
X119323630Y-65131190D01*
X119561726Y-65131190D02*
X119561726Y-64631190D01*
X119776011Y-65107380D02*
X119847440Y-65131190D01*
X119966488Y-65131190D01*
X120014107Y-65107380D01*
X120037916Y-65083571D01*
X120061726Y-65035952D01*
X120061726Y-64988333D01*
X120037916Y-64940714D01*
X120014107Y-64916904D01*
X119966488Y-64893095D01*
X119871250Y-64869285D01*
X119823630Y-64845476D01*
X119799821Y-64821666D01*
X119776011Y-64774047D01*
X119776011Y-64726428D01*
X119799821Y-64678809D01*
X119823630Y-64655000D01*
X119871250Y-64631190D01*
X119990297Y-64631190D01*
X120061726Y-64655000D01*
X120371250Y-64631190D02*
X120466488Y-64631190D01*
X120514107Y-64655000D01*
X120561726Y-64702619D01*
X120585535Y-64797857D01*
X120585535Y-64964523D01*
X120561726Y-65059761D01*
X120514107Y-65107380D01*
X120466488Y-65131190D01*
X120371250Y-65131190D01*
X120323630Y-65107380D01*
X120276011Y-65059761D01*
X120252202Y-64964523D01*
X120252202Y-64797857D01*
X120276011Y-64702619D01*
X120323630Y-64655000D01*
X120371250Y-64631190D01*
X119252202Y-67280000D02*
X119204583Y-67256190D01*
X119133154Y-67256190D01*
X119061726Y-67280000D01*
X119014107Y-67327619D01*
X118990297Y-67375238D01*
X118966488Y-67470476D01*
X118966488Y-67541904D01*
X118990297Y-67637142D01*
X119014107Y-67684761D01*
X119061726Y-67732380D01*
X119133154Y-67756190D01*
X119180773Y-67756190D01*
X119252202Y-67732380D01*
X119276011Y-67708571D01*
X119276011Y-67541904D01*
X119180773Y-67541904D01*
X119490297Y-67756190D02*
X119490297Y-67256190D01*
X119680773Y-67256190D01*
X119728392Y-67280000D01*
X119752202Y-67303809D01*
X119776011Y-67351428D01*
X119776011Y-67422857D01*
X119752202Y-67470476D01*
X119728392Y-67494285D01*
X119680773Y-67518095D01*
X119490297Y-67518095D01*
X119990297Y-67756190D02*
X119990297Y-67256190D01*
X120323630Y-67256190D02*
X120418869Y-67256190D01*
X120466488Y-67280000D01*
X120514107Y-67327619D01*
X120537916Y-67422857D01*
X120537916Y-67589523D01*
X120514107Y-67684761D01*
X120466488Y-67732380D01*
X120418869Y-67756190D01*
X120323630Y-67756190D01*
X120276011Y-67732380D01*
X120228392Y-67684761D01*
X120204583Y-67589523D01*
X120204583Y-67422857D01*
X120228392Y-67327619D01*
X120276011Y-67280000D01*
X120323630Y-67256190D01*
X120776011Y-67756190D02*
X120871250Y-67756190D01*
X120918869Y-67732380D01*
X120942678Y-67708571D01*
X120990297Y-67637142D01*
X121014107Y-67541904D01*
X121014107Y-67351428D01*
X120990297Y-67303809D01*
X120966488Y-67280000D01*
X120918869Y-67256190D01*
X120823630Y-67256190D01*
X120776011Y-67280000D01*
X120752202Y-67303809D01*
X120728392Y-67351428D01*
X120728392Y-67470476D01*
X120752202Y-67518095D01*
X120776011Y-67541904D01*
X120823630Y-67565714D01*
X120918869Y-67565714D01*
X120966488Y-67541904D01*
X120990297Y-67518095D01*
X121014107Y-67470476D01*
X119252202Y-69905000D02*
X119204583Y-69881190D01*
X119133154Y-69881190D01*
X119061726Y-69905000D01*
X119014107Y-69952619D01*
X118990297Y-70000238D01*
X118966488Y-70095476D01*
X118966488Y-70166904D01*
X118990297Y-70262142D01*
X119014107Y-70309761D01*
X119061726Y-70357380D01*
X119133154Y-70381190D01*
X119180773Y-70381190D01*
X119252202Y-70357380D01*
X119276011Y-70333571D01*
X119276011Y-70166904D01*
X119180773Y-70166904D01*
X119490297Y-70381190D02*
X119490297Y-69881190D01*
X119680773Y-69881190D01*
X119728392Y-69905000D01*
X119752202Y-69928809D01*
X119776011Y-69976428D01*
X119776011Y-70047857D01*
X119752202Y-70095476D01*
X119728392Y-70119285D01*
X119680773Y-70143095D01*
X119490297Y-70143095D01*
X119990297Y-70381190D02*
X119990297Y-69881190D01*
X120323630Y-69881190D02*
X120418869Y-69881190D01*
X120466488Y-69905000D01*
X120514107Y-69952619D01*
X120537916Y-70047857D01*
X120537916Y-70214523D01*
X120514107Y-70309761D01*
X120466488Y-70357380D01*
X120418869Y-70381190D01*
X120323630Y-70381190D01*
X120276011Y-70357380D01*
X120228392Y-70309761D01*
X120204583Y-70214523D01*
X120204583Y-70047857D01*
X120228392Y-69952619D01*
X120276011Y-69905000D01*
X120323630Y-69881190D01*
X121014107Y-70381190D02*
X120728392Y-70381190D01*
X120871250Y-70381190D02*
X120871250Y-69881190D01*
X120823630Y-69952619D01*
X120776011Y-70000238D01*
X120728392Y-70024047D01*
X121323630Y-69881190D02*
X121371250Y-69881190D01*
X121418869Y-69905000D01*
X121442678Y-69928809D01*
X121466488Y-69976428D01*
X121490297Y-70071666D01*
X121490297Y-70190714D01*
X121466488Y-70285952D01*
X121442678Y-70333571D01*
X121418869Y-70357380D01*
X121371250Y-70381190D01*
X121323630Y-70381190D01*
X121276011Y-70357380D01*
X121252202Y-70333571D01*
X121228392Y-70285952D01*
X121204583Y-70190714D01*
X121204583Y-70071666D01*
X121228392Y-69976428D01*
X121252202Y-69928809D01*
X121276011Y-69905000D01*
X121323630Y-69881190D01*
X118990297Y-73006190D02*
X118990297Y-72506190D01*
X119156964Y-72863333D01*
X119323630Y-72506190D01*
X119323630Y-73006190D01*
X119656964Y-72506190D02*
X119752202Y-72506190D01*
X119799821Y-72530000D01*
X119847440Y-72577619D01*
X119871250Y-72672857D01*
X119871250Y-72839523D01*
X119847440Y-72934761D01*
X119799821Y-72982380D01*
X119752202Y-73006190D01*
X119656964Y-73006190D01*
X119609345Y-72982380D01*
X119561726Y-72934761D01*
X119537916Y-72839523D01*
X119537916Y-72672857D01*
X119561726Y-72577619D01*
X119609345Y-72530000D01*
X119656964Y-72506190D01*
X120061726Y-72982380D02*
X120133154Y-73006190D01*
X120252202Y-73006190D01*
X120299821Y-72982380D01*
X120323630Y-72958571D01*
X120347440Y-72910952D01*
X120347440Y-72863333D01*
X120323630Y-72815714D01*
X120299821Y-72791904D01*
X120252202Y-72768095D01*
X120156964Y-72744285D01*
X120109345Y-72720476D01*
X120085535Y-72696666D01*
X120061726Y-72649047D01*
X120061726Y-72601428D01*
X120085535Y-72553809D01*
X120109345Y-72530000D01*
X120156964Y-72506190D01*
X120276011Y-72506190D01*
X120347440Y-72530000D01*
X120561726Y-73006190D02*
X120561726Y-72506190D01*
X118966488Y-75607380D02*
X119037916Y-75631190D01*
X119156964Y-75631190D01*
X119204583Y-75607380D01*
X119228392Y-75583571D01*
X119252202Y-75535952D01*
X119252202Y-75488333D01*
X119228392Y-75440714D01*
X119204583Y-75416904D01*
X119156964Y-75393095D01*
X119061726Y-75369285D01*
X119014107Y-75345476D01*
X118990297Y-75321666D01*
X118966488Y-75274047D01*
X118966488Y-75226428D01*
X118990297Y-75178809D01*
X119014107Y-75155000D01*
X119061726Y-75131190D01*
X119180773Y-75131190D01*
X119252202Y-75155000D01*
X119752202Y-75583571D02*
X119728392Y-75607380D01*
X119656964Y-75631190D01*
X119609345Y-75631190D01*
X119537916Y-75607380D01*
X119490297Y-75559761D01*
X119466488Y-75512142D01*
X119442678Y-75416904D01*
X119442678Y-75345476D01*
X119466488Y-75250238D01*
X119490297Y-75202619D01*
X119537916Y-75155000D01*
X119609345Y-75131190D01*
X119656964Y-75131190D01*
X119728392Y-75155000D01*
X119752202Y-75178809D01*
X120204583Y-75631190D02*
X119966488Y-75631190D01*
X119966488Y-75131190D01*
X120371250Y-75631190D02*
X120371250Y-75131190D01*
X120656964Y-75631190D02*
X120442678Y-75345476D01*
X120656964Y-75131190D02*
X120371250Y-75416904D01*
X106284761Y-116188571D02*
X106260952Y-116212380D01*
X106189523Y-116236190D01*
X106141904Y-116236190D01*
X106070476Y-116212380D01*
X106022857Y-116164761D01*
X105999047Y-116117142D01*
X105975238Y-116021904D01*
X105975238Y-115950476D01*
X105999047Y-115855238D01*
X106022857Y-115807619D01*
X106070476Y-115760000D01*
X106141904Y-115736190D01*
X106189523Y-115736190D01*
X106260952Y-115760000D01*
X106284761Y-115783809D01*
X106570476Y-116236190D02*
X106522857Y-116212380D01*
X106499047Y-116188571D01*
X106475238Y-116140952D01*
X106475238Y-115998095D01*
X106499047Y-115950476D01*
X106522857Y-115926666D01*
X106570476Y-115902857D01*
X106641904Y-115902857D01*
X106689523Y-115926666D01*
X106713333Y-115950476D01*
X106737142Y-115998095D01*
X106737142Y-116140952D01*
X106713333Y-116188571D01*
X106689523Y-116212380D01*
X106641904Y-116236190D01*
X106570476Y-116236190D01*
X106951428Y-115902857D02*
X106951428Y-116402857D01*
X106951428Y-115926666D02*
X106999047Y-115902857D01*
X107094285Y-115902857D01*
X107141904Y-115926666D01*
X107165714Y-115950476D01*
X107189523Y-115998095D01*
X107189523Y-116140952D01*
X107165714Y-116188571D01*
X107141904Y-116212380D01*
X107094285Y-116236190D01*
X106999047Y-116236190D01*
X106951428Y-116212380D01*
X107356190Y-115902857D02*
X107475238Y-116236190D01*
X107594285Y-115902857D02*
X107475238Y-116236190D01*
X107427619Y-116355238D01*
X107403809Y-116379047D01*
X107356190Y-116402857D01*
X107784761Y-116236190D02*
X107784761Y-115902857D01*
X107784761Y-115998095D02*
X107808571Y-115950476D01*
X107832380Y-115926666D01*
X107880000Y-115902857D01*
X107927619Y-115902857D01*
X108094285Y-116236190D02*
X108094285Y-115902857D01*
X108094285Y-115736190D02*
X108070476Y-115760000D01*
X108094285Y-115783809D01*
X108118095Y-115760000D01*
X108094285Y-115736190D01*
X108094285Y-115783809D01*
X108546666Y-115902857D02*
X108546666Y-116307619D01*
X108522857Y-116355238D01*
X108499047Y-116379047D01*
X108451428Y-116402857D01*
X108380000Y-116402857D01*
X108332380Y-116379047D01*
X108546666Y-116212380D02*
X108499047Y-116236190D01*
X108403809Y-116236190D01*
X108356190Y-116212380D01*
X108332380Y-116188571D01*
X108308571Y-116140952D01*
X108308571Y-115998095D01*
X108332380Y-115950476D01*
X108356190Y-115926666D01*
X108403809Y-115902857D01*
X108499047Y-115902857D01*
X108546666Y-115926666D01*
X108784761Y-116236190D02*
X108784761Y-115736190D01*
X108999047Y-116236190D02*
X108999047Y-115974285D01*
X108975238Y-115926666D01*
X108927619Y-115902857D01*
X108856190Y-115902857D01*
X108808571Y-115926666D01*
X108784761Y-115950476D01*
X109165714Y-115902857D02*
X109356190Y-115902857D01*
X109237142Y-115736190D02*
X109237142Y-116164761D01*
X109260952Y-116212380D01*
X109308571Y-116236190D01*
X109356190Y-116236190D01*
X109880000Y-115783809D02*
X109903809Y-115760000D01*
X109951428Y-115736190D01*
X110070476Y-115736190D01*
X110118095Y-115760000D01*
X110141904Y-115783809D01*
X110165714Y-115831428D01*
X110165714Y-115879047D01*
X110141904Y-115950476D01*
X109856190Y-116236190D01*
X110165714Y-116236190D01*
X110475238Y-115736190D02*
X110522857Y-115736190D01*
X110570476Y-115760000D01*
X110594285Y-115783809D01*
X110618095Y-115831428D01*
X110641904Y-115926666D01*
X110641904Y-116045714D01*
X110618095Y-116140952D01*
X110594285Y-116188571D01*
X110570476Y-116212380D01*
X110522857Y-116236190D01*
X110475238Y-116236190D01*
X110427619Y-116212380D01*
X110403809Y-116188571D01*
X110380000Y-116140952D01*
X110356190Y-116045714D01*
X110356190Y-115926666D01*
X110380000Y-115831428D01*
X110403809Y-115783809D01*
X110427619Y-115760000D01*
X110475238Y-115736190D01*
X111118095Y-116236190D02*
X110832380Y-116236190D01*
X110975238Y-116236190D02*
X110975238Y-115736190D01*
X110927619Y-115807619D01*
X110880000Y-115855238D01*
X110832380Y-115879047D01*
X111356190Y-116236190D02*
X111451428Y-116236190D01*
X111499047Y-116212380D01*
X111522857Y-116188571D01*
X111570476Y-116117142D01*
X111594285Y-116021904D01*
X111594285Y-115831428D01*
X111570476Y-115783809D01*
X111546666Y-115760000D01*
X111499047Y-115736190D01*
X111403809Y-115736190D01*
X111356190Y-115760000D01*
X111332380Y-115783809D01*
X111308571Y-115831428D01*
X111308571Y-115950476D01*
X111332380Y-115998095D01*
X111356190Y-116021904D01*
X111403809Y-116045714D01*
X111499047Y-116045714D01*
X111546666Y-116021904D01*
X111570476Y-115998095D01*
X111594285Y-115950476D01*
X112165714Y-116212380D02*
X112237142Y-116236190D01*
X112356190Y-116236190D01*
X112403809Y-116212380D01*
X112427619Y-116188571D01*
X112451428Y-116140952D01*
X112451428Y-116093333D01*
X112427619Y-116045714D01*
X112403809Y-116021904D01*
X112356190Y-115998095D01*
X112260952Y-115974285D01*
X112213333Y-115950476D01*
X112189523Y-115926666D01*
X112165714Y-115879047D01*
X112165714Y-115831428D01*
X112189523Y-115783809D01*
X112213333Y-115760000D01*
X112260952Y-115736190D01*
X112380000Y-115736190D01*
X112451428Y-115760000D01*
X112594285Y-115902857D02*
X112784761Y-115902857D01*
X112665714Y-115736190D02*
X112665714Y-116164761D01*
X112689523Y-116212380D01*
X112737142Y-116236190D01*
X112784761Y-116236190D01*
X113165714Y-115902857D02*
X113165714Y-116236190D01*
X112951428Y-115902857D02*
X112951428Y-116164761D01*
X112975238Y-116212380D01*
X113022857Y-116236190D01*
X113094285Y-116236190D01*
X113141904Y-116212380D01*
X113165714Y-116188571D01*
X113618095Y-116236190D02*
X113618095Y-115736190D01*
X113618095Y-116212380D02*
X113570476Y-116236190D01*
X113475238Y-116236190D01*
X113427619Y-116212380D01*
X113403809Y-116188571D01*
X113380000Y-116140952D01*
X113380000Y-115998095D01*
X113403809Y-115950476D01*
X113427619Y-115926666D01*
X113475238Y-115902857D01*
X113570476Y-115902857D01*
X113618095Y-115926666D01*
X113856190Y-116236190D02*
X113856190Y-115902857D01*
X113856190Y-115736190D02*
X113832380Y-115760000D01*
X113856190Y-115783809D01*
X113880000Y-115760000D01*
X113856190Y-115736190D01*
X113856190Y-115783809D01*
X114165714Y-116236190D02*
X114118095Y-116212380D01*
X114094285Y-116188571D01*
X114070476Y-116140952D01*
X114070476Y-115998095D01*
X114094285Y-115950476D01*
X114118095Y-115926666D01*
X114165714Y-115902857D01*
X114237142Y-115902857D01*
X114284761Y-115926666D01*
X114308571Y-115950476D01*
X114332380Y-115998095D01*
X114332380Y-116140952D01*
X114308571Y-116188571D01*
X114284761Y-116212380D01*
X114237142Y-116236190D01*
X114165714Y-116236190D01*
X114546666Y-116236190D02*
X114546666Y-115736190D01*
X114737142Y-115736190D01*
X114784761Y-115760000D01*
X114808571Y-115783809D01*
X114832380Y-115831428D01*
X114832380Y-115902857D01*
X114808571Y-115950476D01*
X114784761Y-115974285D01*
X114737142Y-115998095D01*
X114546666Y-115998095D01*
X115046666Y-116236190D02*
X115046666Y-115902857D01*
X115046666Y-115736190D02*
X115022857Y-115760000D01*
X115046666Y-115783809D01*
X115070476Y-115760000D01*
X115046666Y-115736190D01*
X115046666Y-115783809D01*
X115475238Y-116212380D02*
X115427619Y-116236190D01*
X115332380Y-116236190D01*
X115284761Y-116212380D01*
X115260952Y-116164761D01*
X115260952Y-115974285D01*
X115284761Y-115926666D01*
X115332380Y-115902857D01*
X115427619Y-115902857D01*
X115475238Y-115926666D01*
X115499047Y-115974285D01*
X115499047Y-116021904D01*
X115260952Y-116069523D01*
X115641904Y-115902857D02*
X115832380Y-115902857D01*
X115713333Y-115736190D02*
X115713333Y-116164761D01*
X115737142Y-116212380D01*
X115784761Y-116236190D01*
X115832380Y-116236190D01*
X116189523Y-116212380D02*
X116141904Y-116236190D01*
X116046666Y-116236190D01*
X115999047Y-116212380D01*
X115975238Y-116164761D01*
X115975238Y-115974285D01*
X115999047Y-115926666D01*
X116046666Y-115902857D01*
X116141904Y-115902857D01*
X116189523Y-115926666D01*
X116213333Y-115974285D01*
X116213333Y-116021904D01*
X115975238Y-116069523D01*
X116427619Y-116236190D02*
X116427619Y-115902857D01*
X116427619Y-115998095D02*
X116451428Y-115950476D01*
X116475238Y-115926666D01*
X116522857Y-115902857D01*
X116570476Y-115902857D01*
X116713333Y-116212380D02*
X116760952Y-116236190D01*
X116856190Y-116236190D01*
X116903809Y-116212380D01*
X116927619Y-116164761D01*
X116927619Y-116140952D01*
X116903809Y-116093333D01*
X116856190Y-116069523D01*
X116784761Y-116069523D01*
X116737142Y-116045714D01*
X116713333Y-115998095D01*
X116713333Y-115974285D01*
X116737142Y-115926666D01*
X116784761Y-115902857D01*
X116856190Y-115902857D01*
X116903809Y-115926666D01*
X117570476Y-116164761D02*
X117451428Y-116021904D01*
X117356190Y-116164761D02*
X117356190Y-115831428D01*
X117499047Y-115831428D01*
X117546666Y-115855238D01*
X117570476Y-115902857D01*
X117570476Y-115950476D01*
X117546666Y-115998095D01*
X117499047Y-116021904D01*
X117356190Y-116021904D01*
X117451428Y-115664761D02*
X117332380Y-115688571D01*
X117213333Y-115760000D01*
X117141904Y-115879047D01*
X117118095Y-115998095D01*
X117141904Y-116117142D01*
X117213333Y-116236190D01*
X117332380Y-116307619D01*
X117451428Y-116331428D01*
X117570476Y-116307619D01*
X117689523Y-116236190D01*
X117760952Y-116117142D01*
X117784761Y-115998095D01*
X117760952Y-115879047D01*
X117689523Y-115760000D01*
X117570476Y-115688571D01*
X117451428Y-115664761D01*
D12*
X127780000Y-63340000D02*
X126450000Y-63340000D01*
X127780000Y-62010000D02*
X127780000Y-63340000D01*
X127780000Y-60740000D02*
X125120000Y-60740000D01*
X125120000Y-60740000D02*
X125120000Y-55600000D01*
X127780000Y-60740000D02*
X127780000Y-55600000D01*
X127780000Y-55600000D02*
X125120000Y-55600000D01*
X112470000Y-47940000D02*
X113800000Y-47940000D01*
X113800000Y-47940000D02*
X113800000Y-49270000D01*
X113800000Y-50540000D02*
X113800000Y-63300000D01*
X111140000Y-63300000D02*
X113800000Y-63300000D01*
X111140000Y-50540000D02*
X111140000Y-63300000D01*
X111140000Y-50540000D02*
X113800000Y-50540000D01*
D13*
X68421000Y-112624000D02*
X73120000Y-105639000D01*
X77819000Y-112624000D02*
X68421000Y-112624000D01*
X73120000Y-105639000D02*
X77819000Y-112624000D01*
X72622160Y-112029640D02*
X72520560Y-111130480D01*
X72220840Y-110030660D02*
X73821040Y-108930840D01*
X73020940Y-107030920D02*
X72220840Y-110030660D01*
X72622160Y-112029640D02*
X73221600Y-111331140D01*
X72622160Y-112029640D02*
X73821040Y-108930840D01*
D12*
X124067936Y-98150000D02*
X125272064Y-98150000D01*
X124067936Y-96330000D02*
X125272064Y-96330000D01*
X124057936Y-98630000D02*
X125262064Y-98630000D01*
X124057936Y-100450000D02*
X125262064Y-100450000D01*
X75489000Y-71140000D02*
X74231000Y-71140000D01*
X75489000Y-69300000D02*
X74231000Y-69300000D01*
X127240000Y-68700000D02*
G75*
G03X127240000Y-68700000I-2620000J0D01*
G01*
X127200000Y-68700000D02*
X122040000Y-68700000D01*
X127200000Y-68740000D02*
X122040000Y-68740000D01*
X127199000Y-68780000D02*
X122041000Y-68780000D01*
X127198000Y-68820000D02*
X122042000Y-68820000D01*
X127196000Y-68860000D02*
X122044000Y-68860000D01*
X127193000Y-68900000D02*
X122047000Y-68900000D01*
X127189000Y-68940000D02*
X125660000Y-68940000D01*
X123580000Y-68940000D02*
X122051000Y-68940000D01*
X127185000Y-68980000D02*
X125660000Y-68980000D01*
X123580000Y-68980000D02*
X122055000Y-68980000D01*
X127181000Y-69020000D02*
X125660000Y-69020000D01*
X123580000Y-69020000D02*
X122059000Y-69020000D01*
X127176000Y-69060000D02*
X125660000Y-69060000D01*
X123580000Y-69060000D02*
X122064000Y-69060000D01*
X127170000Y-69100000D02*
X125660000Y-69100000D01*
X123580000Y-69100000D02*
X122070000Y-69100000D01*
X127163000Y-69140000D02*
X125660000Y-69140000D01*
X123580000Y-69140000D02*
X122077000Y-69140000D01*
X127156000Y-69180000D02*
X125660000Y-69180000D01*
X123580000Y-69180000D02*
X122084000Y-69180000D01*
X127148000Y-69220000D02*
X125660000Y-69220000D01*
X123580000Y-69220000D02*
X122092000Y-69220000D01*
X127140000Y-69260000D02*
X125660000Y-69260000D01*
X123580000Y-69260000D02*
X122100000Y-69260000D01*
X127131000Y-69300000D02*
X125660000Y-69300000D01*
X123580000Y-69300000D02*
X122109000Y-69300000D01*
X127121000Y-69340000D02*
X125660000Y-69340000D01*
X123580000Y-69340000D02*
X122119000Y-69340000D01*
X127111000Y-69380000D02*
X125660000Y-69380000D01*
X123580000Y-69380000D02*
X122129000Y-69380000D01*
X127100000Y-69421000D02*
X125660000Y-69421000D01*
X123580000Y-69421000D02*
X122140000Y-69421000D01*
X127088000Y-69461000D02*
X125660000Y-69461000D01*
X123580000Y-69461000D02*
X122152000Y-69461000D01*
X127075000Y-69501000D02*
X125660000Y-69501000D01*
X123580000Y-69501000D02*
X122165000Y-69501000D01*
X127062000Y-69541000D02*
X125660000Y-69541000D01*
X123580000Y-69541000D02*
X122178000Y-69541000D01*
X127048000Y-69581000D02*
X125660000Y-69581000D01*
X123580000Y-69581000D02*
X122192000Y-69581000D01*
X127034000Y-69621000D02*
X125660000Y-69621000D01*
X123580000Y-69621000D02*
X122206000Y-69621000D01*
X127018000Y-69661000D02*
X125660000Y-69661000D01*
X123580000Y-69661000D02*
X122222000Y-69661000D01*
X127002000Y-69701000D02*
X125660000Y-69701000D01*
X123580000Y-69701000D02*
X122238000Y-69701000D01*
X126985000Y-69741000D02*
X125660000Y-69741000D01*
X123580000Y-69741000D02*
X122255000Y-69741000D01*
X126968000Y-69781000D02*
X125660000Y-69781000D01*
X123580000Y-69781000D02*
X122272000Y-69781000D01*
X126949000Y-69821000D02*
X125660000Y-69821000D01*
X123580000Y-69821000D02*
X122291000Y-69821000D01*
X126930000Y-69861000D02*
X125660000Y-69861000D01*
X123580000Y-69861000D02*
X122310000Y-69861000D01*
X126910000Y-69901000D02*
X125660000Y-69901000D01*
X123580000Y-69901000D02*
X122330000Y-69901000D01*
X126888000Y-69941000D02*
X125660000Y-69941000D01*
X123580000Y-69941000D02*
X122352000Y-69941000D01*
X126867000Y-69981000D02*
X125660000Y-69981000D01*
X123580000Y-69981000D02*
X122373000Y-69981000D01*
X126844000Y-70021000D02*
X125660000Y-70021000D01*
X123580000Y-70021000D02*
X122396000Y-70021000D01*
X126820000Y-70061000D02*
X125660000Y-70061000D01*
X123580000Y-70061000D02*
X122420000Y-70061000D01*
X126795000Y-70101000D02*
X125660000Y-70101000D01*
X123580000Y-70101000D02*
X122445000Y-70101000D01*
X126769000Y-70141000D02*
X125660000Y-70141000D01*
X123580000Y-70141000D02*
X122471000Y-70141000D01*
X126742000Y-70181000D02*
X125660000Y-70181000D01*
X123580000Y-70181000D02*
X122498000Y-70181000D01*
X126715000Y-70221000D02*
X125660000Y-70221000D01*
X123580000Y-70221000D02*
X122525000Y-70221000D01*
X126685000Y-70261000D02*
X125660000Y-70261000D01*
X123580000Y-70261000D02*
X122555000Y-70261000D01*
X126655000Y-70301000D02*
X125660000Y-70301000D01*
X123580000Y-70301000D02*
X122585000Y-70301000D01*
X126624000Y-70341000D02*
X125660000Y-70341000D01*
X123580000Y-70341000D02*
X122616000Y-70341000D01*
X126591000Y-70381000D02*
X125660000Y-70381000D01*
X123580000Y-70381000D02*
X122649000Y-70381000D01*
X126557000Y-70421000D02*
X125660000Y-70421000D01*
X123580000Y-70421000D02*
X122683000Y-70421000D01*
X126521000Y-70461000D02*
X125660000Y-70461000D01*
X123580000Y-70461000D02*
X122719000Y-70461000D01*
X126484000Y-70501000D02*
X125660000Y-70501000D01*
X123580000Y-70501000D02*
X122756000Y-70501000D01*
X126446000Y-70541000D02*
X125660000Y-70541000D01*
X123580000Y-70541000D02*
X122794000Y-70541000D01*
X126405000Y-70581000D02*
X125660000Y-70581000D01*
X123580000Y-70581000D02*
X122835000Y-70581000D01*
X126363000Y-70621000D02*
X125660000Y-70621000D01*
X123580000Y-70621000D02*
X122877000Y-70621000D01*
X126319000Y-70661000D02*
X125660000Y-70661000D01*
X123580000Y-70661000D02*
X122921000Y-70661000D01*
X126273000Y-70701000D02*
X125660000Y-70701000D01*
X123580000Y-70701000D02*
X122967000Y-70701000D01*
X126225000Y-70741000D02*
X125660000Y-70741000D01*
X123580000Y-70741000D02*
X123015000Y-70741000D01*
X126174000Y-70781000D02*
X125660000Y-70781000D01*
X123580000Y-70781000D02*
X123066000Y-70781000D01*
X126120000Y-70821000D02*
X125660000Y-70821000D01*
X123580000Y-70821000D02*
X123120000Y-70821000D01*
X126063000Y-70861000D02*
X125660000Y-70861000D01*
X123580000Y-70861000D02*
X123177000Y-70861000D01*
X126003000Y-70901000D02*
X125660000Y-70901000D01*
X123580000Y-70901000D02*
X123237000Y-70901000D01*
X125939000Y-70941000D02*
X125660000Y-70941000D01*
X123580000Y-70941000D02*
X123301000Y-70941000D01*
X125871000Y-70981000D02*
X125660000Y-70981000D01*
X123580000Y-70981000D02*
X123369000Y-70981000D01*
X125798000Y-71021000D02*
X123442000Y-71021000D01*
X125718000Y-71061000D02*
X123522000Y-71061000D01*
X125631000Y-71101000D02*
X123609000Y-71101000D01*
X125535000Y-71141000D02*
X123705000Y-71141000D01*
X125425000Y-71181000D02*
X123815000Y-71181000D01*
X125297000Y-71221000D02*
X123943000Y-71221000D01*
X125138000Y-71261000D02*
X124102000Y-71261000D01*
X124904000Y-71301000D02*
X124336000Y-71301000D01*
X126095000Y-65895225D02*
X126095000Y-66395225D01*
X126345000Y-66145225D02*
X125845000Y-66145225D01*
X66530000Y-76050000D02*
X69190000Y-76050000D01*
X66530000Y-50590000D02*
X66530000Y-76050000D01*
X69190000Y-50590000D02*
X69190000Y-76050000D01*
X66530000Y-50590000D02*
X69190000Y-50590000D01*
X66530000Y-49320000D02*
X66530000Y-47990000D01*
X66530000Y-47990000D02*
X67860000Y-47990000D01*
X115690000Y-47990000D02*
X117020000Y-47990000D01*
X115690000Y-49320000D02*
X115690000Y-47990000D01*
X115690000Y-50590000D02*
X118350000Y-50590000D01*
X118350000Y-50590000D02*
X118350000Y-76050000D01*
X115690000Y-50590000D02*
X115690000Y-76050000D01*
X115690000Y-76050000D02*
X118350000Y-76050000D01*
X113240000Y-89140000D02*
X113240000Y-87810000D01*
X114570000Y-89140000D02*
X113240000Y-89140000D01*
X115840000Y-89140000D02*
X115840000Y-86480000D01*
X115840000Y-86480000D02*
X118440000Y-86480000D01*
X115840000Y-89140000D02*
X118440000Y-89140000D01*
X118440000Y-89140000D02*
X118440000Y-86480000D01*
X120250000Y-89110000D02*
X122910000Y-89110000D01*
X120250000Y-86510000D02*
X120250000Y-89110000D01*
X122910000Y-86510000D02*
X122910000Y-89110000D01*
X120250000Y-86510000D02*
X122910000Y-86510000D01*
X120250000Y-85240000D02*
X120250000Y-83910000D01*
X120250000Y-83910000D02*
X121580000Y-83910000D01*
X70630000Y-83580000D02*
X74230000Y-83580000D01*
X70591522Y-83568478D02*
G75*
G02X72430000Y-79130000I1838478J1838478D01*
G01*
X74268478Y-83568478D02*
G75*
G03X72430000Y-79130000I-1838478J1838478D01*
G01*
X75272064Y-57150000D02*
X74067936Y-57150000D01*
X75272064Y-55330000D02*
X74067936Y-55330000D01*
X75272064Y-61130000D02*
X74067936Y-61130000D01*
X75272064Y-59310000D02*
X74067936Y-59310000D01*
X98702064Y-63290000D02*
X97497936Y-63290000D01*
X98702064Y-65110000D02*
X97497936Y-65110000D01*
X122600000Y-57007936D02*
X122600000Y-58212064D01*
X124420000Y-57007936D02*
X124420000Y-58212064D01*
X67852064Y-81380000D02*
X66647936Y-81380000D01*
X67852064Y-79560000D02*
X66647936Y-79560000D01*
X106200000Y-52360000D02*
X100080000Y-52360000D01*
X100080000Y-52360000D02*
X100080000Y-48740000D01*
X100080000Y-48740000D02*
X106200000Y-48740000D01*
X106200000Y-48740000D02*
X106200000Y-52360000D01*
X106400000Y-68720000D02*
X106400000Y-72340000D01*
X100280000Y-68720000D02*
X106400000Y-68720000D01*
X100280000Y-72340000D02*
X100280000Y-68720000D01*
X106400000Y-72340000D02*
X100280000Y-72340000D01*
X115900000Y-96140000D02*
X115900000Y-97400000D01*
X115900000Y-102960000D02*
X115900000Y-101700000D01*
X119660000Y-96140000D02*
X115900000Y-96140000D01*
X121910000Y-102960000D02*
X115900000Y-102960000D01*
D14*
X78374000Y-71089000D02*
X78374000Y-71851000D01*
X78374000Y-71851000D02*
X94376000Y-71851000D01*
X94376000Y-71851000D02*
X94376000Y-71089000D01*
D11*
X123616190Y-63996666D02*
X123116190Y-63996666D01*
X123616190Y-63710952D01*
X123116190Y-63710952D01*
X123354285Y-63472857D02*
X123354285Y-63306190D01*
X123616190Y-63234761D02*
X123616190Y-63472857D01*
X123116190Y-63472857D01*
X123116190Y-63234761D01*
X123116190Y-62925238D02*
X123116190Y-62830000D01*
X123140000Y-62782380D01*
X123187619Y-62734761D01*
X123282857Y-62710952D01*
X123449523Y-62710952D01*
X123544761Y-62734761D01*
X123592380Y-62782380D01*
X123616190Y-62830000D01*
X123616190Y-62925238D01*
X123592380Y-62972857D01*
X123544761Y-63020476D01*
X123449523Y-63044285D01*
X123282857Y-63044285D01*
X123187619Y-63020476D01*
X123140000Y-62972857D01*
X123116190Y-62925238D01*
X123616190Y-62496666D02*
X123116190Y-62496666D01*
X123116190Y-62306190D01*
X123140000Y-62258571D01*
X123163809Y-62234761D01*
X123211428Y-62210952D01*
X123282857Y-62210952D01*
X123330476Y-62234761D01*
X123354285Y-62258571D01*
X123378095Y-62306190D01*
X123378095Y-62496666D01*
X123616190Y-61996666D02*
X123116190Y-61996666D01*
X123116190Y-61806190D02*
X123616190Y-61472857D01*
X123116190Y-61472857D02*
X123616190Y-61806190D01*
X123354285Y-61282380D02*
X123354285Y-61115714D01*
X123616190Y-61044285D02*
X123616190Y-61282380D01*
X123116190Y-61282380D01*
X123116190Y-61044285D01*
X123616190Y-60591904D02*
X123616190Y-60830000D01*
X123116190Y-60830000D01*
X111960587Y-64264285D02*
X111793921Y-64264285D01*
X111761183Y-64526190D02*
X111823683Y-64026190D01*
X112061778Y-64026190D01*
X112180825Y-64026190D02*
X112466540Y-64026190D01*
X112261183Y-64526190D02*
X112323683Y-64026190D01*
X112570706Y-64526190D02*
X112633206Y-64026190D01*
X112752254Y-64026190D01*
X112820706Y-64050000D01*
X112862373Y-64097619D01*
X112880230Y-64145238D01*
X112892135Y-64240476D01*
X112883206Y-64311904D01*
X112847492Y-64407142D01*
X112817730Y-64454761D01*
X112764159Y-64502380D01*
X112689754Y-64526190D01*
X112570706Y-64526190D01*
X113070706Y-64526190D02*
X113133206Y-64026190D01*
X68334238Y-114128190D02*
X68453285Y-114628190D01*
X68548523Y-114271047D01*
X68643761Y-114628190D01*
X68762809Y-114128190D01*
X68929476Y-114485333D02*
X69167571Y-114485333D01*
X68881857Y-114628190D02*
X69048523Y-114128190D01*
X69215190Y-114628190D01*
X69667571Y-114628190D02*
X69500904Y-114390095D01*
X69381857Y-114628190D02*
X69381857Y-114128190D01*
X69572333Y-114128190D01*
X69619952Y-114152000D01*
X69643761Y-114175809D01*
X69667571Y-114223428D01*
X69667571Y-114294857D01*
X69643761Y-114342476D01*
X69619952Y-114366285D01*
X69572333Y-114390095D01*
X69381857Y-114390095D01*
X69881857Y-114628190D02*
X69881857Y-114128190D01*
X70167571Y-114628190D01*
X70167571Y-114128190D01*
X70405666Y-114628190D02*
X70405666Y-114128190D01*
X70643761Y-114628190D02*
X70643761Y-114128190D01*
X70929476Y-114628190D01*
X70929476Y-114128190D01*
X71429476Y-114152000D02*
X71381857Y-114128190D01*
X71310428Y-114128190D01*
X71239000Y-114152000D01*
X71191380Y-114199619D01*
X71167571Y-114247238D01*
X71143761Y-114342476D01*
X71143761Y-114413904D01*
X71167571Y-114509142D01*
X71191380Y-114556761D01*
X71239000Y-114604380D01*
X71310428Y-114628190D01*
X71358047Y-114628190D01*
X71429476Y-114604380D01*
X71453285Y-114580571D01*
X71453285Y-114413904D01*
X71358047Y-114413904D01*
X72048523Y-114628190D02*
X72048523Y-114128190D01*
X72048523Y-114366285D02*
X72334238Y-114366285D01*
X72334238Y-114628190D02*
X72334238Y-114128190D01*
X72572333Y-114628190D02*
X72572333Y-114128190D01*
X73072333Y-114152000D02*
X73024714Y-114128190D01*
X72953285Y-114128190D01*
X72881857Y-114152000D01*
X72834238Y-114199619D01*
X72810428Y-114247238D01*
X72786619Y-114342476D01*
X72786619Y-114413904D01*
X72810428Y-114509142D01*
X72834238Y-114556761D01*
X72881857Y-114604380D01*
X72953285Y-114628190D01*
X73000904Y-114628190D01*
X73072333Y-114604380D01*
X73096142Y-114580571D01*
X73096142Y-114413904D01*
X73000904Y-114413904D01*
X73310428Y-114628190D02*
X73310428Y-114128190D01*
X73310428Y-114366285D02*
X73596142Y-114366285D01*
X73596142Y-114628190D02*
X73596142Y-114128190D01*
X74143761Y-114128190D02*
X74310428Y-114628190D01*
X74477095Y-114128190D01*
X74739000Y-114128190D02*
X74834238Y-114128190D01*
X74881857Y-114152000D01*
X74929476Y-114199619D01*
X74953285Y-114294857D01*
X74953285Y-114461523D01*
X74929476Y-114556761D01*
X74881857Y-114604380D01*
X74834238Y-114628190D01*
X74739000Y-114628190D01*
X74691380Y-114604380D01*
X74643761Y-114556761D01*
X74619952Y-114461523D01*
X74619952Y-114294857D01*
X74643761Y-114199619D01*
X74691380Y-114152000D01*
X74739000Y-114128190D01*
X75405666Y-114628190D02*
X75167571Y-114628190D01*
X75167571Y-114128190D01*
X75500904Y-114128190D02*
X75786619Y-114128190D01*
X75643761Y-114628190D02*
X75643761Y-114128190D01*
X75929476Y-114485333D02*
X76167571Y-114485333D01*
X75881857Y-114628190D02*
X76048523Y-114128190D01*
X76215190Y-114628190D01*
X76643761Y-114152000D02*
X76596142Y-114128190D01*
X76524714Y-114128190D01*
X76453285Y-114152000D01*
X76405666Y-114199619D01*
X76381857Y-114247238D01*
X76358047Y-114342476D01*
X76358047Y-114413904D01*
X76381857Y-114509142D01*
X76405666Y-114556761D01*
X76453285Y-114604380D01*
X76524714Y-114628190D01*
X76572333Y-114628190D01*
X76643761Y-114604380D01*
X76667571Y-114580571D01*
X76667571Y-114413904D01*
X76572333Y-114413904D01*
X76881857Y-114366285D02*
X77048523Y-114366285D01*
X77119952Y-114628190D02*
X76881857Y-114628190D01*
X76881857Y-114128190D01*
X77119952Y-114128190D01*
D15*
X124503333Y-95777142D02*
X124455714Y-95824761D01*
X124312857Y-95872380D01*
X124217619Y-95872380D01*
X124074761Y-95824761D01*
X123979523Y-95729523D01*
X123931904Y-95634285D01*
X123884285Y-95443809D01*
X123884285Y-95300952D01*
X123931904Y-95110476D01*
X123979523Y-95015238D01*
X124074761Y-94920000D01*
X124217619Y-94872380D01*
X124312857Y-94872380D01*
X124455714Y-94920000D01*
X124503333Y-94967619D01*
X125455714Y-95872380D02*
X124884285Y-95872380D01*
X125170000Y-95872380D02*
X125170000Y-94872380D01*
X125074761Y-95015238D01*
X124979523Y-95110476D01*
X124884285Y-95158095D01*
X124503333Y-101977142D02*
X124455714Y-102024761D01*
X124312857Y-102072380D01*
X124217619Y-102072380D01*
X124074761Y-102024761D01*
X123979523Y-101929523D01*
X123931904Y-101834285D01*
X123884285Y-101643809D01*
X123884285Y-101500952D01*
X123931904Y-101310476D01*
X123979523Y-101215238D01*
X124074761Y-101120000D01*
X124217619Y-101072380D01*
X124312857Y-101072380D01*
X124455714Y-101120000D01*
X124503333Y-101167619D01*
X124884285Y-101167619D02*
X124931904Y-101120000D01*
X125027142Y-101072380D01*
X125265238Y-101072380D01*
X125360476Y-101120000D01*
X125408095Y-101167619D01*
X125455714Y-101262857D01*
X125455714Y-101358095D01*
X125408095Y-101500952D01*
X124836666Y-102072380D01*
X125455714Y-102072380D01*
X74693333Y-72627142D02*
X74645714Y-72674761D01*
X74502857Y-72722380D01*
X74407619Y-72722380D01*
X74264761Y-72674761D01*
X74169523Y-72579523D01*
X74121904Y-72484285D01*
X74074285Y-72293809D01*
X74074285Y-72150952D01*
X74121904Y-71960476D01*
X74169523Y-71865238D01*
X74264761Y-71770000D01*
X74407619Y-71722380D01*
X74502857Y-71722380D01*
X74645714Y-71770000D01*
X74693333Y-71817619D01*
X75026666Y-71722380D02*
X75645714Y-71722380D01*
X75312380Y-72103333D01*
X75455238Y-72103333D01*
X75550476Y-72150952D01*
X75598095Y-72198571D01*
X75645714Y-72293809D01*
X75645714Y-72531904D01*
X75598095Y-72627142D01*
X75550476Y-72674761D01*
X75455238Y-72722380D01*
X75169523Y-72722380D01*
X75074285Y-72674761D01*
X75026666Y-72627142D01*
X124423333Y-72827142D02*
X124375714Y-72874761D01*
X124232857Y-72922380D01*
X124137619Y-72922380D01*
X123994761Y-72874761D01*
X123899523Y-72779523D01*
X123851904Y-72684285D01*
X123804285Y-72493809D01*
X123804285Y-72350952D01*
X123851904Y-72160476D01*
X123899523Y-72065238D01*
X123994761Y-71970000D01*
X124137619Y-71922380D01*
X124232857Y-71922380D01*
X124375714Y-71970000D01*
X124423333Y-72017619D01*
X125280476Y-72255714D02*
X125280476Y-72922380D01*
X125042380Y-71874761D02*
X124804285Y-72589047D01*
X125423333Y-72589047D01*
D11*
X113610952Y-85156190D02*
X113920476Y-85156190D01*
X113753809Y-85346666D01*
X113825238Y-85346666D01*
X113872857Y-85370476D01*
X113896666Y-85394285D01*
X113920476Y-85441904D01*
X113920476Y-85560952D01*
X113896666Y-85608571D01*
X113872857Y-85632380D01*
X113825238Y-85656190D01*
X113682380Y-85656190D01*
X113634761Y-85632380D01*
X113610952Y-85608571D01*
X114134761Y-85608571D02*
X114158571Y-85632380D01*
X114134761Y-85656190D01*
X114110952Y-85632380D01*
X114134761Y-85608571D01*
X114134761Y-85656190D01*
X114325238Y-85156190D02*
X114634761Y-85156190D01*
X114468095Y-85346666D01*
X114539523Y-85346666D01*
X114587142Y-85370476D01*
X114610952Y-85394285D01*
X114634761Y-85441904D01*
X114634761Y-85560952D01*
X114610952Y-85608571D01*
X114587142Y-85632380D01*
X114539523Y-85656190D01*
X114396666Y-85656190D01*
X114349047Y-85632380D01*
X114325238Y-85608571D01*
X114777619Y-85156190D02*
X114944285Y-85656190D01*
X115110952Y-85156190D01*
X115777619Y-85822857D02*
X115777619Y-85108571D01*
X116777619Y-85180000D02*
X116730000Y-85156190D01*
X116658571Y-85156190D01*
X116587142Y-85180000D01*
X116539523Y-85227619D01*
X116515714Y-85275238D01*
X116491904Y-85370476D01*
X116491904Y-85441904D01*
X116515714Y-85537142D01*
X116539523Y-85584761D01*
X116587142Y-85632380D01*
X116658571Y-85656190D01*
X116706190Y-85656190D01*
X116777619Y-85632380D01*
X116801428Y-85608571D01*
X116801428Y-85441904D01*
X116706190Y-85441904D01*
X117015714Y-85656190D02*
X117015714Y-85156190D01*
X117301428Y-85656190D01*
X117301428Y-85156190D01*
X117539523Y-85656190D02*
X117539523Y-85156190D01*
X117658571Y-85156190D01*
X117730000Y-85180000D01*
X117777619Y-85227619D01*
X117801428Y-85275238D01*
X117825238Y-85370476D01*
X117825238Y-85441904D01*
X117801428Y-85537142D01*
X117777619Y-85584761D01*
X117730000Y-85632380D01*
X117658571Y-85656190D01*
X117539523Y-85656190D01*
X124233809Y-84295714D02*
X124233809Y-84057619D01*
X123995714Y-84033809D01*
X124019523Y-84057619D01*
X124043333Y-84105238D01*
X124043333Y-84224285D01*
X124019523Y-84271904D01*
X123995714Y-84295714D01*
X123948095Y-84319523D01*
X123829047Y-84319523D01*
X123781428Y-84295714D01*
X123757619Y-84271904D01*
X123733809Y-84224285D01*
X123733809Y-84105238D01*
X123757619Y-84057619D01*
X123781428Y-84033809D01*
X123781428Y-84533809D02*
X123757619Y-84557619D01*
X123733809Y-84533809D01*
X123757619Y-84510000D01*
X123781428Y-84533809D01*
X123733809Y-84533809D01*
X124233809Y-84867142D02*
X124233809Y-84914761D01*
X124210000Y-84962380D01*
X124186190Y-84986190D01*
X124138571Y-85010000D01*
X124043333Y-85033809D01*
X123924285Y-85033809D01*
X123829047Y-85010000D01*
X123781428Y-84986190D01*
X123757619Y-84962380D01*
X123733809Y-84914761D01*
X123733809Y-84867142D01*
X123757619Y-84819523D01*
X123781428Y-84795714D01*
X123829047Y-84771904D01*
X123924285Y-84748095D01*
X124043333Y-84748095D01*
X124138571Y-84771904D01*
X124186190Y-84795714D01*
X124210000Y-84819523D01*
X124233809Y-84867142D01*
X124233809Y-85176666D02*
X123733809Y-85343333D01*
X124233809Y-85510000D01*
X123567142Y-86557619D02*
X124281428Y-86557619D01*
X124210000Y-87938571D02*
X124233809Y-87890952D01*
X124233809Y-87819523D01*
X124210000Y-87748095D01*
X124162380Y-87700476D01*
X124114761Y-87676666D01*
X124019523Y-87652857D01*
X123948095Y-87652857D01*
X123852857Y-87676666D01*
X123805238Y-87700476D01*
X123757619Y-87748095D01*
X123733809Y-87819523D01*
X123733809Y-87867142D01*
X123757619Y-87938571D01*
X123781428Y-87962380D01*
X123948095Y-87962380D01*
X123948095Y-87867142D01*
X123733809Y-88176666D02*
X124233809Y-88176666D01*
X123733809Y-88462380D01*
X124233809Y-88462380D01*
X123733809Y-88700476D02*
X124233809Y-88700476D01*
X124233809Y-88819523D01*
X124210000Y-88890952D01*
X124162380Y-88938571D01*
X124114761Y-88962380D01*
X124019523Y-88986190D01*
X123948095Y-88986190D01*
X123852857Y-88962380D01*
X123805238Y-88938571D01*
X123757619Y-88890952D01*
X123733809Y-88819523D01*
X123733809Y-88700476D01*
D15*
X72334761Y-78717619D02*
X72239523Y-78670000D01*
X72144285Y-78574761D01*
X72001428Y-78431904D01*
X71906190Y-78384285D01*
X71810952Y-78384285D01*
X71858571Y-78622380D02*
X71763333Y-78574761D01*
X71668095Y-78479523D01*
X71620476Y-78289047D01*
X71620476Y-77955714D01*
X71668095Y-77765238D01*
X71763333Y-77670000D01*
X71858571Y-77622380D01*
X72049047Y-77622380D01*
X72144285Y-77670000D01*
X72239523Y-77765238D01*
X72287142Y-77955714D01*
X72287142Y-78289047D01*
X72239523Y-78479523D01*
X72144285Y-78574761D01*
X72049047Y-78622380D01*
X71858571Y-78622380D01*
X73239523Y-78622380D02*
X72668095Y-78622380D01*
X72953809Y-78622380D02*
X72953809Y-77622380D01*
X72858571Y-77765238D01*
X72763333Y-77860476D01*
X72668095Y-77908095D01*
X74503333Y-58512380D02*
X74170000Y-58036190D01*
X73931904Y-58512380D02*
X73931904Y-57512380D01*
X74312857Y-57512380D01*
X74408095Y-57560000D01*
X74455714Y-57607619D01*
X74503333Y-57702857D01*
X74503333Y-57845714D01*
X74455714Y-57940952D01*
X74408095Y-57988571D01*
X74312857Y-58036190D01*
X73931904Y-58036190D01*
X75455714Y-58512380D02*
X74884285Y-58512380D01*
X75170000Y-58512380D02*
X75170000Y-57512380D01*
X75074761Y-57655238D01*
X74979523Y-57750476D01*
X74884285Y-57798095D01*
X74503333Y-62492380D02*
X74170000Y-62016190D01*
X73931904Y-62492380D02*
X73931904Y-61492380D01*
X74312857Y-61492380D01*
X74408095Y-61540000D01*
X74455714Y-61587619D01*
X74503333Y-61682857D01*
X74503333Y-61825714D01*
X74455714Y-61920952D01*
X74408095Y-61968571D01*
X74312857Y-62016190D01*
X73931904Y-62016190D01*
X74884285Y-61587619D02*
X74931904Y-61540000D01*
X75027142Y-61492380D01*
X75265238Y-61492380D01*
X75360476Y-61540000D01*
X75408095Y-61587619D01*
X75455714Y-61682857D01*
X75455714Y-61778095D01*
X75408095Y-61920952D01*
X74836666Y-62492380D01*
X75455714Y-62492380D01*
X97933333Y-66472380D02*
X97600000Y-65996190D01*
X97361904Y-66472380D02*
X97361904Y-65472380D01*
X97742857Y-65472380D01*
X97838095Y-65520000D01*
X97885714Y-65567619D01*
X97933333Y-65662857D01*
X97933333Y-65805714D01*
X97885714Y-65900952D01*
X97838095Y-65948571D01*
X97742857Y-65996190D01*
X97361904Y-65996190D01*
X98266666Y-65472380D02*
X98885714Y-65472380D01*
X98552380Y-65853333D01*
X98695238Y-65853333D01*
X98790476Y-65900952D01*
X98838095Y-65948571D01*
X98885714Y-66043809D01*
X98885714Y-66281904D01*
X98838095Y-66377142D01*
X98790476Y-66424761D01*
X98695238Y-66472380D01*
X98409523Y-66472380D01*
X98314285Y-66424761D01*
X98266666Y-66377142D01*
X125782380Y-57776666D02*
X125306190Y-58110000D01*
X125782380Y-58348095D02*
X124782380Y-58348095D01*
X124782380Y-57967142D01*
X124830000Y-57871904D01*
X124877619Y-57824285D01*
X124972857Y-57776666D01*
X125115714Y-57776666D01*
X125210952Y-57824285D01*
X125258571Y-57871904D01*
X125306190Y-57967142D01*
X125306190Y-58348095D01*
X125115714Y-56919523D02*
X125782380Y-56919523D01*
X124734761Y-57157619D02*
X125449047Y-57395714D01*
X125449047Y-56776666D01*
X67083333Y-82742380D02*
X66750000Y-82266190D01*
X66511904Y-82742380D02*
X66511904Y-81742380D01*
X66892857Y-81742380D01*
X66988095Y-81790000D01*
X67035714Y-81837619D01*
X67083333Y-81932857D01*
X67083333Y-82075714D01*
X67035714Y-82170952D01*
X66988095Y-82218571D01*
X66892857Y-82266190D01*
X66511904Y-82266190D01*
X67988095Y-81742380D02*
X67511904Y-81742380D01*
X67464285Y-82218571D01*
X67511904Y-82170952D01*
X67607142Y-82123333D01*
X67845238Y-82123333D01*
X67940476Y-82170952D01*
X67988095Y-82218571D01*
X68035714Y-82313809D01*
X68035714Y-82551904D01*
X67988095Y-82647142D01*
X67940476Y-82694761D01*
X67845238Y-82742380D01*
X67607142Y-82742380D01*
X67511904Y-82694761D01*
X67464285Y-82647142D01*
X101587633Y-53602380D02*
X101313824Y-53126190D01*
X101016205Y-53602380D02*
X101141205Y-52602380D01*
X101522157Y-52602380D01*
X101611443Y-52650000D01*
X101653110Y-52697619D01*
X101688824Y-52792857D01*
X101670967Y-52935714D01*
X101611443Y-53030952D01*
X101557872Y-53078571D01*
X101456681Y-53126190D01*
X101075729Y-53126190D01*
X102081681Y-53078571D02*
X102415014Y-53078571D01*
X102492395Y-53602380D02*
X102016205Y-53602380D01*
X102141205Y-52602380D01*
X102617395Y-52602380D01*
X102879300Y-53554761D02*
X103016205Y-53602380D01*
X103254300Y-53602380D01*
X103355491Y-53554761D01*
X103409062Y-53507142D01*
X103468586Y-53411904D01*
X103480491Y-53316666D01*
X103444776Y-53221428D01*
X103403110Y-53173809D01*
X103313824Y-53126190D01*
X103129300Y-53078571D01*
X103040014Y-53030952D01*
X102998348Y-52983333D01*
X102962633Y-52888095D01*
X102974538Y-52792857D01*
X103034062Y-52697619D01*
X103087633Y-52650000D01*
X103188824Y-52602380D01*
X103426919Y-52602380D01*
X103563824Y-52650000D01*
X103938824Y-53078571D02*
X104272157Y-53078571D01*
X104349538Y-53602380D02*
X103873348Y-53602380D01*
X103998348Y-52602380D01*
X104474538Y-52602380D01*
X104760252Y-52602380D02*
X105331681Y-52602380D01*
X104920967Y-53602380D02*
X105045967Y-52602380D01*
X99954300Y-73582380D02*
X100079300Y-72582380D01*
X100460252Y-72582380D01*
X100549538Y-72630000D01*
X100591205Y-72677619D01*
X100626919Y-72772857D01*
X100609062Y-72915714D01*
X100549538Y-73010952D01*
X100495967Y-73058571D01*
X100394776Y-73106190D01*
X100013824Y-73106190D01*
X101525729Y-73582380D02*
X101251919Y-73106190D01*
X100954300Y-73582380D02*
X101079300Y-72582380D01*
X101460252Y-72582380D01*
X101549538Y-72630000D01*
X101591205Y-72677619D01*
X101626919Y-72772857D01*
X101609062Y-72915714D01*
X101549538Y-73010952D01*
X101495967Y-73058571D01*
X101394776Y-73106190D01*
X101013824Y-73106190D01*
X102269776Y-72582380D02*
X102460252Y-72582380D01*
X102549538Y-72630000D01*
X102632872Y-72725238D01*
X102656681Y-72915714D01*
X102615014Y-73249047D01*
X102543586Y-73439523D01*
X102436443Y-73534761D01*
X102335252Y-73582380D01*
X102144776Y-73582380D01*
X102055491Y-73534761D01*
X101972157Y-73439523D01*
X101948348Y-73249047D01*
X101990014Y-72915714D01*
X102061443Y-72725238D01*
X102168586Y-72630000D01*
X102269776Y-72582380D01*
X103644776Y-72630000D02*
X103555491Y-72582380D01*
X103412633Y-72582380D01*
X103263824Y-72630000D01*
X103156681Y-72725238D01*
X103097157Y-72820476D01*
X103025729Y-73010952D01*
X103007872Y-73153809D01*
X103031681Y-73344285D01*
X103067395Y-73439523D01*
X103150729Y-73534761D01*
X103287633Y-73582380D01*
X103382872Y-73582380D01*
X103531681Y-73534761D01*
X103585252Y-73487142D01*
X103626919Y-73153809D01*
X103436443Y-73153809D01*
X104573348Y-73582380D02*
X104299538Y-73106190D01*
X104001919Y-73582380D02*
X104126919Y-72582380D01*
X104507872Y-72582380D01*
X104597157Y-72630000D01*
X104638824Y-72677619D01*
X104674538Y-72772857D01*
X104656681Y-72915714D01*
X104597157Y-73010952D01*
X104543586Y-73058571D01*
X104442395Y-73106190D01*
X104061443Y-73106190D01*
X104990014Y-73296666D02*
X105466205Y-73296666D01*
X104859062Y-73582380D02*
X105317395Y-72582380D01*
X105525729Y-73582380D01*
X105859062Y-73582380D02*
X105984062Y-72582380D01*
X106228110Y-73296666D01*
X106650729Y-72582380D01*
X106525729Y-73582380D01*
X117048095Y-103502380D02*
X117048095Y-104311904D01*
X117095714Y-104407142D01*
X117143333Y-104454761D01*
X117238571Y-104502380D01*
X117429047Y-104502380D01*
X117524285Y-104454761D01*
X117571904Y-104407142D01*
X117619523Y-104311904D01*
X117619523Y-103502380D01*
X118048095Y-103597619D02*
X118095714Y-103550000D01*
X118190952Y-103502380D01*
X118429047Y-103502380D01*
X118524285Y-103550000D01*
X118571904Y-103597619D01*
X118619523Y-103692857D01*
X118619523Y-103788095D01*
X118571904Y-103930952D01*
X118000476Y-104502380D01*
X118619523Y-104502380D01*
X87732380Y-63341904D02*
X88541904Y-63341904D01*
X88637142Y-63294285D01*
X88684761Y-63246666D01*
X88732380Y-63151428D01*
X88732380Y-62960952D01*
X88684761Y-62865714D01*
X88637142Y-62818095D01*
X88541904Y-62770476D01*
X87732380Y-62770476D01*
X87732380Y-62389523D02*
X87732380Y-61770476D01*
X88113333Y-62103809D01*
X88113333Y-61960952D01*
X88160952Y-61865714D01*
X88208571Y-61818095D01*
X88303809Y-61770476D01*
X88541904Y-61770476D01*
X88637142Y-61818095D01*
X88684761Y-61865714D01*
X88732380Y-61960952D01*
X88732380Y-62246666D01*
X88684761Y-62341904D01*
X88637142Y-62389523D01*
M02*
