G04 #@! TF.GenerationSoftware,KiCad,Pcbnew,(5.1.2)-2*
G04 #@! TF.CreationDate,2019-08-09T14:08:30+02:00*
G04 #@! TF.ProjectId,ESP Base,45535020-4261-4736-952e-6b696361645f,1.0.8*
G04 #@! TF.SameCoordinates,Original*
G04 #@! TF.FileFunction,Soldermask,Bot*
G04 #@! TF.FilePolarity,Negative*
%FSLAX46Y46*%
G04 Gerber Fmt 4.6, Leading zero omitted, Abs format (unit mm)*
G04 Created by KiCad (PCBNEW (5.1.2)-2) date 2019-08-09 14:08:30*
%MOMM*%
%LPD*%
G04 APERTURE LIST*
%ADD10C,0.100000*%
G04 APERTURE END LIST*
D10*
G36*
X62844780Y-110449566D02*
G01*
X63144237Y-110509131D01*
X63708401Y-110742815D01*
X64216135Y-111082072D01*
X64647928Y-111513865D01*
X64987185Y-112021599D01*
X65220869Y-112585763D01*
X65252165Y-112743100D01*
X65334753Y-113158295D01*
X65340000Y-113184677D01*
X65340000Y-113795323D01*
X65220869Y-114394237D01*
X64987185Y-114958401D01*
X64647928Y-115466135D01*
X64216135Y-115897928D01*
X63708401Y-116237185D01*
X63144237Y-116470869D01*
X62844780Y-116530434D01*
X62545325Y-116590000D01*
X61934675Y-116590000D01*
X61635220Y-116530434D01*
X61335763Y-116470869D01*
X60771599Y-116237185D01*
X60263865Y-115897928D01*
X59832072Y-115466135D01*
X59492815Y-114958401D01*
X59259131Y-114394237D01*
X59140000Y-113795323D01*
X59140000Y-113184677D01*
X59145248Y-113158295D01*
X59227835Y-112743100D01*
X59259131Y-112585763D01*
X59492815Y-112021599D01*
X59832072Y-111513865D01*
X60263865Y-111082072D01*
X60771599Y-110742815D01*
X61335763Y-110509131D01*
X61635220Y-110449566D01*
X61934675Y-110390000D01*
X62545325Y-110390000D01*
X62844780Y-110449566D01*
X62844780Y-110449566D01*
G37*
G36*
X124844780Y-110449566D02*
G01*
X125144237Y-110509131D01*
X125708401Y-110742815D01*
X126216135Y-111082072D01*
X126647928Y-111513865D01*
X126987185Y-112021599D01*
X127220869Y-112585763D01*
X127252165Y-112743100D01*
X127334753Y-113158295D01*
X127340000Y-113184677D01*
X127340000Y-113795323D01*
X127220869Y-114394237D01*
X126987185Y-114958401D01*
X126647928Y-115466135D01*
X126216135Y-115897928D01*
X125708401Y-116237185D01*
X125144237Y-116470869D01*
X124844780Y-116530434D01*
X124545325Y-116590000D01*
X123934675Y-116590000D01*
X123635220Y-116530434D01*
X123335763Y-116470869D01*
X122771599Y-116237185D01*
X122263865Y-115897928D01*
X121832072Y-115466135D01*
X121492815Y-114958401D01*
X121259131Y-114394237D01*
X121140000Y-113795323D01*
X121140000Y-113184677D01*
X121145248Y-113158295D01*
X121227835Y-112743100D01*
X121259131Y-112585763D01*
X121492815Y-112021599D01*
X121832072Y-111513865D01*
X122263865Y-111082072D01*
X122771599Y-110742815D01*
X123335763Y-110509131D01*
X123635220Y-110449566D01*
X123934675Y-110390000D01*
X124545325Y-110390000D01*
X124844780Y-110449566D01*
X124844780Y-110449566D01*
G37*
G36*
X87792585Y-112928802D02*
G01*
X87942410Y-112958604D01*
X88224674Y-113075521D01*
X88478705Y-113245259D01*
X88694741Y-113461295D01*
X88864479Y-113715326D01*
X88981396Y-113997590D01*
X89041000Y-114297240D01*
X89041000Y-114602760D01*
X88981396Y-114902410D01*
X88864479Y-115184674D01*
X88694741Y-115438705D01*
X88478705Y-115654741D01*
X88224674Y-115824479D01*
X87942410Y-115941396D01*
X87792585Y-115971198D01*
X87642761Y-116001000D01*
X87337239Y-116001000D01*
X87187415Y-115971198D01*
X87037590Y-115941396D01*
X86755326Y-115824479D01*
X86501295Y-115654741D01*
X86285259Y-115438705D01*
X86115521Y-115184674D01*
X85998604Y-114902410D01*
X85939000Y-114602760D01*
X85939000Y-114297240D01*
X85998604Y-113997590D01*
X86115521Y-113715326D01*
X86285259Y-113461295D01*
X86501295Y-113245259D01*
X86755326Y-113075521D01*
X87037590Y-112958604D01*
X87187415Y-112928802D01*
X87337239Y-112899000D01*
X87642761Y-112899000D01*
X87792585Y-112928802D01*
X87792585Y-112928802D01*
G37*
G36*
X97346564Y-111469389D02*
G01*
X97472866Y-111521705D01*
X97537835Y-111548616D01*
X97593564Y-111585853D01*
X97709973Y-111663635D01*
X97856365Y-111810027D01*
X97971385Y-111982167D01*
X98050611Y-112173436D01*
X98091000Y-112376484D01*
X98091000Y-112583516D01*
X98050611Y-112786564D01*
X97979350Y-112958604D01*
X97971384Y-112977835D01*
X97856365Y-113149973D01*
X97709973Y-113296365D01*
X97537835Y-113411384D01*
X97537834Y-113411385D01*
X97537833Y-113411385D01*
X97346564Y-113490611D01*
X97143516Y-113531000D01*
X96936484Y-113531000D01*
X96733436Y-113490611D01*
X96542167Y-113411385D01*
X96542166Y-113411385D01*
X96542165Y-113411384D01*
X96370027Y-113296365D01*
X96223635Y-113149973D01*
X96108616Y-112977835D01*
X96100650Y-112958604D01*
X96029389Y-112786564D01*
X95989000Y-112583516D01*
X95989000Y-112376484D01*
X96029389Y-112173436D01*
X96108615Y-111982167D01*
X96223635Y-111810027D01*
X96370027Y-111663635D01*
X96486436Y-111585853D01*
X96542165Y-111548616D01*
X96607134Y-111521705D01*
X96733436Y-111469389D01*
X96936484Y-111429000D01*
X97143516Y-111429000D01*
X97346564Y-111469389D01*
X97346564Y-111469389D01*
G37*
G36*
X108746564Y-111469389D02*
G01*
X108872866Y-111521705D01*
X108937835Y-111548616D01*
X108993564Y-111585853D01*
X109109973Y-111663635D01*
X109256365Y-111810027D01*
X109371385Y-111982167D01*
X109450611Y-112173436D01*
X109491000Y-112376484D01*
X109491000Y-112583516D01*
X109450611Y-112786564D01*
X109379350Y-112958604D01*
X109371384Y-112977835D01*
X109256365Y-113149973D01*
X109109973Y-113296365D01*
X108937835Y-113411384D01*
X108937834Y-113411385D01*
X108937833Y-113411385D01*
X108746564Y-113490611D01*
X108543516Y-113531000D01*
X108336484Y-113531000D01*
X108133436Y-113490611D01*
X107942167Y-113411385D01*
X107942166Y-113411385D01*
X107942165Y-113411384D01*
X107770027Y-113296365D01*
X107623635Y-113149973D01*
X107508616Y-112977835D01*
X107500650Y-112958604D01*
X107429389Y-112786564D01*
X107389000Y-112583516D01*
X107389000Y-112376484D01*
X107429389Y-112173436D01*
X107508615Y-111982167D01*
X107623635Y-111810027D01*
X107770027Y-111663635D01*
X107886436Y-111585853D01*
X107942165Y-111548616D01*
X108007134Y-111521705D01*
X108133436Y-111469389D01*
X108336484Y-111429000D01*
X108543516Y-111429000D01*
X108746564Y-111469389D01*
X108746564Y-111469389D01*
G37*
G36*
X80798228Y-111521703D02*
G01*
X80953100Y-111585853D01*
X81092481Y-111678985D01*
X81211015Y-111797519D01*
X81304147Y-111936900D01*
X81368297Y-112091772D01*
X81401000Y-112256184D01*
X81401000Y-112423816D01*
X81368297Y-112588228D01*
X81304147Y-112743100D01*
X81211015Y-112882481D01*
X81092481Y-113001015D01*
X80953100Y-113094147D01*
X80798228Y-113158297D01*
X80633816Y-113191000D01*
X80466184Y-113191000D01*
X80301772Y-113158297D01*
X80146900Y-113094147D01*
X80007519Y-113001015D01*
X79888985Y-112882481D01*
X79795853Y-112743100D01*
X79731703Y-112588228D01*
X79699000Y-112423816D01*
X79699000Y-112256184D01*
X79731703Y-112091772D01*
X79795853Y-111936900D01*
X79888985Y-111797519D01*
X80007519Y-111678985D01*
X80146900Y-111585853D01*
X80301772Y-111521703D01*
X80466184Y-111489000D01*
X80633816Y-111489000D01*
X80798228Y-111521703D01*
X80798228Y-111521703D01*
G37*
G36*
X125094549Y-106121116D02*
G01*
X125205734Y-106143232D01*
X125415203Y-106229997D01*
X125603720Y-106355960D01*
X125764040Y-106516280D01*
X125890003Y-106704797D01*
X125976768Y-106914266D01*
X126021000Y-107136636D01*
X126021000Y-107363364D01*
X125976768Y-107585734D01*
X125890003Y-107795203D01*
X125764040Y-107983720D01*
X125603720Y-108144040D01*
X125415203Y-108270003D01*
X125205734Y-108356768D01*
X125094549Y-108378884D01*
X124983365Y-108401000D01*
X124756635Y-108401000D01*
X124645451Y-108378884D01*
X124534266Y-108356768D01*
X124324797Y-108270003D01*
X124136280Y-108144040D01*
X123975960Y-107983720D01*
X123849997Y-107795203D01*
X123763232Y-107585734D01*
X123719000Y-107363364D01*
X123719000Y-107136636D01*
X123763232Y-106914266D01*
X123849997Y-106704797D01*
X123975960Y-106516280D01*
X124136280Y-106355960D01*
X124324797Y-106229997D01*
X124534266Y-106143232D01*
X124645451Y-106121116D01*
X124756635Y-106099000D01*
X124983365Y-106099000D01*
X125094549Y-106121116D01*
X125094549Y-106121116D01*
G37*
G36*
X79598228Y-106521703D02*
G01*
X79753100Y-106585853D01*
X79892481Y-106678985D01*
X80011015Y-106797519D01*
X80104147Y-106936900D01*
X80168297Y-107091772D01*
X80201000Y-107256184D01*
X80201000Y-107423816D01*
X80168297Y-107588228D01*
X80104147Y-107743100D01*
X80011015Y-107882481D01*
X79892481Y-108001015D01*
X79753100Y-108094147D01*
X79598228Y-108158297D01*
X79433816Y-108191000D01*
X79266184Y-108191000D01*
X79101772Y-108158297D01*
X78946900Y-108094147D01*
X78807519Y-108001015D01*
X78688985Y-107882481D01*
X78595853Y-107743100D01*
X78531703Y-107588228D01*
X78499000Y-107423816D01*
X78499000Y-107256184D01*
X78531703Y-107091772D01*
X78595853Y-106936900D01*
X78688985Y-106797519D01*
X78807519Y-106678985D01*
X78946900Y-106585853D01*
X79101772Y-106521703D01*
X79266184Y-106489000D01*
X79433816Y-106489000D01*
X79598228Y-106521703D01*
X79598228Y-106521703D01*
G37*
G36*
X87808433Y-101834893D02*
G01*
X87898657Y-101852839D01*
X88004267Y-101896585D01*
X88153621Y-101958449D01*
X88153622Y-101958450D01*
X88383086Y-102111772D01*
X88578228Y-102306914D01*
X88680675Y-102460237D01*
X88731551Y-102536379D01*
X88793415Y-102685733D01*
X88837161Y-102791343D01*
X88855107Y-102881567D01*
X88891000Y-103062012D01*
X88891000Y-103337988D01*
X88837161Y-103608656D01*
X88731551Y-103863621D01*
X88731550Y-103863622D01*
X88578228Y-104093086D01*
X88383086Y-104288228D01*
X88229763Y-104390675D01*
X88153621Y-104441551D01*
X88004267Y-104503415D01*
X87898657Y-104547161D01*
X87808433Y-104565107D01*
X87627988Y-104601000D01*
X87352012Y-104601000D01*
X87171567Y-104565107D01*
X87081343Y-104547161D01*
X86975733Y-104503415D01*
X86826379Y-104441551D01*
X86750237Y-104390675D01*
X86596914Y-104288228D01*
X86401772Y-104093086D01*
X86248450Y-103863622D01*
X86248449Y-103863621D01*
X86142839Y-103608656D01*
X86089000Y-103337988D01*
X86089000Y-103062012D01*
X86124893Y-102881567D01*
X86142839Y-102791343D01*
X86186585Y-102685733D01*
X86248449Y-102536379D01*
X86299325Y-102460237D01*
X86401772Y-102306914D01*
X86596914Y-102111772D01*
X86826378Y-101958450D01*
X86826379Y-101958449D01*
X86975733Y-101896585D01*
X87081343Y-101852839D01*
X87171567Y-101834893D01*
X87352012Y-101799000D01*
X87627988Y-101799000D01*
X87808433Y-101834893D01*
X87808433Y-101834893D01*
G37*
G36*
X68088024Y-101155960D02*
G01*
X68302410Y-101198604D01*
X68584674Y-101315521D01*
X68838705Y-101485259D01*
X69054741Y-101701295D01*
X69224479Y-101955326D01*
X69341396Y-102237590D01*
X69401000Y-102537240D01*
X69401000Y-102842760D01*
X69341396Y-103142410D01*
X69224479Y-103424674D01*
X69054741Y-103678705D01*
X68838705Y-103894741D01*
X68584674Y-104064479D01*
X68302410Y-104181396D01*
X68152585Y-104211198D01*
X68002761Y-104241000D01*
X67697239Y-104241000D01*
X67547415Y-104211198D01*
X67397590Y-104181396D01*
X67115326Y-104064479D01*
X66861295Y-103894741D01*
X66645259Y-103678705D01*
X66475521Y-103424674D01*
X66358604Y-103142410D01*
X66299000Y-102842760D01*
X66299000Y-102537240D01*
X66358604Y-102237590D01*
X66475521Y-101955326D01*
X66645259Y-101701295D01*
X66861295Y-101485259D01*
X67115326Y-101315521D01*
X67397590Y-101198604D01*
X67611976Y-101155960D01*
X67697239Y-101139000D01*
X68002761Y-101139000D01*
X68088024Y-101155960D01*
X68088024Y-101155960D01*
G37*
G36*
X74481000Y-104241000D02*
G01*
X71379000Y-104241000D01*
X71379000Y-101139000D01*
X74481000Y-101139000D01*
X74481000Y-104241000D01*
X74481000Y-104241000D01*
G37*
G36*
X63008024Y-101155960D02*
G01*
X63222410Y-101198604D01*
X63504674Y-101315521D01*
X63758705Y-101485259D01*
X63974741Y-101701295D01*
X64144479Y-101955326D01*
X64261396Y-102237590D01*
X64321000Y-102537240D01*
X64321000Y-102842760D01*
X64261396Y-103142410D01*
X64144479Y-103424674D01*
X63974741Y-103678705D01*
X63758705Y-103894741D01*
X63504674Y-104064479D01*
X63222410Y-104181396D01*
X63072585Y-104211198D01*
X62922761Y-104241000D01*
X62617239Y-104241000D01*
X62467415Y-104211198D01*
X62317590Y-104181396D01*
X62035326Y-104064479D01*
X61781295Y-103894741D01*
X61565259Y-103678705D01*
X61395521Y-103424674D01*
X61278604Y-103142410D01*
X61219000Y-102842760D01*
X61219000Y-102537240D01*
X61278604Y-102237590D01*
X61395521Y-101955326D01*
X61565259Y-101701295D01*
X61781295Y-101485259D01*
X62035326Y-101315521D01*
X62317590Y-101198604D01*
X62531976Y-101155960D01*
X62617239Y-101139000D01*
X62922761Y-101139000D01*
X63008024Y-101155960D01*
X63008024Y-101155960D01*
G37*
G36*
X95694549Y-100921116D02*
G01*
X95805734Y-100943232D01*
X96015203Y-101029997D01*
X96203720Y-101155960D01*
X96364040Y-101316280D01*
X96490003Y-101504797D01*
X96576768Y-101714266D01*
X96621000Y-101936636D01*
X96621000Y-102163364D01*
X96576768Y-102385734D01*
X96490003Y-102595203D01*
X96364040Y-102783720D01*
X96203720Y-102944040D01*
X96015203Y-103070003D01*
X95805734Y-103156768D01*
X95694549Y-103178884D01*
X95583365Y-103201000D01*
X95356635Y-103201000D01*
X95245451Y-103178884D01*
X95134266Y-103156768D01*
X94924797Y-103070003D01*
X94736280Y-102944040D01*
X94575960Y-102783720D01*
X94449997Y-102595203D01*
X94363232Y-102385734D01*
X94319000Y-102163364D01*
X94319000Y-101936636D01*
X94363232Y-101714266D01*
X94449997Y-101504797D01*
X94575960Y-101316280D01*
X94736280Y-101155960D01*
X94924797Y-101029997D01*
X95134266Y-100943232D01*
X95245451Y-100921116D01*
X95356635Y-100899000D01*
X95583365Y-100899000D01*
X95694549Y-100921116D01*
X95694549Y-100921116D01*
G37*
G36*
X81135000Y-102885000D02*
G01*
X79525000Y-102885000D01*
X79525000Y-101275000D01*
X81135000Y-101275000D01*
X81135000Y-102885000D01*
X81135000Y-102885000D01*
G37*
G36*
X95694549Y-95921116D02*
G01*
X95805734Y-95943232D01*
X96015203Y-96029997D01*
X96203720Y-96155960D01*
X96364040Y-96316280D01*
X96490003Y-96504797D01*
X96576768Y-96714266D01*
X96621000Y-96936636D01*
X96621000Y-97163364D01*
X96576768Y-97385734D01*
X96490003Y-97595203D01*
X96364040Y-97783720D01*
X96203720Y-97944040D01*
X96015203Y-98070003D01*
X95805734Y-98156768D01*
X95694549Y-98178884D01*
X95583365Y-98201000D01*
X95356635Y-98201000D01*
X95245451Y-98178884D01*
X95134266Y-98156768D01*
X94924797Y-98070003D01*
X94736280Y-97944040D01*
X94575960Y-97783720D01*
X94449997Y-97595203D01*
X94363232Y-97385734D01*
X94319000Y-97163364D01*
X94319000Y-96936636D01*
X94363232Y-96714266D01*
X94449997Y-96504797D01*
X94575960Y-96316280D01*
X94736280Y-96155960D01*
X94924797Y-96029997D01*
X95134266Y-95943232D01*
X95245451Y-95921116D01*
X95356635Y-95899000D01*
X95583365Y-95899000D01*
X95694549Y-95921116D01*
X95694549Y-95921116D01*
G37*
G36*
X73252585Y-92988802D02*
G01*
X73402410Y-93018604D01*
X73684674Y-93135521D01*
X73938705Y-93305259D01*
X74154741Y-93521295D01*
X74324479Y-93775326D01*
X74441396Y-94057590D01*
X74441396Y-94057591D01*
X74501000Y-94357239D01*
X74501000Y-94662761D01*
X74481720Y-94759686D01*
X74441396Y-94962410D01*
X74324479Y-95244674D01*
X74154741Y-95498705D01*
X73938705Y-95714741D01*
X73684674Y-95884479D01*
X73402410Y-96001396D01*
X73258628Y-96029996D01*
X73102761Y-96061000D01*
X72797239Y-96061000D01*
X72641372Y-96029996D01*
X72497590Y-96001396D01*
X72215326Y-95884479D01*
X71961295Y-95714741D01*
X71745259Y-95498705D01*
X71575521Y-95244674D01*
X71458604Y-94962410D01*
X71418280Y-94759686D01*
X71399000Y-94662761D01*
X71399000Y-94357239D01*
X71458604Y-94057591D01*
X71458604Y-94057590D01*
X71575521Y-93775326D01*
X71745259Y-93521295D01*
X71961295Y-93305259D01*
X72215326Y-93135521D01*
X72497590Y-93018604D01*
X72647415Y-92988802D01*
X72797239Y-92959000D01*
X73102761Y-92959000D01*
X73252585Y-92988802D01*
X73252585Y-92988802D01*
G37*
G36*
X68172585Y-92988802D02*
G01*
X68322410Y-93018604D01*
X68604674Y-93135521D01*
X68858705Y-93305259D01*
X69074741Y-93521295D01*
X69244479Y-93775326D01*
X69361396Y-94057590D01*
X69361396Y-94057591D01*
X69421000Y-94357239D01*
X69421000Y-94662761D01*
X69401720Y-94759686D01*
X69361396Y-94962410D01*
X69244479Y-95244674D01*
X69074741Y-95498705D01*
X68858705Y-95714741D01*
X68604674Y-95884479D01*
X68322410Y-96001396D01*
X68178628Y-96029996D01*
X68022761Y-96061000D01*
X67717239Y-96061000D01*
X67561372Y-96029996D01*
X67417590Y-96001396D01*
X67135326Y-95884479D01*
X66881295Y-95714741D01*
X66665259Y-95498705D01*
X66495521Y-95244674D01*
X66378604Y-94962410D01*
X66338280Y-94759686D01*
X66319000Y-94662761D01*
X66319000Y-94357239D01*
X66378604Y-94057591D01*
X66378604Y-94057590D01*
X66495521Y-93775326D01*
X66665259Y-93521295D01*
X66881295Y-93305259D01*
X67135326Y-93135521D01*
X67417590Y-93018604D01*
X67567415Y-92988802D01*
X67717239Y-92959000D01*
X68022761Y-92959000D01*
X68172585Y-92988802D01*
X68172585Y-92988802D01*
G37*
G36*
X64341000Y-96061000D02*
G01*
X61239000Y-96061000D01*
X61239000Y-92959000D01*
X64341000Y-92959000D01*
X64341000Y-96061000D01*
X64341000Y-96061000D01*
G37*
G36*
X125001552Y-94676331D02*
G01*
X125083627Y-94710328D01*
X125083629Y-94710329D01*
X125120813Y-94735175D01*
X125157495Y-94759685D01*
X125220315Y-94822505D01*
X125269672Y-94896373D01*
X125303669Y-94978448D01*
X125321000Y-95065579D01*
X125321000Y-95154421D01*
X125303669Y-95241552D01*
X125293956Y-95265000D01*
X125269671Y-95323629D01*
X125220314Y-95397496D01*
X125157496Y-95460314D01*
X125083629Y-95509671D01*
X125083628Y-95509672D01*
X125083627Y-95509672D01*
X125001552Y-95543669D01*
X124914421Y-95561000D01*
X124825579Y-95561000D01*
X124738448Y-95543669D01*
X124656373Y-95509672D01*
X124656372Y-95509672D01*
X124656371Y-95509671D01*
X124582504Y-95460314D01*
X124519686Y-95397496D01*
X124470329Y-95323629D01*
X124446044Y-95265000D01*
X124436331Y-95241552D01*
X124419000Y-95154421D01*
X124419000Y-95065579D01*
X124436331Y-94978448D01*
X124470328Y-94896373D01*
X124519685Y-94822505D01*
X124582505Y-94759685D01*
X124619187Y-94735175D01*
X124656371Y-94710329D01*
X124656373Y-94710328D01*
X124738448Y-94676331D01*
X124825579Y-94659000D01*
X124914421Y-94659000D01*
X125001552Y-94676331D01*
X125001552Y-94676331D01*
G37*
G36*
X80564810Y-93685935D02*
G01*
X80711309Y-93746617D01*
X80711310Y-93746618D01*
X80843158Y-93834716D01*
X80955284Y-93946842D01*
X80955285Y-93946844D01*
X81043383Y-94078691D01*
X81104065Y-94225190D01*
X81135000Y-94380713D01*
X81135000Y-94539287D01*
X81104065Y-94694810D01*
X81043383Y-94841309D01*
X81043382Y-94841310D01*
X80955284Y-94973158D01*
X80843158Y-95085284D01*
X80776785Y-95129633D01*
X80711309Y-95173383D01*
X80564810Y-95234065D01*
X80409287Y-95265000D01*
X80250713Y-95265000D01*
X80095190Y-95234065D01*
X79948691Y-95173383D01*
X79883215Y-95129633D01*
X79816842Y-95085284D01*
X79704716Y-94973158D01*
X79616618Y-94841310D01*
X79616617Y-94841309D01*
X79555935Y-94694810D01*
X79525000Y-94539287D01*
X79525000Y-94380713D01*
X79555935Y-94225190D01*
X79616617Y-94078691D01*
X79704715Y-93946844D01*
X79704716Y-93946842D01*
X79816842Y-93834716D01*
X79948690Y-93746618D01*
X79948691Y-93746617D01*
X80095190Y-93685935D01*
X80250713Y-93655000D01*
X80409287Y-93655000D01*
X80564810Y-93685935D01*
X80564810Y-93685935D01*
G37*
G36*
X87792585Y-90428802D02*
G01*
X87942410Y-90458604D01*
X88224674Y-90575521D01*
X88478705Y-90745259D01*
X88694741Y-90961295D01*
X88864479Y-91215326D01*
X88981396Y-91497590D01*
X88981396Y-91497591D01*
X89041000Y-91797239D01*
X89041000Y-92102761D01*
X89011198Y-92252585D01*
X88981396Y-92402410D01*
X88864479Y-92684674D01*
X88694741Y-92938705D01*
X88478705Y-93154741D01*
X88224674Y-93324479D01*
X87942410Y-93441396D01*
X87792585Y-93471198D01*
X87642761Y-93501000D01*
X87337239Y-93501000D01*
X87187415Y-93471198D01*
X87037590Y-93441396D01*
X86755326Y-93324479D01*
X86501295Y-93154741D01*
X86285259Y-92938705D01*
X86115521Y-92684674D01*
X85998604Y-92402410D01*
X85968802Y-92252585D01*
X85939000Y-92102761D01*
X85939000Y-91797239D01*
X85998604Y-91497591D01*
X85998604Y-91497590D01*
X86115521Y-91215326D01*
X86285259Y-90961295D01*
X86501295Y-90745259D01*
X86755326Y-90575521D01*
X87037590Y-90458604D01*
X87187415Y-90428802D01*
X87337239Y-90399000D01*
X87642761Y-90399000D01*
X87792585Y-90428802D01*
X87792585Y-90428802D01*
G37*
G36*
X125094549Y-90721116D02*
G01*
X125205734Y-90743232D01*
X125415203Y-90829997D01*
X125603720Y-90955960D01*
X125764040Y-91116280D01*
X125890003Y-91304797D01*
X125976768Y-91514266D01*
X126021000Y-91736636D01*
X126021000Y-91963364D01*
X125976768Y-92185734D01*
X125890003Y-92395203D01*
X125764040Y-92583720D01*
X125603720Y-92744040D01*
X125415203Y-92870003D01*
X125205734Y-92956768D01*
X125094549Y-92978884D01*
X124983365Y-93001000D01*
X124756635Y-93001000D01*
X124645451Y-92978884D01*
X124534266Y-92956768D01*
X124324797Y-92870003D01*
X124136280Y-92744040D01*
X123975960Y-92583720D01*
X123849997Y-92395203D01*
X123763232Y-92185734D01*
X123719000Y-91963364D01*
X123719000Y-91736636D01*
X123763232Y-91514266D01*
X123849997Y-91304797D01*
X123975960Y-91116280D01*
X124136280Y-90955960D01*
X124324797Y-90829997D01*
X124534266Y-90743232D01*
X124645451Y-90721116D01*
X124756635Y-90699000D01*
X124983365Y-90699000D01*
X125094549Y-90721116D01*
X125094549Y-90721116D01*
G37*
G36*
X115471000Y-88711000D02*
G01*
X113669000Y-88711000D01*
X113669000Y-86909000D01*
X115471000Y-86909000D01*
X115471000Y-88711000D01*
X115471000Y-88711000D01*
G37*
G36*
X117220443Y-86915519D02*
G01*
X117286627Y-86922037D01*
X117456466Y-86973557D01*
X117612991Y-87057222D01*
X117648729Y-87086552D01*
X117750186Y-87169814D01*
X117833448Y-87271271D01*
X117862778Y-87307009D01*
X117862779Y-87307011D01*
X117930407Y-87433532D01*
X117946443Y-87463534D01*
X117997963Y-87633373D01*
X118015359Y-87810000D01*
X117997963Y-87986627D01*
X117946443Y-88156466D01*
X117862778Y-88312991D01*
X117833448Y-88348729D01*
X117750186Y-88450186D01*
X117649546Y-88532778D01*
X117612991Y-88562778D01*
X117612989Y-88562779D01*
X117512594Y-88616442D01*
X117456466Y-88646443D01*
X117286627Y-88697963D01*
X117220442Y-88704482D01*
X117154260Y-88711000D01*
X117065740Y-88711000D01*
X116999558Y-88704482D01*
X116933373Y-88697963D01*
X116763534Y-88646443D01*
X116707407Y-88616442D01*
X116607011Y-88562779D01*
X116607009Y-88562778D01*
X116570454Y-88532778D01*
X116469814Y-88450186D01*
X116386552Y-88348729D01*
X116357222Y-88312991D01*
X116273557Y-88156466D01*
X116222037Y-87986627D01*
X116204641Y-87810000D01*
X116222037Y-87633373D01*
X116273557Y-87463534D01*
X116289594Y-87433532D01*
X116357221Y-87307011D01*
X116357222Y-87307009D01*
X116386552Y-87271271D01*
X116469814Y-87169814D01*
X116571271Y-87086552D01*
X116607009Y-87057222D01*
X116763534Y-86973557D01*
X116933373Y-86922037D01*
X116999557Y-86915519D01*
X117065740Y-86909000D01*
X117154260Y-86909000D01*
X117220443Y-86915519D01*
X117220443Y-86915519D01*
G37*
G36*
X121690443Y-86885519D02*
G01*
X121756627Y-86892037D01*
X121926466Y-86943557D01*
X121926468Y-86943558D01*
X122004729Y-86985390D01*
X122082991Y-87027222D01*
X122118729Y-87056552D01*
X122220186Y-87139814D01*
X122303448Y-87241271D01*
X122332778Y-87277009D01*
X122416443Y-87433534D01*
X122467963Y-87603373D01*
X122485359Y-87780000D01*
X122467963Y-87956627D01*
X122416443Y-88126466D01*
X122416442Y-88126468D01*
X122374611Y-88204728D01*
X122332778Y-88282991D01*
X122308159Y-88312989D01*
X122220186Y-88420186D01*
X122118729Y-88503448D01*
X122082991Y-88532778D01*
X121926466Y-88616443D01*
X121756627Y-88667963D01*
X121690442Y-88674482D01*
X121624260Y-88681000D01*
X121535740Y-88681000D01*
X121469558Y-88674482D01*
X121403373Y-88667963D01*
X121233534Y-88616443D01*
X121077009Y-88532778D01*
X121041271Y-88503448D01*
X120939814Y-88420186D01*
X120851841Y-88312989D01*
X120827222Y-88282991D01*
X120785389Y-88204728D01*
X120743558Y-88126468D01*
X120743557Y-88126466D01*
X120692037Y-87956627D01*
X120674641Y-87780000D01*
X120692037Y-87603373D01*
X120743557Y-87433534D01*
X120827222Y-87277009D01*
X120856552Y-87241271D01*
X120939814Y-87139814D01*
X121041271Y-87056552D01*
X121077009Y-87027222D01*
X121155271Y-86985390D01*
X121233532Y-86943558D01*
X121233534Y-86943557D01*
X121403373Y-86892037D01*
X121469557Y-86885519D01*
X121535740Y-86879000D01*
X121624260Y-86879000D01*
X121690443Y-86885519D01*
X121690443Y-86885519D01*
G37*
G36*
X122481000Y-86141000D02*
G01*
X120679000Y-86141000D01*
X120679000Y-84339000D01*
X122481000Y-84339000D01*
X122481000Y-86141000D01*
X122481000Y-86141000D01*
G37*
G36*
X80564810Y-83525935D02*
G01*
X80711309Y-83586617D01*
X80711310Y-83586618D01*
X80843158Y-83674716D01*
X80955284Y-83786842D01*
X80955285Y-83786844D01*
X81043383Y-83918691D01*
X81104065Y-84065190D01*
X81135000Y-84220713D01*
X81135000Y-84379287D01*
X81104065Y-84534810D01*
X81043383Y-84681309D01*
X81043382Y-84681310D01*
X80955284Y-84813158D01*
X80843158Y-84925284D01*
X80776785Y-84969633D01*
X80711309Y-85013383D01*
X80564810Y-85074065D01*
X80409287Y-85105000D01*
X80250713Y-85105000D01*
X80095190Y-85074065D01*
X79948691Y-85013383D01*
X79883215Y-84969633D01*
X79816842Y-84925284D01*
X79704716Y-84813158D01*
X79616618Y-84681310D01*
X79616617Y-84681309D01*
X79555935Y-84534810D01*
X79525000Y-84379287D01*
X79525000Y-84220713D01*
X79555935Y-84065190D01*
X79616617Y-83918691D01*
X79704715Y-83786844D01*
X79704716Y-83786842D01*
X79816842Y-83674716D01*
X79948690Y-83586618D01*
X79948691Y-83586617D01*
X80095190Y-83525935D01*
X80250713Y-83495000D01*
X80409287Y-83495000D01*
X80564810Y-83525935D01*
X80564810Y-83525935D01*
G37*
G36*
X112801552Y-82596331D02*
G01*
X112883627Y-82630328D01*
X112883629Y-82630329D01*
X112920813Y-82655175D01*
X112957495Y-82679685D01*
X113020315Y-82742505D01*
X113069672Y-82816373D01*
X113103669Y-82898448D01*
X113121000Y-82985579D01*
X113121000Y-83074421D01*
X113103669Y-83161552D01*
X113069672Y-83243627D01*
X113069671Y-83243629D01*
X113020314Y-83317496D01*
X112957496Y-83380314D01*
X112883629Y-83429671D01*
X112883628Y-83429672D01*
X112883627Y-83429672D01*
X112801552Y-83463669D01*
X112714421Y-83481000D01*
X112625579Y-83481000D01*
X112538448Y-83463669D01*
X112456373Y-83429672D01*
X112456372Y-83429672D01*
X112456371Y-83429671D01*
X112382504Y-83380314D01*
X112319686Y-83317496D01*
X112270329Y-83243629D01*
X112270328Y-83243627D01*
X112236331Y-83161552D01*
X112219000Y-83074421D01*
X112219000Y-82985579D01*
X112236331Y-82898448D01*
X112270328Y-82816373D01*
X112319685Y-82742505D01*
X112382505Y-82679685D01*
X112419187Y-82655175D01*
X112456371Y-82630329D01*
X112456373Y-82630328D01*
X112538448Y-82596331D01*
X112625579Y-82579000D01*
X112714421Y-82579000D01*
X112801552Y-82596331D01*
X112801552Y-82596331D01*
G37*
G36*
X80564810Y-80985935D02*
G01*
X80711309Y-81046617D01*
X80725260Y-81055939D01*
X80843158Y-81134716D01*
X80955284Y-81246842D01*
X80955285Y-81246844D01*
X81043383Y-81378691D01*
X81104065Y-81525190D01*
X81135000Y-81680713D01*
X81135000Y-81839287D01*
X81104065Y-81994810D01*
X81043383Y-82141309D01*
X81043382Y-82141310D01*
X80955284Y-82273158D01*
X80843158Y-82385284D01*
X80776785Y-82429633D01*
X80711309Y-82473383D01*
X80564810Y-82534065D01*
X80409287Y-82565000D01*
X80250713Y-82565000D01*
X80095190Y-82534065D01*
X79948691Y-82473383D01*
X79883215Y-82429633D01*
X79816842Y-82385284D01*
X79704716Y-82273158D01*
X79616618Y-82141310D01*
X79616617Y-82141309D01*
X79555935Y-81994810D01*
X79525000Y-81839287D01*
X79525000Y-81680713D01*
X79555935Y-81525190D01*
X79616617Y-81378691D01*
X79704715Y-81246844D01*
X79704716Y-81246842D01*
X79816842Y-81134716D01*
X79934740Y-81055939D01*
X79948691Y-81046617D01*
X80095190Y-80985935D01*
X80250713Y-80955000D01*
X80409287Y-80955000D01*
X80564810Y-80985935D01*
X80564810Y-80985935D01*
G37*
G36*
X73904473Y-81055938D02*
G01*
X74032049Y-81108782D01*
X74146859Y-81185495D01*
X74244505Y-81283141D01*
X74321218Y-81397951D01*
X74374062Y-81525527D01*
X74401000Y-81660956D01*
X74401000Y-81799044D01*
X74374062Y-81934473D01*
X74321218Y-82062049D01*
X74244505Y-82176859D01*
X74146859Y-82274505D01*
X74032049Y-82351218D01*
X73904473Y-82404062D01*
X73769044Y-82431000D01*
X73630956Y-82431000D01*
X73495527Y-82404062D01*
X73367951Y-82351218D01*
X73253141Y-82274505D01*
X73155495Y-82176859D01*
X73078782Y-82062049D01*
X73025938Y-81934473D01*
X72999000Y-81799044D01*
X72999000Y-81660956D01*
X73025938Y-81525527D01*
X73078782Y-81397951D01*
X73155495Y-81283141D01*
X73253141Y-81185495D01*
X73367951Y-81108782D01*
X73495527Y-81055938D01*
X73630956Y-81029000D01*
X73769044Y-81029000D01*
X73904473Y-81055938D01*
X73904473Y-81055938D01*
G37*
G36*
X72634473Y-79785938D02*
G01*
X72762049Y-79838782D01*
X72876859Y-79915495D01*
X72974505Y-80013141D01*
X73051218Y-80127951D01*
X73104062Y-80255527D01*
X73131000Y-80390956D01*
X73131000Y-80529044D01*
X73104062Y-80664473D01*
X73051218Y-80792049D01*
X72974505Y-80906859D01*
X72876859Y-81004505D01*
X72762049Y-81081218D01*
X72634473Y-81134062D01*
X72499044Y-81161000D01*
X72360956Y-81161000D01*
X72225527Y-81134062D01*
X72097951Y-81081218D01*
X72055444Y-81052816D01*
X72033833Y-81041265D01*
X72010384Y-81034152D01*
X71985998Y-81031750D01*
X71961612Y-81034152D01*
X71938163Y-81041265D01*
X71916553Y-81052817D01*
X71897611Y-81068362D01*
X71882066Y-81087304D01*
X71870515Y-81108915D01*
X71863402Y-81132364D01*
X71861000Y-81156749D01*
X71861000Y-82431000D01*
X70459000Y-82431000D01*
X70459000Y-81029000D01*
X71733251Y-81029000D01*
X71757637Y-81026598D01*
X71781086Y-81019485D01*
X71802697Y-81007934D01*
X71821639Y-80992389D01*
X71837184Y-80973447D01*
X71848735Y-80951836D01*
X71855848Y-80928387D01*
X71858250Y-80904001D01*
X71855848Y-80879615D01*
X71848735Y-80856166D01*
X71837184Y-80834556D01*
X71808782Y-80792049D01*
X71755938Y-80664473D01*
X71729000Y-80529044D01*
X71729000Y-80390956D01*
X71755938Y-80255527D01*
X71808782Y-80127951D01*
X71885495Y-80013141D01*
X71983141Y-79915495D01*
X72097951Y-79838782D01*
X72225527Y-79785938D01*
X72360956Y-79759000D01*
X72499044Y-79759000D01*
X72634473Y-79785938D01*
X72634473Y-79785938D01*
G37*
G36*
X114661552Y-80636331D02*
G01*
X114729494Y-80664474D01*
X114743629Y-80670329D01*
X114780813Y-80695175D01*
X114817495Y-80719685D01*
X114880315Y-80782505D01*
X114929672Y-80856373D01*
X114963669Y-80938448D01*
X114981000Y-81025579D01*
X114981000Y-81114421D01*
X114963669Y-81201552D01*
X114929873Y-81283141D01*
X114929671Y-81283629D01*
X114880314Y-81357496D01*
X114817496Y-81420314D01*
X114743629Y-81469671D01*
X114743628Y-81469672D01*
X114743627Y-81469672D01*
X114661552Y-81503669D01*
X114574421Y-81521000D01*
X114485579Y-81521000D01*
X114398448Y-81503669D01*
X114316373Y-81469672D01*
X114316372Y-81469672D01*
X114316371Y-81469671D01*
X114242504Y-81420314D01*
X114179686Y-81357496D01*
X114130329Y-81283629D01*
X114130127Y-81283141D01*
X114096331Y-81201552D01*
X114079000Y-81114421D01*
X114079000Y-81025579D01*
X114096331Y-80938448D01*
X114130328Y-80856373D01*
X114179685Y-80782505D01*
X114242505Y-80719685D01*
X114279187Y-80695175D01*
X114316371Y-80670329D01*
X114330506Y-80664474D01*
X114398448Y-80636331D01*
X114485579Y-80619000D01*
X114574421Y-80619000D01*
X114661552Y-80636331D01*
X114661552Y-80636331D01*
G37*
G36*
X108841552Y-79406331D02*
G01*
X108923627Y-79440328D01*
X108923629Y-79440329D01*
X108960813Y-79465175D01*
X108997495Y-79489685D01*
X109060315Y-79552505D01*
X109109672Y-79626373D01*
X109143669Y-79708448D01*
X109161000Y-79795579D01*
X109161000Y-79884421D01*
X109143669Y-79971552D01*
X109109672Y-80053627D01*
X109109671Y-80053629D01*
X109060314Y-80127496D01*
X108997496Y-80190314D01*
X108923629Y-80239671D01*
X108923628Y-80239672D01*
X108923627Y-80239672D01*
X108841552Y-80273669D01*
X108754421Y-80291000D01*
X108665579Y-80291000D01*
X108578448Y-80273669D01*
X108496373Y-80239672D01*
X108496372Y-80239672D01*
X108496371Y-80239671D01*
X108422504Y-80190314D01*
X108359686Y-80127496D01*
X108310329Y-80053629D01*
X108310328Y-80053627D01*
X108276331Y-79971552D01*
X108259000Y-79884421D01*
X108259000Y-79795579D01*
X108276331Y-79708448D01*
X108310328Y-79626373D01*
X108359685Y-79552505D01*
X108422505Y-79489685D01*
X108459187Y-79465175D01*
X108496371Y-79440329D01*
X108496373Y-79440328D01*
X108578448Y-79406331D01*
X108665579Y-79389000D01*
X108754421Y-79389000D01*
X108841552Y-79406331D01*
X108841552Y-79406331D01*
G37*
G36*
X87361552Y-79056331D02*
G01*
X87443627Y-79090328D01*
X87443629Y-79090329D01*
X87480813Y-79115175D01*
X87517495Y-79139685D01*
X87580315Y-79202505D01*
X87629672Y-79276373D01*
X87663669Y-79358448D01*
X87681000Y-79445579D01*
X87681000Y-79534421D01*
X87663669Y-79621552D01*
X87629672Y-79703627D01*
X87629671Y-79703629D01*
X87580314Y-79777496D01*
X87517496Y-79840314D01*
X87443629Y-79889671D01*
X87443628Y-79889672D01*
X87443627Y-79889672D01*
X87361552Y-79923669D01*
X87274421Y-79941000D01*
X87185579Y-79941000D01*
X87098448Y-79923669D01*
X87016373Y-79889672D01*
X87016372Y-79889672D01*
X87016371Y-79889671D01*
X86942504Y-79840314D01*
X86879686Y-79777496D01*
X86830329Y-79703629D01*
X86830328Y-79703627D01*
X86796331Y-79621552D01*
X86779000Y-79534421D01*
X86779000Y-79445579D01*
X86796331Y-79358448D01*
X86830328Y-79276373D01*
X86879685Y-79202505D01*
X86942505Y-79139685D01*
X86979187Y-79115175D01*
X87016371Y-79090329D01*
X87016373Y-79090328D01*
X87098448Y-79056331D01*
X87185579Y-79039000D01*
X87274421Y-79039000D01*
X87361552Y-79056331D01*
X87361552Y-79056331D01*
G37*
G36*
X87381552Y-77206331D02*
G01*
X87463627Y-77240328D01*
X87463629Y-77240329D01*
X87500813Y-77265175D01*
X87537495Y-77289685D01*
X87600315Y-77352505D01*
X87649672Y-77426373D01*
X87683669Y-77508448D01*
X87701000Y-77595579D01*
X87701000Y-77684421D01*
X87683669Y-77771552D01*
X87649672Y-77853627D01*
X87649671Y-77853629D01*
X87600314Y-77927496D01*
X87537496Y-77990314D01*
X87463629Y-78039671D01*
X87463628Y-78039672D01*
X87463627Y-78039672D01*
X87381552Y-78073669D01*
X87294421Y-78091000D01*
X87205579Y-78091000D01*
X87118448Y-78073669D01*
X87036373Y-78039672D01*
X87036372Y-78039672D01*
X87036371Y-78039671D01*
X86962504Y-77990314D01*
X86899686Y-77927496D01*
X86850329Y-77853629D01*
X86850328Y-77853627D01*
X86816331Y-77771552D01*
X86799000Y-77684421D01*
X86799000Y-77595579D01*
X86816331Y-77508448D01*
X86850328Y-77426373D01*
X86899685Y-77352505D01*
X86962505Y-77289685D01*
X86999187Y-77265175D01*
X87036371Y-77240329D01*
X87036373Y-77240328D01*
X87118448Y-77206331D01*
X87205579Y-77189000D01*
X87294421Y-77189000D01*
X87381552Y-77206331D01*
X87381552Y-77206331D01*
G37*
G36*
X83651552Y-75786331D02*
G01*
X83733627Y-75820328D01*
X83733629Y-75820329D01*
X83770813Y-75845175D01*
X83807495Y-75869685D01*
X83870315Y-75932505D01*
X83919672Y-76006373D01*
X83953669Y-76088448D01*
X83971000Y-76175579D01*
X83971000Y-76264421D01*
X83953669Y-76351552D01*
X83919672Y-76433627D01*
X83919671Y-76433629D01*
X83870314Y-76507496D01*
X83807496Y-76570314D01*
X83733629Y-76619671D01*
X83733628Y-76619672D01*
X83733627Y-76619672D01*
X83651552Y-76653669D01*
X83564421Y-76671000D01*
X83475579Y-76671000D01*
X83388448Y-76653669D01*
X83306373Y-76619672D01*
X83306372Y-76619672D01*
X83306371Y-76619671D01*
X83232504Y-76570314D01*
X83169686Y-76507496D01*
X83120329Y-76433629D01*
X83120328Y-76433627D01*
X83086331Y-76351552D01*
X83069000Y-76264421D01*
X83069000Y-76175579D01*
X83086331Y-76088448D01*
X83120328Y-76006373D01*
X83169685Y-75932505D01*
X83232505Y-75869685D01*
X83269187Y-75845175D01*
X83306371Y-75820329D01*
X83306373Y-75820328D01*
X83388448Y-75786331D01*
X83475579Y-75769000D01*
X83564421Y-75769000D01*
X83651552Y-75786331D01*
X83651552Y-75786331D01*
G37*
G36*
X79321552Y-75246331D02*
G01*
X79403627Y-75280328D01*
X79403629Y-75280329D01*
X79436816Y-75302504D01*
X79477495Y-75329685D01*
X79540315Y-75392505D01*
X79589672Y-75466373D01*
X79623669Y-75548448D01*
X79641000Y-75635579D01*
X79641000Y-75724421D01*
X79623669Y-75811552D01*
X79589672Y-75893627D01*
X79540315Y-75967495D01*
X79477495Y-76030315D01*
X79440813Y-76054825D01*
X79403629Y-76079671D01*
X79403628Y-76079672D01*
X79403627Y-76079672D01*
X79321552Y-76113669D01*
X79234421Y-76131000D01*
X79145579Y-76131000D01*
X79058448Y-76113669D01*
X78976373Y-76079672D01*
X78976372Y-76079672D01*
X78976371Y-76079671D01*
X78939187Y-76054825D01*
X78902505Y-76030315D01*
X78839685Y-75967495D01*
X78790328Y-75893627D01*
X78756331Y-75811552D01*
X78739000Y-75724421D01*
X78739000Y-75635579D01*
X78756331Y-75548448D01*
X78790328Y-75466373D01*
X78839685Y-75392505D01*
X78902505Y-75329685D01*
X78943184Y-75302504D01*
X78976371Y-75280329D01*
X78976373Y-75280328D01*
X79058448Y-75246331D01*
X79145579Y-75229000D01*
X79234421Y-75229000D01*
X79321552Y-75246331D01*
X79321552Y-75246331D01*
G37*
G36*
X106741552Y-75156331D02*
G01*
X106823627Y-75190328D01*
X106823629Y-75190329D01*
X106860813Y-75215175D01*
X106897495Y-75239685D01*
X106960315Y-75302505D01*
X107009672Y-75376373D01*
X107043669Y-75458448D01*
X107061000Y-75545579D01*
X107061000Y-75634421D01*
X107043669Y-75721552D01*
X107024015Y-75769000D01*
X107009671Y-75803629D01*
X106960314Y-75877496D01*
X106897496Y-75940314D01*
X106823629Y-75989671D01*
X106823628Y-75989672D01*
X106823627Y-75989672D01*
X106741552Y-76023669D01*
X106654421Y-76041000D01*
X106565579Y-76041000D01*
X106478448Y-76023669D01*
X106396373Y-75989672D01*
X106396372Y-75989672D01*
X106396371Y-75989671D01*
X106322504Y-75940314D01*
X106259686Y-75877496D01*
X106210329Y-75803629D01*
X106195985Y-75769000D01*
X106176331Y-75721552D01*
X106159000Y-75634421D01*
X106159000Y-75545579D01*
X106176331Y-75458448D01*
X106210328Y-75376373D01*
X106259685Y-75302505D01*
X106322505Y-75239685D01*
X106359187Y-75215175D01*
X106396371Y-75190329D01*
X106396373Y-75190328D01*
X106478448Y-75156331D01*
X106565579Y-75139000D01*
X106654421Y-75139000D01*
X106741552Y-75156331D01*
X106741552Y-75156331D01*
G37*
G36*
X117130443Y-73825519D02*
G01*
X117196627Y-73832037D01*
X117366466Y-73883557D01*
X117522991Y-73967222D01*
X117558729Y-73996552D01*
X117660186Y-74079814D01*
X117743448Y-74181271D01*
X117772778Y-74217009D01*
X117856443Y-74373534D01*
X117907963Y-74543373D01*
X117925359Y-74720000D01*
X117907963Y-74896627D01*
X117856443Y-75066466D01*
X117772778Y-75222991D01*
X117753623Y-75246331D01*
X117660186Y-75360186D01*
X117558729Y-75443448D01*
X117522991Y-75472778D01*
X117522989Y-75472779D01*
X117381424Y-75548448D01*
X117366466Y-75556443D01*
X117196627Y-75607963D01*
X117130443Y-75614481D01*
X117064260Y-75621000D01*
X116975740Y-75621000D01*
X116909557Y-75614481D01*
X116843373Y-75607963D01*
X116673534Y-75556443D01*
X116658577Y-75548448D01*
X116517011Y-75472779D01*
X116517009Y-75472778D01*
X116481271Y-75443448D01*
X116379814Y-75360186D01*
X116286377Y-75246331D01*
X116267222Y-75222991D01*
X116183557Y-75066466D01*
X116132037Y-74896627D01*
X116114641Y-74720000D01*
X116132037Y-74543373D01*
X116183557Y-74373534D01*
X116267222Y-74217009D01*
X116296552Y-74181271D01*
X116379814Y-74079814D01*
X116481271Y-73996552D01*
X116517009Y-73967222D01*
X116673534Y-73883557D01*
X116843373Y-73832037D01*
X116909557Y-73825519D01*
X116975740Y-73819000D01*
X117064260Y-73819000D01*
X117130443Y-73825519D01*
X117130443Y-73825519D01*
G37*
G36*
X67970443Y-73825519D02*
G01*
X68036627Y-73832037D01*
X68206466Y-73883557D01*
X68362991Y-73967222D01*
X68398729Y-73996552D01*
X68500186Y-74079814D01*
X68583448Y-74181271D01*
X68612778Y-74217009D01*
X68696443Y-74373534D01*
X68747963Y-74543373D01*
X68765359Y-74720000D01*
X68747963Y-74896627D01*
X68696443Y-75066466D01*
X68612778Y-75222991D01*
X68593623Y-75246331D01*
X68500186Y-75360186D01*
X68398729Y-75443448D01*
X68362991Y-75472778D01*
X68362989Y-75472779D01*
X68221424Y-75548448D01*
X68206466Y-75556443D01*
X68036627Y-75607963D01*
X67970443Y-75614481D01*
X67904260Y-75621000D01*
X67815740Y-75621000D01*
X67749557Y-75614481D01*
X67683373Y-75607963D01*
X67513534Y-75556443D01*
X67498577Y-75548448D01*
X67357011Y-75472779D01*
X67357009Y-75472778D01*
X67321271Y-75443448D01*
X67219814Y-75360186D01*
X67126377Y-75246331D01*
X67107222Y-75222991D01*
X67023557Y-75066466D01*
X66972037Y-74896627D01*
X66954641Y-74720000D01*
X66972037Y-74543373D01*
X67023557Y-74373534D01*
X67107222Y-74217009D01*
X67136552Y-74181271D01*
X67219814Y-74079814D01*
X67321271Y-73996552D01*
X67357009Y-73967222D01*
X67513534Y-73883557D01*
X67683373Y-73832037D01*
X67749557Y-73825519D01*
X67815740Y-73819000D01*
X67904260Y-73819000D01*
X67970443Y-73825519D01*
X67970443Y-73825519D01*
G37*
G36*
X91441552Y-73926331D02*
G01*
X91523627Y-73960328D01*
X91523629Y-73960329D01*
X91533943Y-73967221D01*
X91597495Y-74009685D01*
X91660315Y-74072505D01*
X91709672Y-74146373D01*
X91743669Y-74228448D01*
X91761000Y-74315579D01*
X91761000Y-74404421D01*
X91743669Y-74491552D01*
X91709672Y-74573627D01*
X91709671Y-74573629D01*
X91660314Y-74647496D01*
X91597496Y-74710314D01*
X91523629Y-74759671D01*
X91523628Y-74759672D01*
X91523627Y-74759672D01*
X91441552Y-74793669D01*
X91354421Y-74811000D01*
X91265579Y-74811000D01*
X91178448Y-74793669D01*
X91096373Y-74759672D01*
X91096372Y-74759672D01*
X91096371Y-74759671D01*
X91022504Y-74710314D01*
X90959686Y-74647496D01*
X90910329Y-74573629D01*
X90910328Y-74573627D01*
X90876331Y-74491552D01*
X90859000Y-74404421D01*
X90859000Y-74315579D01*
X90876331Y-74228448D01*
X90910328Y-74146373D01*
X90959685Y-74072505D01*
X91022505Y-74009685D01*
X91086057Y-73967221D01*
X91096371Y-73960329D01*
X91096373Y-73960328D01*
X91178448Y-73926331D01*
X91265579Y-73909000D01*
X91354421Y-73909000D01*
X91441552Y-73926331D01*
X91441552Y-73926331D01*
G37*
G36*
X67970442Y-71285518D02*
G01*
X68036627Y-71292037D01*
X68206466Y-71343557D01*
X68362991Y-71427222D01*
X68398729Y-71456552D01*
X68500186Y-71539814D01*
X68583448Y-71641271D01*
X68612778Y-71677009D01*
X68696443Y-71833534D01*
X68747963Y-72003373D01*
X68765359Y-72180000D01*
X68747963Y-72356627D01*
X68696443Y-72526466D01*
X68612778Y-72682991D01*
X68583448Y-72718729D01*
X68500186Y-72820186D01*
X68398729Y-72903448D01*
X68362991Y-72932778D01*
X68206466Y-73016443D01*
X68036627Y-73067963D01*
X67970442Y-73074482D01*
X67904260Y-73081000D01*
X67815740Y-73081000D01*
X67749558Y-73074482D01*
X67683373Y-73067963D01*
X67513534Y-73016443D01*
X67357009Y-72932778D01*
X67321271Y-72903448D01*
X67219814Y-72820186D01*
X67136552Y-72718729D01*
X67107222Y-72682991D01*
X67023557Y-72526466D01*
X66972037Y-72356627D01*
X66954641Y-72180000D01*
X66972037Y-72003373D01*
X67023557Y-71833534D01*
X67107222Y-71677009D01*
X67136552Y-71641271D01*
X67219814Y-71539814D01*
X67321271Y-71456552D01*
X67357009Y-71427222D01*
X67513534Y-71343557D01*
X67683373Y-71292037D01*
X67749558Y-71285518D01*
X67815740Y-71279000D01*
X67904260Y-71279000D01*
X67970442Y-71285518D01*
X67970442Y-71285518D01*
G37*
G36*
X117130442Y-71285518D02*
G01*
X117196627Y-71292037D01*
X117366466Y-71343557D01*
X117522991Y-71427222D01*
X117558729Y-71456552D01*
X117660186Y-71539814D01*
X117743448Y-71641271D01*
X117772778Y-71677009D01*
X117856443Y-71833534D01*
X117907963Y-72003373D01*
X117925359Y-72180000D01*
X117907963Y-72356627D01*
X117856443Y-72526466D01*
X117772778Y-72682991D01*
X117743448Y-72718729D01*
X117660186Y-72820186D01*
X117558729Y-72903448D01*
X117522991Y-72932778D01*
X117366466Y-73016443D01*
X117196627Y-73067963D01*
X117130442Y-73074482D01*
X117064260Y-73081000D01*
X116975740Y-73081000D01*
X116909558Y-73074482D01*
X116843373Y-73067963D01*
X116673534Y-73016443D01*
X116517009Y-72932778D01*
X116481271Y-72903448D01*
X116379814Y-72820186D01*
X116296552Y-72718729D01*
X116267222Y-72682991D01*
X116183557Y-72526466D01*
X116132037Y-72356627D01*
X116114641Y-72180000D01*
X116132037Y-72003373D01*
X116183557Y-71833534D01*
X116267222Y-71677009D01*
X116296552Y-71641271D01*
X116379814Y-71539814D01*
X116481271Y-71456552D01*
X116517009Y-71427222D01*
X116673534Y-71343557D01*
X116843373Y-71292037D01*
X116909558Y-71285518D01*
X116975740Y-71279000D01*
X117064260Y-71279000D01*
X117130442Y-71285518D01*
X117130442Y-71285518D01*
G37*
G36*
X76358228Y-69401703D02*
G01*
X76513100Y-69465853D01*
X76652481Y-69558985D01*
X76771015Y-69677519D01*
X76864147Y-69816900D01*
X76928297Y-69971772D01*
X76961000Y-70136184D01*
X76961000Y-70303816D01*
X76928297Y-70468228D01*
X76864147Y-70623100D01*
X76771015Y-70762481D01*
X76652481Y-70881015D01*
X76513100Y-70974147D01*
X76358228Y-71038297D01*
X76193816Y-71071000D01*
X76026184Y-71071000D01*
X75861772Y-71038297D01*
X75706900Y-70974147D01*
X75567519Y-70881015D01*
X75448985Y-70762481D01*
X75355853Y-70623100D01*
X75291703Y-70468228D01*
X75259000Y-70303816D01*
X75259000Y-70136184D01*
X75291703Y-69971772D01*
X75355853Y-69816900D01*
X75448985Y-69677519D01*
X75567519Y-69558985D01*
X75706900Y-69465853D01*
X75861772Y-69401703D01*
X76026184Y-69369000D01*
X76193816Y-69369000D01*
X76358228Y-69401703D01*
X76358228Y-69401703D01*
G37*
G36*
X73858228Y-69401703D02*
G01*
X74013100Y-69465853D01*
X74152481Y-69558985D01*
X74271015Y-69677519D01*
X74364147Y-69816900D01*
X74428297Y-69971772D01*
X74461000Y-70136184D01*
X74461000Y-70303816D01*
X74428297Y-70468228D01*
X74364147Y-70623100D01*
X74271015Y-70762481D01*
X74152481Y-70881015D01*
X74013100Y-70974147D01*
X73858228Y-71038297D01*
X73693816Y-71071000D01*
X73526184Y-71071000D01*
X73361772Y-71038297D01*
X73206900Y-70974147D01*
X73067519Y-70881015D01*
X72948985Y-70762481D01*
X72855853Y-70623100D01*
X72791703Y-70468228D01*
X72759000Y-70303816D01*
X72759000Y-70136184D01*
X72791703Y-69971772D01*
X72855853Y-69816900D01*
X72948985Y-69677519D01*
X73067519Y-69558985D01*
X73206900Y-69465853D01*
X73361772Y-69401703D01*
X73526184Y-69369000D01*
X73693816Y-69369000D01*
X73858228Y-69401703D01*
X73858228Y-69401703D01*
G37*
G36*
X101121552Y-69946331D02*
G01*
X101203627Y-69980328D01*
X101203629Y-69980329D01*
X101240813Y-70005175D01*
X101277495Y-70029685D01*
X101340315Y-70092505D01*
X101389672Y-70166373D01*
X101423669Y-70248448D01*
X101441000Y-70335579D01*
X101441000Y-70424421D01*
X101423669Y-70511552D01*
X101389672Y-70593627D01*
X101389671Y-70593629D01*
X101340314Y-70667496D01*
X101277496Y-70730314D01*
X101203629Y-70779671D01*
X101203628Y-70779672D01*
X101203627Y-70779672D01*
X101121552Y-70813669D01*
X101034421Y-70831000D01*
X100945579Y-70831000D01*
X100858448Y-70813669D01*
X100776373Y-70779672D01*
X100776372Y-70779672D01*
X100776371Y-70779671D01*
X100702504Y-70730314D01*
X100639686Y-70667496D01*
X100590329Y-70593629D01*
X100590328Y-70593627D01*
X100556331Y-70511552D01*
X100539000Y-70424421D01*
X100539000Y-70335579D01*
X100556331Y-70248448D01*
X100590328Y-70166373D01*
X100639685Y-70092505D01*
X100702505Y-70029685D01*
X100739187Y-70005175D01*
X100776371Y-69980329D01*
X100776373Y-69980328D01*
X100858448Y-69946331D01*
X100945579Y-69929000D01*
X101034421Y-69929000D01*
X101121552Y-69946331D01*
X101121552Y-69946331D01*
G37*
G36*
X124868228Y-69131703D02*
G01*
X125023100Y-69195853D01*
X125162481Y-69288985D01*
X125281015Y-69407519D01*
X125374147Y-69546900D01*
X125438297Y-69701772D01*
X125471000Y-69866184D01*
X125471000Y-70033816D01*
X125438297Y-70198228D01*
X125374147Y-70353100D01*
X125281015Y-70492481D01*
X125162481Y-70611015D01*
X125023100Y-70704147D01*
X124868228Y-70768297D01*
X124703816Y-70801000D01*
X124536184Y-70801000D01*
X124371772Y-70768297D01*
X124216900Y-70704147D01*
X124077519Y-70611015D01*
X123958985Y-70492481D01*
X123865853Y-70353100D01*
X123801703Y-70198228D01*
X123769000Y-70033816D01*
X123769000Y-69866184D01*
X123801703Y-69701772D01*
X123865853Y-69546900D01*
X123958985Y-69407519D01*
X124077519Y-69288985D01*
X124216900Y-69195853D01*
X124371772Y-69131703D01*
X124536184Y-69099000D01*
X124703816Y-69099000D01*
X124868228Y-69131703D01*
X124868228Y-69131703D01*
G37*
G36*
X67970443Y-68745519D02*
G01*
X68036627Y-68752037D01*
X68206466Y-68803557D01*
X68362991Y-68887222D01*
X68398729Y-68916552D01*
X68500186Y-68999814D01*
X68581585Y-69099000D01*
X68612778Y-69137009D01*
X68644487Y-69196332D01*
X68694012Y-69288985D01*
X68696443Y-69293534D01*
X68747963Y-69463373D01*
X68765359Y-69640000D01*
X68747963Y-69816627D01*
X68696443Y-69986466D01*
X68612778Y-70142991D01*
X68593590Y-70166371D01*
X68500186Y-70280186D01*
X68398729Y-70363448D01*
X68362991Y-70392778D01*
X68206466Y-70476443D01*
X68036627Y-70527963D01*
X67970442Y-70534482D01*
X67904260Y-70541000D01*
X67815740Y-70541000D01*
X67749558Y-70534482D01*
X67683373Y-70527963D01*
X67513534Y-70476443D01*
X67357009Y-70392778D01*
X67321271Y-70363448D01*
X67219814Y-70280186D01*
X67126410Y-70166371D01*
X67107222Y-70142991D01*
X67023557Y-69986466D01*
X66972037Y-69816627D01*
X66954641Y-69640000D01*
X66972037Y-69463373D01*
X67023557Y-69293534D01*
X67025989Y-69288985D01*
X67075513Y-69196332D01*
X67107222Y-69137009D01*
X67138415Y-69099000D01*
X67219814Y-68999814D01*
X67321271Y-68916552D01*
X67357009Y-68887222D01*
X67513534Y-68803557D01*
X67683373Y-68752037D01*
X67749557Y-68745519D01*
X67815740Y-68739000D01*
X67904260Y-68739000D01*
X67970443Y-68745519D01*
X67970443Y-68745519D01*
G37*
G36*
X117130443Y-68745519D02*
G01*
X117196627Y-68752037D01*
X117366466Y-68803557D01*
X117522991Y-68887222D01*
X117558729Y-68916552D01*
X117660186Y-68999814D01*
X117741585Y-69099000D01*
X117772778Y-69137009D01*
X117804487Y-69196332D01*
X117854012Y-69288985D01*
X117856443Y-69293534D01*
X117907963Y-69463373D01*
X117925359Y-69640000D01*
X117907963Y-69816627D01*
X117856443Y-69986466D01*
X117772778Y-70142991D01*
X117753590Y-70166371D01*
X117660186Y-70280186D01*
X117558729Y-70363448D01*
X117522991Y-70392778D01*
X117366466Y-70476443D01*
X117196627Y-70527963D01*
X117130442Y-70534482D01*
X117064260Y-70541000D01*
X116975740Y-70541000D01*
X116909558Y-70534482D01*
X116843373Y-70527963D01*
X116673534Y-70476443D01*
X116517009Y-70392778D01*
X116481271Y-70363448D01*
X116379814Y-70280186D01*
X116286410Y-70166371D01*
X116267222Y-70142991D01*
X116183557Y-69986466D01*
X116132037Y-69816627D01*
X116114641Y-69640000D01*
X116132037Y-69463373D01*
X116183557Y-69293534D01*
X116185989Y-69288985D01*
X116235513Y-69196332D01*
X116267222Y-69137009D01*
X116298415Y-69099000D01*
X116379814Y-68999814D01*
X116481271Y-68916552D01*
X116517009Y-68887222D01*
X116673534Y-68803557D01*
X116843373Y-68752037D01*
X116909557Y-68745519D01*
X116975740Y-68739000D01*
X117064260Y-68739000D01*
X117130443Y-68745519D01*
X117130443Y-68745519D01*
G37*
G36*
X85521552Y-69196331D02*
G01*
X85603627Y-69230328D01*
X85603629Y-69230329D01*
X85640813Y-69255175D01*
X85677495Y-69279685D01*
X85740315Y-69342505D01*
X85789672Y-69416373D01*
X85823669Y-69498448D01*
X85841000Y-69585579D01*
X85841000Y-69674421D01*
X85823669Y-69761552D01*
X85789672Y-69843627D01*
X85740315Y-69917495D01*
X85677495Y-69980315D01*
X85677474Y-69980329D01*
X85603629Y-70029671D01*
X85603628Y-70029672D01*
X85603627Y-70029672D01*
X85521552Y-70063669D01*
X85434421Y-70081000D01*
X85345579Y-70081000D01*
X85258448Y-70063669D01*
X85176373Y-70029672D01*
X85176372Y-70029672D01*
X85176371Y-70029671D01*
X85102526Y-69980329D01*
X85102505Y-69980315D01*
X85039685Y-69917495D01*
X84990328Y-69843627D01*
X84956331Y-69761552D01*
X84939000Y-69674421D01*
X84939000Y-69585579D01*
X84956331Y-69498448D01*
X84990328Y-69416373D01*
X85039685Y-69342505D01*
X85102505Y-69279685D01*
X85139187Y-69255175D01*
X85176371Y-69230329D01*
X85176373Y-69230328D01*
X85258448Y-69196331D01*
X85345579Y-69179000D01*
X85434421Y-69179000D01*
X85521552Y-69196331D01*
X85521552Y-69196331D01*
G37*
G36*
X80911552Y-67786331D02*
G01*
X80993627Y-67820328D01*
X80993629Y-67820329D01*
X81030813Y-67845175D01*
X81067495Y-67869685D01*
X81130315Y-67932505D01*
X81179672Y-68006373D01*
X81213669Y-68088448D01*
X81231000Y-68175579D01*
X81231000Y-68264421D01*
X81213669Y-68351552D01*
X81185453Y-68419671D01*
X81179671Y-68433629D01*
X81130314Y-68507496D01*
X81067496Y-68570314D01*
X80993629Y-68619671D01*
X80993628Y-68619672D01*
X80993627Y-68619672D01*
X80911552Y-68653669D01*
X80824421Y-68671000D01*
X80735579Y-68671000D01*
X80648448Y-68653669D01*
X80566373Y-68619672D01*
X80566372Y-68619672D01*
X80566371Y-68619671D01*
X80492504Y-68570314D01*
X80429686Y-68507496D01*
X80380329Y-68433629D01*
X80374547Y-68419671D01*
X80346331Y-68351552D01*
X80329000Y-68264421D01*
X80329000Y-68175579D01*
X80346331Y-68088448D01*
X80380328Y-68006373D01*
X80429685Y-67932505D01*
X80492505Y-67869685D01*
X80529187Y-67845175D01*
X80566371Y-67820329D01*
X80566373Y-67820328D01*
X80648448Y-67786331D01*
X80735579Y-67769000D01*
X80824421Y-67769000D01*
X80911552Y-67786331D01*
X80911552Y-67786331D01*
G37*
G36*
X89491552Y-67586331D02*
G01*
X89573627Y-67620328D01*
X89573629Y-67620329D01*
X89610813Y-67645175D01*
X89647495Y-67669685D01*
X89710315Y-67732505D01*
X89715447Y-67740186D01*
X89746281Y-67786331D01*
X89759672Y-67806373D01*
X89793669Y-67888448D01*
X89811000Y-67975579D01*
X89811000Y-68064421D01*
X89793669Y-68151552D01*
X89765186Y-68220314D01*
X89759671Y-68233629D01*
X89710314Y-68307496D01*
X89647496Y-68370314D01*
X89573629Y-68419671D01*
X89573628Y-68419672D01*
X89573627Y-68419672D01*
X89491552Y-68453669D01*
X89404421Y-68471000D01*
X89315579Y-68471000D01*
X89228448Y-68453669D01*
X89146373Y-68419672D01*
X89146372Y-68419672D01*
X89146371Y-68419671D01*
X89072504Y-68370314D01*
X89009686Y-68307496D01*
X88960329Y-68233629D01*
X88954814Y-68220314D01*
X88926331Y-68151552D01*
X88909000Y-68064421D01*
X88909000Y-67975579D01*
X88926331Y-67888448D01*
X88960328Y-67806373D01*
X88973720Y-67786331D01*
X89004553Y-67740186D01*
X89009685Y-67732505D01*
X89072505Y-67669685D01*
X89109187Y-67645175D01*
X89146371Y-67620329D01*
X89146373Y-67620328D01*
X89228448Y-67586331D01*
X89315579Y-67569000D01*
X89404421Y-67569000D01*
X89491552Y-67586331D01*
X89491552Y-67586331D01*
G37*
G36*
X108031552Y-67436331D02*
G01*
X108113627Y-67470328D01*
X108113629Y-67470329D01*
X108150813Y-67495175D01*
X108187495Y-67519685D01*
X108250315Y-67582505D01*
X108299672Y-67656373D01*
X108333669Y-67738448D01*
X108351000Y-67825579D01*
X108351000Y-67914421D01*
X108333669Y-68001552D01*
X108307628Y-68064420D01*
X108299671Y-68083629D01*
X108250314Y-68157496D01*
X108187496Y-68220314D01*
X108113629Y-68269671D01*
X108113628Y-68269672D01*
X108113627Y-68269672D01*
X108031552Y-68303669D01*
X107944421Y-68321000D01*
X107855579Y-68321000D01*
X107768448Y-68303669D01*
X107686373Y-68269672D01*
X107686372Y-68269672D01*
X107686371Y-68269671D01*
X107612504Y-68220314D01*
X107549686Y-68157496D01*
X107500329Y-68083629D01*
X107492372Y-68064420D01*
X107466331Y-68001552D01*
X107449000Y-67914421D01*
X107449000Y-67825579D01*
X107466331Y-67738448D01*
X107500328Y-67656373D01*
X107549685Y-67582505D01*
X107612505Y-67519685D01*
X107649187Y-67495175D01*
X107686371Y-67470329D01*
X107686373Y-67470328D01*
X107768448Y-67436331D01*
X107855579Y-67419000D01*
X107944421Y-67419000D01*
X108031552Y-67436331D01*
X108031552Y-67436331D01*
G37*
G36*
X125471000Y-68301000D02*
G01*
X123769000Y-68301000D01*
X123769000Y-66599000D01*
X125471000Y-66599000D01*
X125471000Y-68301000D01*
X125471000Y-68301000D01*
G37*
G36*
X117130442Y-66205518D02*
G01*
X117196627Y-66212037D01*
X117366466Y-66263557D01*
X117366468Y-66263558D01*
X117424206Y-66294420D01*
X117522991Y-66347222D01*
X117558729Y-66376552D01*
X117660186Y-66459814D01*
X117709309Y-66519672D01*
X117772778Y-66597009D01*
X117856443Y-66753534D01*
X117907963Y-66923373D01*
X117925359Y-67100000D01*
X117907963Y-67276627D01*
X117856443Y-67446466D01*
X117772778Y-67602991D01*
X117758549Y-67620329D01*
X117660186Y-67740186D01*
X117562531Y-67820328D01*
X117522991Y-67852778D01*
X117522989Y-67852779D01*
X117373834Y-67932505D01*
X117366466Y-67936443D01*
X117196627Y-67987963D01*
X117130443Y-67994481D01*
X117064260Y-68001000D01*
X116975740Y-68001000D01*
X116909557Y-67994481D01*
X116843373Y-67987963D01*
X116673534Y-67936443D01*
X116666167Y-67932505D01*
X116517011Y-67852779D01*
X116517009Y-67852778D01*
X116477469Y-67820328D01*
X116379814Y-67740186D01*
X116281451Y-67620329D01*
X116267222Y-67602991D01*
X116183557Y-67446466D01*
X116132037Y-67276627D01*
X116114641Y-67100000D01*
X116132037Y-66923373D01*
X116183557Y-66753534D01*
X116267222Y-66597009D01*
X116330691Y-66519672D01*
X116379814Y-66459814D01*
X116481271Y-66376552D01*
X116517009Y-66347222D01*
X116615794Y-66294420D01*
X116673532Y-66263558D01*
X116673534Y-66263557D01*
X116843373Y-66212037D01*
X116909558Y-66205518D01*
X116975740Y-66199000D01*
X117064260Y-66199000D01*
X117130442Y-66205518D01*
X117130442Y-66205518D01*
G37*
G36*
X67970442Y-66205518D02*
G01*
X68036627Y-66212037D01*
X68206466Y-66263557D01*
X68206468Y-66263558D01*
X68264206Y-66294420D01*
X68362991Y-66347222D01*
X68398729Y-66376552D01*
X68500186Y-66459814D01*
X68549309Y-66519672D01*
X68612778Y-66597009D01*
X68696443Y-66753534D01*
X68747963Y-66923373D01*
X68765359Y-67100000D01*
X68747963Y-67276627D01*
X68696443Y-67446466D01*
X68612778Y-67602991D01*
X68598549Y-67620329D01*
X68500186Y-67740186D01*
X68402531Y-67820328D01*
X68362991Y-67852778D01*
X68362989Y-67852779D01*
X68213834Y-67932505D01*
X68206466Y-67936443D01*
X68036627Y-67987963D01*
X67970443Y-67994481D01*
X67904260Y-68001000D01*
X67815740Y-68001000D01*
X67749557Y-67994481D01*
X67683373Y-67987963D01*
X67513534Y-67936443D01*
X67506167Y-67932505D01*
X67357011Y-67852779D01*
X67357009Y-67852778D01*
X67317469Y-67820328D01*
X67219814Y-67740186D01*
X67121451Y-67620329D01*
X67107222Y-67602991D01*
X67023557Y-67446466D01*
X66972037Y-67276627D01*
X66954641Y-67100000D01*
X66972037Y-66923373D01*
X67023557Y-66753534D01*
X67107222Y-66597009D01*
X67170691Y-66519672D01*
X67219814Y-66459814D01*
X67321271Y-66376552D01*
X67357009Y-66347222D01*
X67455794Y-66294420D01*
X67513532Y-66263558D01*
X67513534Y-66263557D01*
X67683373Y-66212037D01*
X67749558Y-66205518D01*
X67815740Y-66199000D01*
X67904260Y-66199000D01*
X67970442Y-66205518D01*
X67970442Y-66205518D01*
G37*
G36*
X110761552Y-66836331D02*
G01*
X110843627Y-66870328D01*
X110843629Y-66870329D01*
X110880813Y-66895175D01*
X110917495Y-66919685D01*
X110980315Y-66982505D01*
X111029672Y-67056373D01*
X111063669Y-67138448D01*
X111081000Y-67225579D01*
X111081000Y-67314421D01*
X111063669Y-67401552D01*
X111029672Y-67483627D01*
X110980315Y-67557495D01*
X110917495Y-67620315D01*
X110917474Y-67620329D01*
X110843629Y-67669671D01*
X110843628Y-67669672D01*
X110843627Y-67669672D01*
X110761552Y-67703669D01*
X110674421Y-67721000D01*
X110585579Y-67721000D01*
X110498448Y-67703669D01*
X110416373Y-67669672D01*
X110416372Y-67669672D01*
X110416371Y-67669671D01*
X110342526Y-67620329D01*
X110342505Y-67620315D01*
X110279685Y-67557495D01*
X110230328Y-67483627D01*
X110196331Y-67401552D01*
X110179000Y-67314421D01*
X110179000Y-67225579D01*
X110196331Y-67138448D01*
X110230328Y-67056373D01*
X110279685Y-66982505D01*
X110342505Y-66919685D01*
X110379187Y-66895175D01*
X110416371Y-66870329D01*
X110416373Y-66870328D01*
X110498448Y-66836331D01*
X110585579Y-66819000D01*
X110674421Y-66819000D01*
X110761552Y-66836331D01*
X110761552Y-66836331D01*
G37*
G36*
X91961552Y-65816331D02*
G01*
X92043627Y-65850328D01*
X92043629Y-65850329D01*
X92072597Y-65869685D01*
X92117495Y-65899685D01*
X92180315Y-65962505D01*
X92229672Y-66036373D01*
X92263669Y-66118448D01*
X92281000Y-66205579D01*
X92281000Y-66294421D01*
X92263669Y-66381552D01*
X92229672Y-66463627D01*
X92192225Y-66519671D01*
X92180314Y-66537496D01*
X92117496Y-66600314D01*
X92043629Y-66649671D01*
X92043628Y-66649672D01*
X92043627Y-66649672D01*
X91961552Y-66683669D01*
X91874421Y-66701000D01*
X91785579Y-66701000D01*
X91698448Y-66683669D01*
X91616373Y-66649672D01*
X91616372Y-66649672D01*
X91616371Y-66649671D01*
X91542504Y-66600314D01*
X91479686Y-66537496D01*
X91467776Y-66519671D01*
X91430328Y-66463627D01*
X91396331Y-66381552D01*
X91379000Y-66294421D01*
X91379000Y-66205579D01*
X91396331Y-66118448D01*
X91430328Y-66036373D01*
X91479685Y-65962505D01*
X91542505Y-65899685D01*
X91587403Y-65869685D01*
X91616371Y-65850329D01*
X91616373Y-65850328D01*
X91698448Y-65816331D01*
X91785579Y-65799000D01*
X91874421Y-65799000D01*
X91961552Y-65816331D01*
X91961552Y-65816331D01*
G37*
G36*
X80881552Y-65786331D02*
G01*
X80963627Y-65820328D01*
X80963629Y-65820329D01*
X80981850Y-65832504D01*
X81037495Y-65869685D01*
X81100315Y-65932505D01*
X81149672Y-66006373D01*
X81183669Y-66088448D01*
X81201000Y-66175579D01*
X81201000Y-66264421D01*
X81183669Y-66351552D01*
X81171242Y-66381552D01*
X81149671Y-66433629D01*
X81132174Y-66459815D01*
X81100315Y-66507495D01*
X81037495Y-66570315D01*
X81000813Y-66594825D01*
X80963629Y-66619671D01*
X80963628Y-66619672D01*
X80963627Y-66619672D01*
X80881552Y-66653669D01*
X80794421Y-66671000D01*
X80705579Y-66671000D01*
X80618448Y-66653669D01*
X80536373Y-66619672D01*
X80536372Y-66619672D01*
X80536371Y-66619671D01*
X80499187Y-66594825D01*
X80462505Y-66570315D01*
X80399685Y-66507495D01*
X80367826Y-66459815D01*
X80350329Y-66433629D01*
X80328758Y-66381552D01*
X80316331Y-66351552D01*
X80299000Y-66264421D01*
X80299000Y-66175579D01*
X80316331Y-66088448D01*
X80350328Y-66006373D01*
X80399685Y-65932505D01*
X80462505Y-65869685D01*
X80518150Y-65832504D01*
X80536371Y-65820329D01*
X80536373Y-65820328D01*
X80618448Y-65786331D01*
X80705579Y-65769000D01*
X80794421Y-65769000D01*
X80881552Y-65786331D01*
X80881552Y-65786331D01*
G37*
G36*
X106531552Y-65686331D02*
G01*
X106613627Y-65720328D01*
X106613629Y-65720329D01*
X106650813Y-65745175D01*
X106687495Y-65769685D01*
X106750315Y-65832505D01*
X106799672Y-65906373D01*
X106833669Y-65988448D01*
X106851000Y-66075579D01*
X106851000Y-66164421D01*
X106833669Y-66251552D01*
X106799672Y-66333627D01*
X106767650Y-66381552D01*
X106750314Y-66407496D01*
X106687496Y-66470314D01*
X106613629Y-66519671D01*
X106613628Y-66519672D01*
X106613627Y-66519672D01*
X106531552Y-66553669D01*
X106444421Y-66571000D01*
X106355579Y-66571000D01*
X106268448Y-66553669D01*
X106186373Y-66519672D01*
X106186372Y-66519672D01*
X106186371Y-66519671D01*
X106112504Y-66470314D01*
X106049686Y-66407496D01*
X106032351Y-66381552D01*
X106000328Y-66333627D01*
X105966331Y-66251552D01*
X105949000Y-66164421D01*
X105949000Y-66075579D01*
X105966331Y-65988448D01*
X106000328Y-65906373D01*
X106049685Y-65832505D01*
X106112505Y-65769685D01*
X106149187Y-65745175D01*
X106186371Y-65720329D01*
X106186373Y-65720328D01*
X106268448Y-65686331D01*
X106355579Y-65669000D01*
X106444421Y-65669000D01*
X106531552Y-65686331D01*
X106531552Y-65686331D01*
G37*
G36*
X87491552Y-64586331D02*
G01*
X87572043Y-64619672D01*
X87573629Y-64620329D01*
X87602576Y-64639671D01*
X87647495Y-64669685D01*
X87710315Y-64732505D01*
X87759672Y-64806373D01*
X87793669Y-64888448D01*
X87811000Y-64975579D01*
X87811000Y-65064421D01*
X87793669Y-65151552D01*
X87759672Y-65233627D01*
X87759671Y-65233629D01*
X87710314Y-65307496D01*
X87647496Y-65370314D01*
X87573629Y-65419671D01*
X87573628Y-65419672D01*
X87573627Y-65419672D01*
X87491552Y-65453669D01*
X87404421Y-65471000D01*
X87315579Y-65471000D01*
X87228448Y-65453669D01*
X87146373Y-65419672D01*
X87146372Y-65419672D01*
X87146371Y-65419671D01*
X87072504Y-65370314D01*
X87009686Y-65307496D01*
X86960329Y-65233629D01*
X86960328Y-65233627D01*
X86926331Y-65151552D01*
X86909000Y-65064421D01*
X86909000Y-64975579D01*
X86926331Y-64888448D01*
X86960328Y-64806373D01*
X87009685Y-64732505D01*
X87072505Y-64669685D01*
X87117424Y-64639671D01*
X87146371Y-64620329D01*
X87147957Y-64619672D01*
X87228448Y-64586331D01*
X87315579Y-64569000D01*
X87404421Y-64569000D01*
X87491552Y-64586331D01*
X87491552Y-64586331D01*
G37*
G36*
X117130443Y-63665519D02*
G01*
X117196627Y-63672037D01*
X117366466Y-63723557D01*
X117522991Y-63807222D01*
X117558729Y-63836552D01*
X117660186Y-63919814D01*
X117731220Y-64006371D01*
X117772778Y-64057009D01*
X117772779Y-64057011D01*
X117836156Y-64175579D01*
X117856443Y-64213534D01*
X117907963Y-64383373D01*
X117925359Y-64560000D01*
X117907963Y-64736627D01*
X117856443Y-64906466D01*
X117772778Y-65062991D01*
X117771605Y-65064420D01*
X117660186Y-65200186D01*
X117558729Y-65283448D01*
X117522991Y-65312778D01*
X117366466Y-65396443D01*
X117196627Y-65447963D01*
X117138702Y-65453668D01*
X117064260Y-65461000D01*
X116975740Y-65461000D01*
X116901298Y-65453668D01*
X116843373Y-65447963D01*
X116673534Y-65396443D01*
X116517009Y-65312778D01*
X116481271Y-65283448D01*
X116379814Y-65200186D01*
X116268395Y-65064420D01*
X116267222Y-65062991D01*
X116183557Y-64906466D01*
X116132037Y-64736627D01*
X116114641Y-64560000D01*
X116132037Y-64383373D01*
X116183557Y-64213534D01*
X116203845Y-64175579D01*
X116267221Y-64057011D01*
X116267222Y-64057009D01*
X116308780Y-64006371D01*
X116379814Y-63919814D01*
X116481271Y-63836552D01*
X116517009Y-63807222D01*
X116673534Y-63723557D01*
X116843373Y-63672037D01*
X116909557Y-63665519D01*
X116975740Y-63659000D01*
X117064260Y-63659000D01*
X117130443Y-63665519D01*
X117130443Y-63665519D01*
G37*
G36*
X67970443Y-63665519D02*
G01*
X68036627Y-63672037D01*
X68206466Y-63723557D01*
X68362991Y-63807222D01*
X68398729Y-63836552D01*
X68500186Y-63919814D01*
X68571220Y-64006371D01*
X68612778Y-64057009D01*
X68612779Y-64057011D01*
X68676156Y-64175579D01*
X68696443Y-64213534D01*
X68747963Y-64383373D01*
X68765359Y-64560000D01*
X68747963Y-64736627D01*
X68696443Y-64906466D01*
X68612778Y-65062991D01*
X68611605Y-65064420D01*
X68500186Y-65200186D01*
X68398729Y-65283448D01*
X68362991Y-65312778D01*
X68206466Y-65396443D01*
X68036627Y-65447963D01*
X67978702Y-65453668D01*
X67904260Y-65461000D01*
X67815740Y-65461000D01*
X67741298Y-65453668D01*
X67683373Y-65447963D01*
X67513534Y-65396443D01*
X67357009Y-65312778D01*
X67321271Y-65283448D01*
X67219814Y-65200186D01*
X67108395Y-65064420D01*
X67107222Y-65062991D01*
X67023557Y-64906466D01*
X66972037Y-64736627D01*
X66954641Y-64560000D01*
X66972037Y-64383373D01*
X67023557Y-64213534D01*
X67043845Y-64175579D01*
X67107221Y-64057011D01*
X67107222Y-64057009D01*
X67148780Y-64006371D01*
X67219814Y-63919814D01*
X67321271Y-63836552D01*
X67357009Y-63807222D01*
X67513534Y-63723557D01*
X67683373Y-63672037D01*
X67749557Y-63665519D01*
X67815740Y-63659000D01*
X67904260Y-63659000D01*
X67970443Y-63665519D01*
X67970443Y-63665519D01*
G37*
G36*
X80921552Y-63806331D02*
G01*
X81003627Y-63840328D01*
X81003629Y-63840329D01*
X81077496Y-63889686D01*
X81140314Y-63952504D01*
X81176309Y-64006373D01*
X81189672Y-64026373D01*
X81223669Y-64108448D01*
X81241000Y-64195579D01*
X81241000Y-64284421D01*
X81223669Y-64371552D01*
X81189672Y-64453627D01*
X81153679Y-64507495D01*
X81140314Y-64527496D01*
X81077496Y-64590314D01*
X81003629Y-64639671D01*
X81003628Y-64639672D01*
X81003627Y-64639672D01*
X80921552Y-64673669D01*
X80834421Y-64691000D01*
X80745579Y-64691000D01*
X80658448Y-64673669D01*
X80576373Y-64639672D01*
X80576372Y-64639672D01*
X80576371Y-64639671D01*
X80502504Y-64590314D01*
X80439686Y-64527496D01*
X80426322Y-64507495D01*
X80390328Y-64453627D01*
X80356331Y-64371552D01*
X80339000Y-64284421D01*
X80339000Y-64195579D01*
X80356331Y-64108448D01*
X80390328Y-64026373D01*
X80403692Y-64006373D01*
X80439686Y-63952504D01*
X80502504Y-63889686D01*
X80576371Y-63840329D01*
X80576373Y-63840328D01*
X80658448Y-63806331D01*
X80745579Y-63789000D01*
X80834421Y-63789000D01*
X80921552Y-63806331D01*
X80921552Y-63806331D01*
G37*
G36*
X109451552Y-63786331D02*
G01*
X109533627Y-63820328D01*
X109533629Y-63820329D01*
X109563559Y-63840328D01*
X109607495Y-63869685D01*
X109670315Y-63932505D01*
X109719672Y-64006373D01*
X109753669Y-64088448D01*
X109771000Y-64175579D01*
X109771000Y-64264421D01*
X109753669Y-64351552D01*
X109740487Y-64383375D01*
X109719671Y-64433629D01*
X109670314Y-64507496D01*
X109607496Y-64570314D01*
X109533629Y-64619671D01*
X109533628Y-64619672D01*
X109533627Y-64619672D01*
X109451552Y-64653669D01*
X109364421Y-64671000D01*
X109275579Y-64671000D01*
X109188448Y-64653669D01*
X109106373Y-64619672D01*
X109106372Y-64619672D01*
X109106371Y-64619671D01*
X109032504Y-64570314D01*
X108969686Y-64507496D01*
X108920329Y-64433629D01*
X108899513Y-64383375D01*
X108886331Y-64351552D01*
X108869000Y-64264421D01*
X108869000Y-64175579D01*
X108886331Y-64088448D01*
X108920328Y-64006373D01*
X108969685Y-63932505D01*
X109032505Y-63869685D01*
X109076441Y-63840328D01*
X109106371Y-63820329D01*
X109106373Y-63820328D01*
X109188448Y-63786331D01*
X109275579Y-63769000D01*
X109364421Y-63769000D01*
X109451552Y-63786331D01*
X109451552Y-63786331D01*
G37*
G36*
X117130442Y-61125518D02*
G01*
X117196627Y-61132037D01*
X117366466Y-61183557D01*
X117522991Y-61267222D01*
X117558729Y-61296552D01*
X117660186Y-61379814D01*
X117743448Y-61481271D01*
X117772778Y-61517009D01*
X117856443Y-61673534D01*
X117907963Y-61843373D01*
X117925359Y-62020000D01*
X117907963Y-62196627D01*
X117856443Y-62366466D01*
X117772778Y-62522991D01*
X117766768Y-62530314D01*
X117660186Y-62660186D01*
X117558729Y-62743448D01*
X117522991Y-62772778D01*
X117366466Y-62856443D01*
X117196627Y-62907963D01*
X117130442Y-62914482D01*
X117064260Y-62921000D01*
X116975740Y-62921000D01*
X116909558Y-62914482D01*
X116843373Y-62907963D01*
X116673534Y-62856443D01*
X116517009Y-62772778D01*
X116481271Y-62743448D01*
X116379814Y-62660186D01*
X116273232Y-62530314D01*
X116267222Y-62522991D01*
X116183557Y-62366466D01*
X116132037Y-62196627D01*
X116114641Y-62020000D01*
X116132037Y-61843373D01*
X116183557Y-61673534D01*
X116267222Y-61517009D01*
X116296552Y-61481271D01*
X116379814Y-61379814D01*
X116481271Y-61296552D01*
X116517009Y-61267222D01*
X116673534Y-61183557D01*
X116843373Y-61132037D01*
X116909558Y-61125518D01*
X116975740Y-61119000D01*
X117064260Y-61119000D01*
X117130442Y-61125518D01*
X117130442Y-61125518D01*
G37*
G36*
X67970442Y-61125518D02*
G01*
X68036627Y-61132037D01*
X68206466Y-61183557D01*
X68362991Y-61267222D01*
X68398729Y-61296552D01*
X68500186Y-61379814D01*
X68583448Y-61481271D01*
X68612778Y-61517009D01*
X68696443Y-61673534D01*
X68747963Y-61843373D01*
X68765359Y-62020000D01*
X68747963Y-62196627D01*
X68696443Y-62366466D01*
X68612778Y-62522991D01*
X68606768Y-62530314D01*
X68500186Y-62660186D01*
X68398729Y-62743448D01*
X68362991Y-62772778D01*
X68206466Y-62856443D01*
X68036627Y-62907963D01*
X67970442Y-62914482D01*
X67904260Y-62921000D01*
X67815740Y-62921000D01*
X67749558Y-62914482D01*
X67683373Y-62907963D01*
X67513534Y-62856443D01*
X67357009Y-62772778D01*
X67321271Y-62743448D01*
X67219814Y-62660186D01*
X67113232Y-62530314D01*
X67107222Y-62522991D01*
X67023557Y-62366466D01*
X66972037Y-62196627D01*
X66954641Y-62020000D01*
X66972037Y-61843373D01*
X67023557Y-61673534D01*
X67107222Y-61517009D01*
X67136552Y-61481271D01*
X67219814Y-61379814D01*
X67321271Y-61296552D01*
X67357009Y-61267222D01*
X67513534Y-61183557D01*
X67683373Y-61132037D01*
X67749558Y-61125518D01*
X67815740Y-61119000D01*
X67904260Y-61119000D01*
X67970442Y-61125518D01*
X67970442Y-61125518D01*
G37*
G36*
X127351000Y-62911000D02*
G01*
X125549000Y-62911000D01*
X125549000Y-61109000D01*
X127351000Y-61109000D01*
X127351000Y-62911000D01*
X127351000Y-62911000D01*
G37*
G36*
X112580442Y-61075518D02*
G01*
X112646627Y-61082037D01*
X112816466Y-61133557D01*
X112972991Y-61217222D01*
X113008729Y-61246552D01*
X113110186Y-61329814D01*
X113193448Y-61431271D01*
X113222778Y-61467009D01*
X113222779Y-61467011D01*
X113301170Y-61613668D01*
X113306443Y-61623534D01*
X113357963Y-61793373D01*
X113375359Y-61970000D01*
X113357963Y-62146627D01*
X113306443Y-62316466D01*
X113306442Y-62316468D01*
X113302191Y-62324421D01*
X113222778Y-62472991D01*
X113193448Y-62508729D01*
X113110186Y-62610186D01*
X113008729Y-62693448D01*
X112972991Y-62722778D01*
X112816466Y-62806443D01*
X112646627Y-62857963D01*
X112580442Y-62864482D01*
X112514260Y-62871000D01*
X112425740Y-62871000D01*
X112359558Y-62864482D01*
X112293373Y-62857963D01*
X112123534Y-62806443D01*
X111967009Y-62722778D01*
X111931271Y-62693448D01*
X111829814Y-62610186D01*
X111746552Y-62508729D01*
X111717222Y-62472991D01*
X111637809Y-62324421D01*
X111633558Y-62316468D01*
X111633557Y-62316466D01*
X111582037Y-62146627D01*
X111564641Y-61970000D01*
X111582037Y-61793373D01*
X111633557Y-61623534D01*
X111638831Y-61613668D01*
X111717221Y-61467011D01*
X111717222Y-61467009D01*
X111746552Y-61431271D01*
X111829814Y-61329814D01*
X111931271Y-61246552D01*
X111967009Y-61217222D01*
X112123534Y-61133557D01*
X112293373Y-61082037D01*
X112359558Y-61075518D01*
X112425740Y-61069000D01*
X112514260Y-61069000D01*
X112580442Y-61075518D01*
X112580442Y-61075518D01*
G37*
G36*
X91801552Y-61846331D02*
G01*
X91883627Y-61880328D01*
X91883629Y-61880329D01*
X91901850Y-61892504D01*
X91957495Y-61929685D01*
X92020315Y-61992505D01*
X92069672Y-62066373D01*
X92103669Y-62148448D01*
X92121000Y-62235579D01*
X92121000Y-62324421D01*
X92103669Y-62411552D01*
X92069672Y-62493627D01*
X92020315Y-62567495D01*
X91957495Y-62630315D01*
X91920813Y-62654825D01*
X91883629Y-62679671D01*
X91883628Y-62679672D01*
X91883627Y-62679672D01*
X91801552Y-62713669D01*
X91714421Y-62731000D01*
X91625579Y-62731000D01*
X91538448Y-62713669D01*
X91456373Y-62679672D01*
X91456372Y-62679672D01*
X91456371Y-62679671D01*
X91419187Y-62654825D01*
X91382505Y-62630315D01*
X91319685Y-62567495D01*
X91270328Y-62493627D01*
X91236331Y-62411552D01*
X91219000Y-62324421D01*
X91219000Y-62235579D01*
X91236331Y-62148448D01*
X91270328Y-62066373D01*
X91319685Y-61992505D01*
X91382505Y-61929685D01*
X91438150Y-61892504D01*
X91456371Y-61880329D01*
X91456373Y-61880328D01*
X91538448Y-61846331D01*
X91625579Y-61829000D01*
X91714421Y-61829000D01*
X91801552Y-61846331D01*
X91801552Y-61846331D01*
G37*
G36*
X80921552Y-61746331D02*
G01*
X81003627Y-61780328D01*
X81003629Y-61780329D01*
X81023150Y-61793373D01*
X81077495Y-61829685D01*
X81140315Y-61892505D01*
X81189672Y-61966373D01*
X81223669Y-62048448D01*
X81241000Y-62135579D01*
X81241000Y-62224421D01*
X81223669Y-62311552D01*
X81189672Y-62393627D01*
X81189671Y-62393629D01*
X81140314Y-62467496D01*
X81077496Y-62530314D01*
X81003629Y-62579671D01*
X81003628Y-62579672D01*
X81003627Y-62579672D01*
X80921552Y-62613669D01*
X80834421Y-62631000D01*
X80745579Y-62631000D01*
X80658448Y-62613669D01*
X80576373Y-62579672D01*
X80576372Y-62579672D01*
X80576371Y-62579671D01*
X80502504Y-62530314D01*
X80439686Y-62467496D01*
X80390329Y-62393629D01*
X80390328Y-62393627D01*
X80356331Y-62311552D01*
X80339000Y-62224421D01*
X80339000Y-62135579D01*
X80356331Y-62048448D01*
X80390328Y-61966373D01*
X80439685Y-61892505D01*
X80502505Y-61829685D01*
X80556850Y-61793373D01*
X80576371Y-61780329D01*
X80576373Y-61780328D01*
X80658448Y-61746331D01*
X80745579Y-61729000D01*
X80834421Y-61729000D01*
X80921552Y-61746331D01*
X80921552Y-61746331D01*
G37*
G36*
X103951552Y-60746331D02*
G01*
X104033627Y-60780328D01*
X104033629Y-60780329D01*
X104070813Y-60805175D01*
X104107495Y-60829685D01*
X104170315Y-60892505D01*
X104219672Y-60966373D01*
X104253669Y-61048448D01*
X104271000Y-61135579D01*
X104271000Y-61224421D01*
X104253669Y-61311552D01*
X104219672Y-61393627D01*
X104170640Y-61467009D01*
X104170314Y-61467496D01*
X104107496Y-61530314D01*
X104033629Y-61579671D01*
X104033628Y-61579672D01*
X104033627Y-61579672D01*
X103951552Y-61613669D01*
X103864421Y-61631000D01*
X103775579Y-61631000D01*
X103688448Y-61613669D01*
X103606373Y-61579672D01*
X103606372Y-61579672D01*
X103606371Y-61579671D01*
X103532504Y-61530314D01*
X103469686Y-61467496D01*
X103469361Y-61467009D01*
X103420328Y-61393627D01*
X103386331Y-61311552D01*
X103369000Y-61224421D01*
X103369000Y-61135579D01*
X103386331Y-61048448D01*
X103420328Y-60966373D01*
X103469685Y-60892505D01*
X103532505Y-60829685D01*
X103569187Y-60805175D01*
X103606371Y-60780329D01*
X103606373Y-60780328D01*
X103688448Y-60746331D01*
X103775579Y-60729000D01*
X103864421Y-60729000D01*
X103951552Y-60746331D01*
X103951552Y-60746331D01*
G37*
G36*
X91641552Y-59816331D02*
G01*
X91723627Y-59850328D01*
X91723629Y-59850329D01*
X91760813Y-59875175D01*
X91797495Y-59899685D01*
X91860315Y-59962505D01*
X91909672Y-60036373D01*
X91943669Y-60118448D01*
X91961000Y-60205579D01*
X91961000Y-60294421D01*
X91943669Y-60381552D01*
X91913814Y-60453627D01*
X91909671Y-60463629D01*
X91860314Y-60537496D01*
X91797496Y-60600314D01*
X91723629Y-60649671D01*
X91723628Y-60649672D01*
X91723627Y-60649672D01*
X91641552Y-60683669D01*
X91554421Y-60701000D01*
X91465579Y-60701000D01*
X91378448Y-60683669D01*
X91296373Y-60649672D01*
X91296372Y-60649672D01*
X91296371Y-60649671D01*
X91222504Y-60600314D01*
X91159686Y-60537496D01*
X91110329Y-60463629D01*
X91106186Y-60453627D01*
X91076331Y-60381552D01*
X91059000Y-60294421D01*
X91059000Y-60205579D01*
X91076331Y-60118448D01*
X91110328Y-60036373D01*
X91159685Y-59962505D01*
X91222505Y-59899685D01*
X91259187Y-59875175D01*
X91296371Y-59850329D01*
X91296373Y-59850328D01*
X91378448Y-59816331D01*
X91465579Y-59799000D01*
X91554421Y-59799000D01*
X91641552Y-59816331D01*
X91641552Y-59816331D01*
G37*
G36*
X80921552Y-59806331D02*
G01*
X81003627Y-59840328D01*
X81003629Y-59840329D01*
X81018593Y-59850328D01*
X81077495Y-59889685D01*
X81140315Y-59952505D01*
X81189672Y-60026373D01*
X81223669Y-60108448D01*
X81241000Y-60195579D01*
X81241000Y-60284421D01*
X81223669Y-60371552D01*
X81189672Y-60453627D01*
X81189671Y-60453629D01*
X81140314Y-60527496D01*
X81077496Y-60590314D01*
X81003629Y-60639671D01*
X81003628Y-60639672D01*
X81003627Y-60639672D01*
X80921552Y-60673669D01*
X80834421Y-60691000D01*
X80745579Y-60691000D01*
X80658448Y-60673669D01*
X80576373Y-60639672D01*
X80576372Y-60639672D01*
X80576371Y-60639671D01*
X80502504Y-60590314D01*
X80439686Y-60527496D01*
X80390329Y-60453629D01*
X80390328Y-60453627D01*
X80356331Y-60371552D01*
X80339000Y-60284421D01*
X80339000Y-60195579D01*
X80356331Y-60108448D01*
X80390328Y-60026373D01*
X80439685Y-59952505D01*
X80502505Y-59889685D01*
X80561407Y-59850328D01*
X80576371Y-59840329D01*
X80576373Y-59840328D01*
X80658448Y-59806331D01*
X80745579Y-59789000D01*
X80834421Y-59789000D01*
X80921552Y-59806331D01*
X80921552Y-59806331D01*
G37*
G36*
X117130442Y-58585518D02*
G01*
X117196627Y-58592037D01*
X117366466Y-58643557D01*
X117522991Y-58727222D01*
X117558729Y-58756552D01*
X117660186Y-58839814D01*
X117743448Y-58941271D01*
X117772778Y-58977009D01*
X117856443Y-59133534D01*
X117907963Y-59303373D01*
X117925359Y-59480000D01*
X117907963Y-59656627D01*
X117856443Y-59826466D01*
X117772778Y-59982991D01*
X117743448Y-60018729D01*
X117660186Y-60120186D01*
X117583916Y-60182778D01*
X117522991Y-60232778D01*
X117522989Y-60232779D01*
X117385177Y-60306442D01*
X117366466Y-60316443D01*
X117196627Y-60367963D01*
X117130442Y-60374482D01*
X117064260Y-60381000D01*
X116975740Y-60381000D01*
X116909558Y-60374482D01*
X116843373Y-60367963D01*
X116673534Y-60316443D01*
X116654824Y-60306442D01*
X116517011Y-60232779D01*
X116517009Y-60232778D01*
X116456084Y-60182778D01*
X116379814Y-60120186D01*
X116296552Y-60018729D01*
X116267222Y-59982991D01*
X116183557Y-59826466D01*
X116132037Y-59656627D01*
X116114641Y-59480000D01*
X116132037Y-59303373D01*
X116183557Y-59133534D01*
X116267222Y-58977009D01*
X116296552Y-58941271D01*
X116379814Y-58839814D01*
X116481271Y-58756552D01*
X116517009Y-58727222D01*
X116673534Y-58643557D01*
X116843373Y-58592037D01*
X116909558Y-58585518D01*
X116975740Y-58579000D01*
X117064260Y-58579000D01*
X117130442Y-58585518D01*
X117130442Y-58585518D01*
G37*
G36*
X67970442Y-58585518D02*
G01*
X68036627Y-58592037D01*
X68206466Y-58643557D01*
X68362991Y-58727222D01*
X68398729Y-58756552D01*
X68500186Y-58839814D01*
X68583448Y-58941271D01*
X68612778Y-58977009D01*
X68696443Y-59133534D01*
X68747963Y-59303373D01*
X68765359Y-59480000D01*
X68747963Y-59656627D01*
X68696443Y-59826466D01*
X68612778Y-59982991D01*
X68583448Y-60018729D01*
X68500186Y-60120186D01*
X68423916Y-60182778D01*
X68362991Y-60232778D01*
X68362989Y-60232779D01*
X68225177Y-60306442D01*
X68206466Y-60316443D01*
X68036627Y-60367963D01*
X67970442Y-60374482D01*
X67904260Y-60381000D01*
X67815740Y-60381000D01*
X67749558Y-60374482D01*
X67683373Y-60367963D01*
X67513534Y-60316443D01*
X67494824Y-60306442D01*
X67357011Y-60232779D01*
X67357009Y-60232778D01*
X67296084Y-60182778D01*
X67219814Y-60120186D01*
X67136552Y-60018729D01*
X67107222Y-59982991D01*
X67023557Y-59826466D01*
X66972037Y-59656627D01*
X66954641Y-59480000D01*
X66972037Y-59303373D01*
X67023557Y-59133534D01*
X67107222Y-58977009D01*
X67136552Y-58941271D01*
X67219814Y-58839814D01*
X67321271Y-58756552D01*
X67357009Y-58727222D01*
X67513534Y-58643557D01*
X67683373Y-58592037D01*
X67749558Y-58585518D01*
X67815740Y-58579000D01*
X67904260Y-58579000D01*
X67970442Y-58585518D01*
X67970442Y-58585518D01*
G37*
G36*
X126560443Y-58575519D02*
G01*
X126626627Y-58582037D01*
X126796466Y-58633557D01*
X126796468Y-58633558D01*
X126834091Y-58653668D01*
X126952991Y-58717222D01*
X126988729Y-58746552D01*
X127090186Y-58829814D01*
X127169951Y-58927009D01*
X127202778Y-58967009D01*
X127286443Y-59123534D01*
X127337963Y-59293373D01*
X127355359Y-59470000D01*
X127337963Y-59646627D01*
X127286443Y-59816466D01*
X127202778Y-59972991D01*
X127194571Y-59982991D01*
X127090186Y-60110186D01*
X127001731Y-60182778D01*
X126952991Y-60222778D01*
X126796466Y-60306443D01*
X126626627Y-60357963D01*
X126560443Y-60364481D01*
X126494260Y-60371000D01*
X126405740Y-60371000D01*
X126339557Y-60364481D01*
X126273373Y-60357963D01*
X126103534Y-60306443D01*
X125947009Y-60222778D01*
X125898269Y-60182778D01*
X125809814Y-60110186D01*
X125705429Y-59982991D01*
X125697222Y-59972991D01*
X125613557Y-59816466D01*
X125562037Y-59646627D01*
X125544641Y-59470000D01*
X125562037Y-59293373D01*
X125613557Y-59123534D01*
X125697222Y-58967009D01*
X125730049Y-58927009D01*
X125809814Y-58829814D01*
X125911271Y-58746552D01*
X125947009Y-58717222D01*
X126065909Y-58653668D01*
X126103532Y-58633558D01*
X126103534Y-58633557D01*
X126273373Y-58582037D01*
X126339557Y-58575519D01*
X126405740Y-58569000D01*
X126494260Y-58569000D01*
X126560443Y-58575519D01*
X126560443Y-58575519D01*
G37*
G36*
X112580443Y-58535519D02*
G01*
X112646627Y-58542037D01*
X112816466Y-58593557D01*
X112816468Y-58593558D01*
X112865323Y-58619672D01*
X112972991Y-58677222D01*
X113008729Y-58706552D01*
X113110186Y-58789814D01*
X113193448Y-58891271D01*
X113222778Y-58927009D01*
X113306443Y-59083534D01*
X113357963Y-59253373D01*
X113375359Y-59430000D01*
X113357963Y-59606627D01*
X113306443Y-59776466D01*
X113222778Y-59932991D01*
X113206764Y-59952504D01*
X113110186Y-60070186D01*
X113008729Y-60153448D01*
X112972991Y-60182778D01*
X112816466Y-60266443D01*
X112646627Y-60317963D01*
X112580442Y-60324482D01*
X112514260Y-60331000D01*
X112425740Y-60331000D01*
X112359558Y-60324482D01*
X112293373Y-60317963D01*
X112123534Y-60266443D01*
X111967009Y-60182778D01*
X111931271Y-60153448D01*
X111829814Y-60070186D01*
X111733236Y-59952504D01*
X111717222Y-59932991D01*
X111633557Y-59776466D01*
X111582037Y-59606627D01*
X111564641Y-59430000D01*
X111582037Y-59253373D01*
X111633557Y-59083534D01*
X111717222Y-58927009D01*
X111746552Y-58891271D01*
X111829814Y-58789814D01*
X111931271Y-58706552D01*
X111967009Y-58677222D01*
X112074677Y-58619672D01*
X112123532Y-58593558D01*
X112123534Y-58593557D01*
X112293373Y-58542037D01*
X112359557Y-58535519D01*
X112425740Y-58529000D01*
X112514260Y-58529000D01*
X112580443Y-58535519D01*
X112580443Y-58535519D01*
G37*
G36*
X102031552Y-57786331D02*
G01*
X102107917Y-57817963D01*
X102113629Y-57820329D01*
X102125054Y-57827963D01*
X102187495Y-57869685D01*
X102250315Y-57932505D01*
X102299672Y-58006373D01*
X102333669Y-58088448D01*
X102351000Y-58175579D01*
X102351000Y-58264421D01*
X102333669Y-58351552D01*
X102299672Y-58433627D01*
X102299671Y-58433629D01*
X102250314Y-58507496D01*
X102187496Y-58570314D01*
X102113629Y-58619671D01*
X102113628Y-58619672D01*
X102113627Y-58619672D01*
X102031552Y-58653669D01*
X101944421Y-58671000D01*
X101855579Y-58671000D01*
X101768448Y-58653669D01*
X101686373Y-58619672D01*
X101686372Y-58619672D01*
X101686371Y-58619671D01*
X101612504Y-58570314D01*
X101549686Y-58507496D01*
X101500329Y-58433629D01*
X101500328Y-58433627D01*
X101466331Y-58351552D01*
X101449000Y-58264421D01*
X101449000Y-58175579D01*
X101466331Y-58088448D01*
X101500328Y-58006373D01*
X101549685Y-57932505D01*
X101612505Y-57869685D01*
X101674946Y-57827963D01*
X101686371Y-57820329D01*
X101692083Y-57817963D01*
X101768448Y-57786331D01*
X101855579Y-57769000D01*
X101944421Y-57769000D01*
X102031552Y-57786331D01*
X102031552Y-57786331D01*
G37*
G36*
X80951552Y-57786331D02*
G01*
X81027917Y-57817963D01*
X81033629Y-57820329D01*
X81045054Y-57827963D01*
X81107495Y-57869685D01*
X81170315Y-57932505D01*
X81219672Y-58006373D01*
X81253669Y-58088448D01*
X81271000Y-58175579D01*
X81271000Y-58264421D01*
X81253669Y-58351552D01*
X81219672Y-58433627D01*
X81219671Y-58433629D01*
X81170314Y-58507496D01*
X81107496Y-58570314D01*
X81033629Y-58619671D01*
X81033628Y-58619672D01*
X81033627Y-58619672D01*
X80951552Y-58653669D01*
X80864421Y-58671000D01*
X80775579Y-58671000D01*
X80688448Y-58653669D01*
X80606373Y-58619672D01*
X80606372Y-58619672D01*
X80606371Y-58619671D01*
X80532504Y-58570314D01*
X80469686Y-58507496D01*
X80420329Y-58433629D01*
X80420328Y-58433627D01*
X80386331Y-58351552D01*
X80369000Y-58264421D01*
X80369000Y-58175579D01*
X80386331Y-58088448D01*
X80420328Y-58006373D01*
X80469685Y-57932505D01*
X80532505Y-57869685D01*
X80594946Y-57827963D01*
X80606371Y-57820329D01*
X80612083Y-57817963D01*
X80688448Y-57786331D01*
X80775579Y-57769000D01*
X80864421Y-57769000D01*
X80951552Y-57786331D01*
X80951552Y-57786331D01*
G37*
G36*
X67970442Y-56045518D02*
G01*
X68036627Y-56052037D01*
X68206466Y-56103557D01*
X68362991Y-56187222D01*
X68397544Y-56215579D01*
X68500186Y-56299814D01*
X68575472Y-56391552D01*
X68612778Y-56437009D01*
X68696443Y-56593534D01*
X68747963Y-56763373D01*
X68765359Y-56940000D01*
X68747963Y-57116627D01*
X68696443Y-57286466D01*
X68612778Y-57442991D01*
X68583448Y-57478729D01*
X68500186Y-57580186D01*
X68423916Y-57642778D01*
X68362991Y-57692778D01*
X68362989Y-57692779D01*
X68225177Y-57766442D01*
X68206466Y-57776443D01*
X68036627Y-57827963D01*
X67970443Y-57834481D01*
X67904260Y-57841000D01*
X67815740Y-57841000D01*
X67749557Y-57834481D01*
X67683373Y-57827963D01*
X67513534Y-57776443D01*
X67494824Y-57766442D01*
X67357011Y-57692779D01*
X67357009Y-57692778D01*
X67296084Y-57642778D01*
X67219814Y-57580186D01*
X67136552Y-57478729D01*
X67107222Y-57442991D01*
X67023557Y-57286466D01*
X66972037Y-57116627D01*
X66954641Y-56940000D01*
X66972037Y-56763373D01*
X67023557Y-56593534D01*
X67107222Y-56437009D01*
X67144528Y-56391552D01*
X67219814Y-56299814D01*
X67322456Y-56215579D01*
X67357009Y-56187222D01*
X67513534Y-56103557D01*
X67683373Y-56052037D01*
X67749558Y-56045518D01*
X67815740Y-56039000D01*
X67904260Y-56039000D01*
X67970442Y-56045518D01*
X67970442Y-56045518D01*
G37*
G36*
X117130442Y-56045518D02*
G01*
X117196627Y-56052037D01*
X117366466Y-56103557D01*
X117522991Y-56187222D01*
X117557544Y-56215579D01*
X117660186Y-56299814D01*
X117735472Y-56391552D01*
X117772778Y-56437009D01*
X117856443Y-56593534D01*
X117907963Y-56763373D01*
X117925359Y-56940000D01*
X117907963Y-57116627D01*
X117856443Y-57286466D01*
X117772778Y-57442991D01*
X117743448Y-57478729D01*
X117660186Y-57580186D01*
X117583916Y-57642778D01*
X117522991Y-57692778D01*
X117522989Y-57692779D01*
X117385177Y-57766442D01*
X117366466Y-57776443D01*
X117196627Y-57827963D01*
X117130443Y-57834481D01*
X117064260Y-57841000D01*
X116975740Y-57841000D01*
X116909557Y-57834481D01*
X116843373Y-57827963D01*
X116673534Y-57776443D01*
X116654824Y-57766442D01*
X116517011Y-57692779D01*
X116517009Y-57692778D01*
X116456084Y-57642778D01*
X116379814Y-57580186D01*
X116296552Y-57478729D01*
X116267222Y-57442991D01*
X116183557Y-57286466D01*
X116132037Y-57116627D01*
X116114641Y-56940000D01*
X116132037Y-56763373D01*
X116183557Y-56593534D01*
X116267222Y-56437009D01*
X116304528Y-56391552D01*
X116379814Y-56299814D01*
X116482456Y-56215579D01*
X116517009Y-56187222D01*
X116673534Y-56103557D01*
X116843373Y-56052037D01*
X116909558Y-56045518D01*
X116975740Y-56039000D01*
X117064260Y-56039000D01*
X117130442Y-56045518D01*
X117130442Y-56045518D01*
G37*
G36*
X126560443Y-56035519D02*
G01*
X126626627Y-56042037D01*
X126796466Y-56093557D01*
X126796468Y-56093558D01*
X126861742Y-56128448D01*
X126952991Y-56177222D01*
X126988729Y-56206552D01*
X127090186Y-56289814D01*
X127169951Y-56387009D01*
X127202778Y-56427009D01*
X127286443Y-56583534D01*
X127337963Y-56753373D01*
X127355359Y-56930000D01*
X127337963Y-57106627D01*
X127286443Y-57276466D01*
X127202778Y-57432991D01*
X127194571Y-57442991D01*
X127090186Y-57570186D01*
X127001731Y-57642778D01*
X126952991Y-57682778D01*
X126796466Y-57766443D01*
X126626627Y-57817963D01*
X126560442Y-57824482D01*
X126494260Y-57831000D01*
X126405740Y-57831000D01*
X126339558Y-57824482D01*
X126273373Y-57817963D01*
X126103534Y-57766443D01*
X125947009Y-57682778D01*
X125898269Y-57642778D01*
X125809814Y-57570186D01*
X125705429Y-57442991D01*
X125697222Y-57432991D01*
X125613557Y-57276466D01*
X125562037Y-57106627D01*
X125544641Y-56930000D01*
X125562037Y-56753373D01*
X125613557Y-56583534D01*
X125697222Y-56427009D01*
X125730049Y-56387009D01*
X125809814Y-56289814D01*
X125911271Y-56206552D01*
X125947009Y-56177222D01*
X126038258Y-56128448D01*
X126103532Y-56093558D01*
X126103534Y-56093557D01*
X126273373Y-56042037D01*
X126339557Y-56035519D01*
X126405740Y-56029000D01*
X126494260Y-56029000D01*
X126560443Y-56035519D01*
X126560443Y-56035519D01*
G37*
G36*
X112580442Y-55995518D02*
G01*
X112646627Y-56002037D01*
X112816466Y-56053557D01*
X112972991Y-56137222D01*
X113008729Y-56166552D01*
X113110186Y-56249814D01*
X113193448Y-56351271D01*
X113222778Y-56387009D01*
X113306443Y-56543534D01*
X113357963Y-56713373D01*
X113375359Y-56890000D01*
X113357963Y-57066627D01*
X113306443Y-57236466D01*
X113222778Y-57392991D01*
X113193448Y-57428729D01*
X113110186Y-57530186D01*
X113008729Y-57613448D01*
X112972991Y-57642778D01*
X112816466Y-57726443D01*
X112646627Y-57777963D01*
X112580443Y-57784481D01*
X112514260Y-57791000D01*
X112425740Y-57791000D01*
X112359557Y-57784481D01*
X112293373Y-57777963D01*
X112123534Y-57726443D01*
X111967009Y-57642778D01*
X111931271Y-57613448D01*
X111829814Y-57530186D01*
X111746552Y-57428729D01*
X111717222Y-57392991D01*
X111633557Y-57236466D01*
X111582037Y-57066627D01*
X111564641Y-56890000D01*
X111582037Y-56713373D01*
X111633557Y-56543534D01*
X111717222Y-56387009D01*
X111746552Y-56351271D01*
X111829814Y-56249814D01*
X111931271Y-56166552D01*
X111967009Y-56137222D01*
X112123534Y-56053557D01*
X112293373Y-56002037D01*
X112359558Y-55995518D01*
X112425740Y-55989000D01*
X112514260Y-55989000D01*
X112580442Y-55995518D01*
X112580442Y-55995518D01*
G37*
G36*
X100071552Y-55826331D02*
G01*
X100153627Y-55860328D01*
X100153629Y-55860329D01*
X100179319Y-55877495D01*
X100227495Y-55909685D01*
X100290315Y-55972505D01*
X100339672Y-56046373D01*
X100373669Y-56128448D01*
X100391000Y-56215579D01*
X100391000Y-56304421D01*
X100373669Y-56391552D01*
X100339672Y-56473627D01*
X100292962Y-56543534D01*
X100290314Y-56547496D01*
X100227496Y-56610314D01*
X100153629Y-56659671D01*
X100153628Y-56659672D01*
X100153627Y-56659672D01*
X100071552Y-56693669D01*
X99984421Y-56711000D01*
X99895579Y-56711000D01*
X99808448Y-56693669D01*
X99726373Y-56659672D01*
X99726372Y-56659672D01*
X99726371Y-56659671D01*
X99652504Y-56610314D01*
X99589686Y-56547496D01*
X99587039Y-56543534D01*
X99540328Y-56473627D01*
X99506331Y-56391552D01*
X99489000Y-56304421D01*
X99489000Y-56215579D01*
X99506331Y-56128448D01*
X99540328Y-56046373D01*
X99589685Y-55972505D01*
X99652505Y-55909685D01*
X99700681Y-55877495D01*
X99726371Y-55860329D01*
X99726373Y-55860328D01*
X99808448Y-55826331D01*
X99895579Y-55809000D01*
X99984421Y-55809000D01*
X100071552Y-55826331D01*
X100071552Y-55826331D01*
G37*
G36*
X102891552Y-55156331D02*
G01*
X102973627Y-55190328D01*
X102973629Y-55190329D01*
X103010813Y-55215175D01*
X103044918Y-55237963D01*
X103047496Y-55239686D01*
X103110314Y-55302504D01*
X103151184Y-55363669D01*
X103159672Y-55376373D01*
X103193669Y-55458448D01*
X103211000Y-55545579D01*
X103211000Y-55634421D01*
X103193669Y-55721552D01*
X103159672Y-55803627D01*
X103121786Y-55860328D01*
X103110314Y-55877496D01*
X103047496Y-55940314D01*
X102973629Y-55989671D01*
X102973628Y-55989672D01*
X102973627Y-55989672D01*
X102891552Y-56023669D01*
X102804421Y-56041000D01*
X102715579Y-56041000D01*
X102628448Y-56023669D01*
X102546373Y-55989672D01*
X102546372Y-55989672D01*
X102546371Y-55989671D01*
X102472504Y-55940314D01*
X102409686Y-55877496D01*
X102398215Y-55860328D01*
X102360328Y-55803627D01*
X102326331Y-55721552D01*
X102309000Y-55634421D01*
X102309000Y-55545579D01*
X102326331Y-55458448D01*
X102360328Y-55376373D01*
X102368817Y-55363669D01*
X102409686Y-55302504D01*
X102472504Y-55239686D01*
X102475083Y-55237963D01*
X102509187Y-55215175D01*
X102546371Y-55190329D01*
X102546373Y-55190328D01*
X102628448Y-55156331D01*
X102715579Y-55139000D01*
X102804421Y-55139000D01*
X102891552Y-55156331D01*
X102891552Y-55156331D01*
G37*
G36*
X99261552Y-54496331D02*
G01*
X99343627Y-54530328D01*
X99343629Y-54530329D01*
X99380813Y-54555175D01*
X99417495Y-54579685D01*
X99480315Y-54642505D01*
X99529672Y-54716373D01*
X99563669Y-54798448D01*
X99581000Y-54885579D01*
X99581000Y-54974421D01*
X99563669Y-55061552D01*
X99529672Y-55143627D01*
X99529671Y-55143629D01*
X99480314Y-55217496D01*
X99417496Y-55280314D01*
X99343629Y-55329671D01*
X99343628Y-55329672D01*
X99343627Y-55329672D01*
X99261552Y-55363669D01*
X99174421Y-55381000D01*
X99085579Y-55381000D01*
X98998448Y-55363669D01*
X98916373Y-55329672D01*
X98916372Y-55329672D01*
X98916371Y-55329671D01*
X98842504Y-55280314D01*
X98779686Y-55217496D01*
X98730329Y-55143629D01*
X98730328Y-55143627D01*
X98696331Y-55061552D01*
X98679000Y-54974421D01*
X98679000Y-54885579D01*
X98696331Y-54798448D01*
X98730328Y-54716373D01*
X98779685Y-54642505D01*
X98842505Y-54579685D01*
X98879187Y-54555175D01*
X98916371Y-54530329D01*
X98916373Y-54530328D01*
X98998448Y-54496331D01*
X99085579Y-54479000D01*
X99174421Y-54479000D01*
X99261552Y-54496331D01*
X99261552Y-54496331D01*
G37*
G36*
X67970443Y-53505519D02*
G01*
X68036627Y-53512037D01*
X68206466Y-53563557D01*
X68362991Y-53647222D01*
X68398729Y-53676552D01*
X68500186Y-53759814D01*
X68583448Y-53861271D01*
X68612778Y-53897009D01*
X68696443Y-54053534D01*
X68747963Y-54223373D01*
X68765359Y-54400000D01*
X68747963Y-54576627D01*
X68696443Y-54746466D01*
X68612778Y-54902991D01*
X68583448Y-54938729D01*
X68500186Y-55040186D01*
X68423916Y-55102778D01*
X68362991Y-55152778D01*
X68206466Y-55236443D01*
X68036627Y-55287963D01*
X67970442Y-55294482D01*
X67904260Y-55301000D01*
X67815740Y-55301000D01*
X67749558Y-55294482D01*
X67683373Y-55287963D01*
X67513534Y-55236443D01*
X67357009Y-55152778D01*
X67296084Y-55102778D01*
X67219814Y-55040186D01*
X67136552Y-54938729D01*
X67107222Y-54902991D01*
X67023557Y-54746466D01*
X66972037Y-54576627D01*
X66954641Y-54400000D01*
X66972037Y-54223373D01*
X67023557Y-54053534D01*
X67107222Y-53897009D01*
X67136552Y-53861271D01*
X67219814Y-53759814D01*
X67321271Y-53676552D01*
X67357009Y-53647222D01*
X67513534Y-53563557D01*
X67683373Y-53512037D01*
X67749557Y-53505519D01*
X67815740Y-53499000D01*
X67904260Y-53499000D01*
X67970443Y-53505519D01*
X67970443Y-53505519D01*
G37*
G36*
X117130443Y-53505519D02*
G01*
X117196627Y-53512037D01*
X117366466Y-53563557D01*
X117522991Y-53647222D01*
X117558729Y-53676552D01*
X117660186Y-53759814D01*
X117743448Y-53861271D01*
X117772778Y-53897009D01*
X117856443Y-54053534D01*
X117907963Y-54223373D01*
X117925359Y-54400000D01*
X117907963Y-54576627D01*
X117856443Y-54746466D01*
X117772778Y-54902991D01*
X117743448Y-54938729D01*
X117660186Y-55040186D01*
X117583916Y-55102778D01*
X117522991Y-55152778D01*
X117366466Y-55236443D01*
X117196627Y-55287963D01*
X117130442Y-55294482D01*
X117064260Y-55301000D01*
X116975740Y-55301000D01*
X116909558Y-55294482D01*
X116843373Y-55287963D01*
X116673534Y-55236443D01*
X116517009Y-55152778D01*
X116456084Y-55102778D01*
X116379814Y-55040186D01*
X116296552Y-54938729D01*
X116267222Y-54902991D01*
X116183557Y-54746466D01*
X116132037Y-54576627D01*
X116114641Y-54400000D01*
X116132037Y-54223373D01*
X116183557Y-54053534D01*
X116267222Y-53897009D01*
X116296552Y-53861271D01*
X116379814Y-53759814D01*
X116481271Y-53676552D01*
X116517009Y-53647222D01*
X116673534Y-53563557D01*
X116843373Y-53512037D01*
X116909557Y-53505519D01*
X116975740Y-53499000D01*
X117064260Y-53499000D01*
X117130443Y-53505519D01*
X117130443Y-53505519D01*
G37*
G36*
X112580443Y-53455519D02*
G01*
X112646627Y-53462037D01*
X112816466Y-53513557D01*
X112972991Y-53597222D01*
X113008729Y-53626552D01*
X113110186Y-53709814D01*
X113193448Y-53811271D01*
X113222778Y-53847009D01*
X113306443Y-54003534D01*
X113357963Y-54173373D01*
X113375359Y-54350000D01*
X113357963Y-54526627D01*
X113306443Y-54696466D01*
X113306442Y-54696468D01*
X113295802Y-54716373D01*
X113222778Y-54852991D01*
X113196033Y-54885580D01*
X113110186Y-54990186D01*
X113023225Y-55061552D01*
X112972991Y-55102778D01*
X112816466Y-55186443D01*
X112646627Y-55237963D01*
X112580443Y-55244481D01*
X112514260Y-55251000D01*
X112425740Y-55251000D01*
X112359557Y-55244481D01*
X112293373Y-55237963D01*
X112123534Y-55186443D01*
X111967009Y-55102778D01*
X111916775Y-55061552D01*
X111829814Y-54990186D01*
X111743967Y-54885580D01*
X111717222Y-54852991D01*
X111644198Y-54716373D01*
X111633558Y-54696468D01*
X111633557Y-54696466D01*
X111582037Y-54526627D01*
X111564641Y-54350000D01*
X111582037Y-54173373D01*
X111633557Y-54003534D01*
X111717222Y-53847009D01*
X111746552Y-53811271D01*
X111829814Y-53709814D01*
X111931271Y-53626552D01*
X111967009Y-53597222D01*
X112123534Y-53513557D01*
X112293373Y-53462037D01*
X112359557Y-53455519D01*
X112425740Y-53449000D01*
X112514260Y-53449000D01*
X112580443Y-53455519D01*
X112580443Y-53455519D01*
G37*
G36*
X62844780Y-48449566D02*
G01*
X63144237Y-48509131D01*
X63708401Y-48742815D01*
X64216135Y-49082072D01*
X64647928Y-49513865D01*
X64987185Y-50021599D01*
X65220869Y-50585763D01*
X65220869Y-50585765D01*
X65340000Y-51184675D01*
X65340000Y-51795325D01*
X65292002Y-52036625D01*
X65220869Y-52394237D01*
X64987185Y-52958401D01*
X64647928Y-53466135D01*
X64216135Y-53897928D01*
X63708401Y-54237185D01*
X63144237Y-54470869D01*
X62863932Y-54526625D01*
X62545325Y-54590000D01*
X61934675Y-54590000D01*
X61616068Y-54526625D01*
X61335763Y-54470869D01*
X60771599Y-54237185D01*
X60263865Y-53897928D01*
X59832072Y-53466135D01*
X59492815Y-52958401D01*
X59259131Y-52394237D01*
X59187998Y-52036625D01*
X59140000Y-51795325D01*
X59140000Y-51184675D01*
X59259131Y-50585765D01*
X59259131Y-50585763D01*
X59492815Y-50021599D01*
X59832072Y-49513865D01*
X60263865Y-49082072D01*
X60771599Y-48742815D01*
X61335763Y-48509131D01*
X61635220Y-48449566D01*
X61934675Y-48390000D01*
X62545325Y-48390000D01*
X62844780Y-48449566D01*
X62844780Y-48449566D01*
G37*
G36*
X124844780Y-48449566D02*
G01*
X125144237Y-48509131D01*
X125708401Y-48742815D01*
X126216135Y-49082072D01*
X126647928Y-49513865D01*
X126987185Y-50021599D01*
X127220869Y-50585763D01*
X127220869Y-50585765D01*
X127340000Y-51184675D01*
X127340000Y-51795325D01*
X127292002Y-52036625D01*
X127220869Y-52394237D01*
X126987185Y-52958401D01*
X126647928Y-53466135D01*
X126216135Y-53897928D01*
X125708401Y-54237185D01*
X125144237Y-54470869D01*
X124863932Y-54526625D01*
X124545325Y-54590000D01*
X123934675Y-54590000D01*
X123616068Y-54526625D01*
X123335763Y-54470869D01*
X122771599Y-54237185D01*
X122263865Y-53897928D01*
X121832072Y-53466135D01*
X121492815Y-52958401D01*
X121259131Y-52394237D01*
X121187998Y-52036625D01*
X121140000Y-51795325D01*
X121140000Y-51184675D01*
X121259131Y-50585765D01*
X121259131Y-50585763D01*
X121492815Y-50021599D01*
X121832072Y-49513865D01*
X122263865Y-49082072D01*
X122771599Y-48742815D01*
X123335763Y-48509131D01*
X123635220Y-48449566D01*
X123934675Y-48390000D01*
X124545325Y-48390000D01*
X124844780Y-48449566D01*
X124844780Y-48449566D01*
G37*
G36*
X67970442Y-50965518D02*
G01*
X68036627Y-50972037D01*
X68206466Y-51023557D01*
X68362991Y-51107222D01*
X68398729Y-51136552D01*
X68500186Y-51219814D01*
X68583448Y-51321271D01*
X68612778Y-51357009D01*
X68696443Y-51513534D01*
X68747963Y-51683373D01*
X68765359Y-51860000D01*
X68747963Y-52036627D01*
X68696443Y-52206466D01*
X68612778Y-52362991D01*
X68587135Y-52394237D01*
X68500186Y-52500186D01*
X68423916Y-52562778D01*
X68362991Y-52612778D01*
X68206466Y-52696443D01*
X68036627Y-52747963D01*
X67970443Y-52754481D01*
X67904260Y-52761000D01*
X67815740Y-52761000D01*
X67749557Y-52754481D01*
X67683373Y-52747963D01*
X67513534Y-52696443D01*
X67357009Y-52612778D01*
X67296084Y-52562778D01*
X67219814Y-52500186D01*
X67132865Y-52394237D01*
X67107222Y-52362991D01*
X67023557Y-52206466D01*
X66972037Y-52036627D01*
X66954641Y-51860000D01*
X66972037Y-51683373D01*
X67023557Y-51513534D01*
X67107222Y-51357009D01*
X67136552Y-51321271D01*
X67219814Y-51219814D01*
X67321271Y-51136552D01*
X67357009Y-51107222D01*
X67513534Y-51023557D01*
X67683373Y-50972037D01*
X67749558Y-50965518D01*
X67815740Y-50959000D01*
X67904260Y-50959000D01*
X67970442Y-50965518D01*
X67970442Y-50965518D01*
G37*
G36*
X117130442Y-50965518D02*
G01*
X117196627Y-50972037D01*
X117366466Y-51023557D01*
X117522991Y-51107222D01*
X117558729Y-51136552D01*
X117660186Y-51219814D01*
X117743448Y-51321271D01*
X117772778Y-51357009D01*
X117856443Y-51513534D01*
X117907963Y-51683373D01*
X117925359Y-51860000D01*
X117907963Y-52036627D01*
X117856443Y-52206466D01*
X117772778Y-52362991D01*
X117747135Y-52394237D01*
X117660186Y-52500186D01*
X117583916Y-52562778D01*
X117522991Y-52612778D01*
X117366466Y-52696443D01*
X117196627Y-52747963D01*
X117130443Y-52754481D01*
X117064260Y-52761000D01*
X116975740Y-52761000D01*
X116909557Y-52754481D01*
X116843373Y-52747963D01*
X116673534Y-52696443D01*
X116517009Y-52612778D01*
X116456084Y-52562778D01*
X116379814Y-52500186D01*
X116292865Y-52394237D01*
X116267222Y-52362991D01*
X116183557Y-52206466D01*
X116132037Y-52036627D01*
X116114641Y-51860000D01*
X116132037Y-51683373D01*
X116183557Y-51513534D01*
X116267222Y-51357009D01*
X116296552Y-51321271D01*
X116379814Y-51219814D01*
X116481271Y-51136552D01*
X116517009Y-51107222D01*
X116673534Y-51023557D01*
X116843373Y-50972037D01*
X116909558Y-50965518D01*
X116975740Y-50959000D01*
X117064260Y-50959000D01*
X117130442Y-50965518D01*
X117130442Y-50965518D01*
G37*
G36*
X112580442Y-50915518D02*
G01*
X112646627Y-50922037D01*
X112816466Y-50973557D01*
X112972991Y-51057222D01*
X113008729Y-51086552D01*
X113110186Y-51169814D01*
X113193448Y-51271271D01*
X113222778Y-51307009D01*
X113306443Y-51463534D01*
X113357963Y-51633373D01*
X113375359Y-51810000D01*
X113357963Y-51986627D01*
X113306443Y-52156466D01*
X113222778Y-52312991D01*
X113193448Y-52348729D01*
X113110186Y-52450186D01*
X113008729Y-52533448D01*
X112972991Y-52562778D01*
X112816466Y-52646443D01*
X112646627Y-52697963D01*
X112580442Y-52704482D01*
X112514260Y-52711000D01*
X112425740Y-52711000D01*
X112359558Y-52704482D01*
X112293373Y-52697963D01*
X112123534Y-52646443D01*
X111967009Y-52562778D01*
X111931271Y-52533448D01*
X111829814Y-52450186D01*
X111746552Y-52348729D01*
X111717222Y-52312991D01*
X111633557Y-52156466D01*
X111582037Y-51986627D01*
X111564641Y-51810000D01*
X111582037Y-51633373D01*
X111633557Y-51463534D01*
X111717222Y-51307009D01*
X111746552Y-51271271D01*
X111829814Y-51169814D01*
X111931271Y-51086552D01*
X111967009Y-51057222D01*
X112123534Y-50973557D01*
X112293373Y-50922037D01*
X112359558Y-50915518D01*
X112425740Y-50909000D01*
X112514260Y-50909000D01*
X112580442Y-50915518D01*
X112580442Y-50915518D01*
G37*
G36*
X117921000Y-50221000D02*
G01*
X116119000Y-50221000D01*
X116119000Y-48419000D01*
X117921000Y-48419000D01*
X117921000Y-50221000D01*
X117921000Y-50221000D01*
G37*
G36*
X68761000Y-50221000D02*
G01*
X66959000Y-50221000D01*
X66959000Y-48419000D01*
X68761000Y-48419000D01*
X68761000Y-50221000D01*
X68761000Y-50221000D01*
G37*
G36*
X113371000Y-50171000D02*
G01*
X111569000Y-50171000D01*
X111569000Y-48369000D01*
X113371000Y-48369000D01*
X113371000Y-50171000D01*
X113371000Y-50171000D01*
G37*
M02*
